<?xml version="1.0" standalone="no"?>
<!DOCTYPE svg PUBLIC "-//W3C//DTD SVG 1.1//EN" "http://www.w3.org/Graphics/SVG/1.1/DTD/svg11.dtd" >
<svg xmlns="http://www.w3.org/2000/svg" xmlns:xlink="http://www.w3.org/1999/xlink" version="1.1">
<metadata>
Created by FontForge 20170731 at Tue Aug 25 18:16:04 2020
 By Aleksey,,,
Copyright 2019 The Syne Project Authors (https://gitlab.com/bonjour-monde/fonderie/syne-typeface)
</metadata>
<defs>
<font id="Syne-Bold" horiz-adv-x="0" >
  <font-face 
    font-family="Syne"
    font-weight="700"
    font-stretch="normal"
    units-per-em="1000"
    panose-1="0 0 0 0 0 0 0 0 0 0"
    ascent="800"
    descent="-200"
    x-height="497"
    cap-height="647"
    bbox="-170 -259 1436 949"
    underline-thickness="75"
    underline-position="-261"
    unicode-range="U+000D-FB01"
  />
<missing-glyph horiz-adv-x="456" 
d="M97 393h262v-262h-262v262z" />
    <glyph glyph-name="fi" unicode="fi" horiz-adv-x="714" 
d="M137 0v375h-112v99h112v50q0 90 49 131.5t143 41.5h326v-105h-295q-44 1 -68.5 -16t-24.5 -68v-34h388v-474h-130v375h-258v-375h-130z" />
    <glyph glyph-name="f_f" unicode="ff" horiz-adv-x="829" 
d="M132 0v389h-107v99h107v22q0 90 49 131.5t143 41.5h104v-105h-73q-44 1 -68.5 -15.5t-24.5 -68.5v-6h258v36q0 90 49 131.5t143 41.5h103v-105h-72q-44 1 -68.5 -16t-24.5 -68v-20h164v-99h-164v-389h-130v389h-258v-389h-130z" />
    <glyph glyph-name="f_f_i" unicode="ffi" horiz-adv-x="1093" 
d="M132 0v389h-107v99h107v22q0 90 49 131.5t143 41.5h104v-105h-73q-44 1 -68.5 -15.5t-24.5 -68.5v-6h258v36q0 90 49 131.5t143 41.5h322v-105h-291q-44 1 -68.5 -16t-24.5 -68v-20h383v-488h-130v389h-253v-389h-130v389h-258v-389h-130z" />
    <glyph glyph-name=".notdef" horiz-adv-x="456" 
d="M97 393h262v-262h-262v262z" />
    <glyph glyph-name=".null" 
 />
    <glyph glyph-name="nonmarkingreturn" horiz-adv-x="333" 
 />
    <glyph glyph-name="CR" unicode="&#xd;" horiz-adv-x="600" 
 />
    <glyph glyph-name="space" unicode=" " horiz-adv-x="241" 
 />
    <glyph glyph-name="exclam" unicode="!" horiz-adv-x="305" 
d="M86 663h132v-461h-132v461zM228 114v-114h-151v114h151z" />
    <glyph glyph-name="quotedbl" unicode="&#x22;" horiz-adv-x="414" 
d="M149 443h-69l-41 124v86h152v-86zM333 443h-69l-41 124v86h152v-86z" />
    <glyph glyph-name="numbersign" unicode="#" horiz-adv-x="909" 
d="M241 633h122v-145h188v145h122v-145h170v-92h-170v-145h170v-93h-170v-144h-122v144h-188v-144h-122v144h-174v93h174v145h-174v92h174v145zM363 251h188v145h-188v-145z" />
    <glyph glyph-name="dollar" unicode="$" horiz-adv-x="559" 
d="M181 -59l22 122q-52 11 -85.5 33t-52.5 47.5t-26 49t-4 38.5h120q11 -34 45 -55.5t90 -21.5q57 0 76.5 16t19.5 41q0 32 -30 43.5t-92 20.5q-56 10 -105.5 25.5t-79.5 44.5t-30 78q0 48 30.5 81.5t83 51.5t119.5 18h11l22 126l71 -12l-21 -123q68 -17 102 -59.5
t35 -101.5h-115q-8 36 -32 53t-74 17q-48 0 -73.5 -15.5t-25.5 -41.5q0 -31 34.5 -42.5t103.5 -23.5q52 -11 97.5 -25.5t74 -42.5t28.5 -80q0 -73 -61.5 -111t-167.5 -38h-17l-22 -125z" />
    <glyph glyph-name="percent" unicode="%" horiz-adv-x="948" 
d="M622 686l54 -30l-382 -690l-52 32zM228 333q-86 0 -137 44t-51 121q0 79 51 122.5t137 43.5t136.5 -43.5t50.5 -122.5q0 -77 -50.5 -121t-136.5 -44zM228 415q38 0 61.5 22.5t23.5 60.5q0 39 -23.5 61.5t-61.5 22.5q-39 0 -62.5 -22.5t-23.5 -61.5q0 -38 23.5 -60.5
t62.5 -22.5zM722 -12q-86 0 -137 43.5t-51 121.5t51 122t137 44q85 0 135.5 -44t50.5 -122t-50.5 -121.5t-135.5 -43.5zM722 70q38 0 61.5 22t23.5 61q0 38 -23.5 61t-61.5 23q-39 0 -62.5 -22.5t-23.5 -61.5t23.5 -61t62.5 -22z" />
    <glyph glyph-name="ampersand" unicode="&#x26;" horiz-adv-x="779" 
d="M263 -11q-62 0 -113.5 21t-82.5 59t-31 90q0 57 32 94t87 56.5t123 26.5q-62 5 -111 20.5t-76.5 45.5t-27.5 79q0 81 75.5 130t208.5 49q81 0 143 -21.5t97 -65t35 -108.5h-122q-1 41 -41.5 62.5t-109.5 21.5q-74 0 -112 -23.5t-38 -64.5q0 -43 41 -68t127 -25h389v-75
h-126v-293h-121q-5 34 -6.5 67.5t-2.5 81.5q-14 -41 -42 -77.5t-75.5 -59.5t-119.5 -23zM318 89q61 0 101 21.5t60.5 56t20.5 71.5v55h-133q-87 0 -140 -25.5t-53 -80.5q0 -43 37 -70.5t107 -27.5z" />
    <glyph glyph-name="quotesingle" unicode="'" horiz-adv-x="230" 
d="M149 443h-69l-41 124v86h152v-86z" />
    <glyph glyph-name="parenleft" unicode="(" horiz-adv-x="336" 
d="M283 -90l-69 -56l-16.5 18.5t-40 54.5t-47.5 88.5t-40.5 120.5t-16.5 150q0 83 16.5 150.5t40.5 119t47.5 87t40 53.5l16.5 18l69 -55l-19.5 -24t-44.5 -71.5t-44.5 -117t-19.5 -160.5q0 -93 19.5 -163.5t44.5 -118t44.5 -71z" />
    <glyph glyph-name="parenright" unicode=")" horiz-adv-x="336" 
d="M53 -90l19.5 23.5t44.5 71t44.5 118t19.5 163.5q0 91 -19.5 160.5t-44.5 117t-44.5 71.5l-19.5 24l69 55l16.5 -18t40.5 -53.5t47.5 -87t40 -119t16.5 -150.5q0 -82 -16.5 -150t-40 -120.5t-47.5 -88.5t-40.5 -54.5l-16.5 -18.5z" />
    <glyph glyph-name="asterisk" unicode="*" horiz-adv-x="503" 
d="M432 636l31 -95l-134 -40l89 -115l-81 -59l-87 126l-86 -126l-81 59l89 115l-131 39l31 96l132 -47l-4 143h100l-5 -144z" />
    <glyph glyph-name="plus" unicode="+" horiz-adv-x="560" 
d="M50 318h176v141h108v-141h176v-95h-176v-142h-108v142h-176v95z" />
    <glyph glyph-name="comma" unicode="," horiz-adv-x="231" 
d="M67 -149l-18 34q15 22 29.5 49t15.5 55l-55 11v115h153v-82q0 -71 -33.5 -114.5t-91.5 -67.5z" />
    <glyph glyph-name="hyphen" unicode="-" horiz-adv-x="494" 
d="M80 320h334v-98h-334v98z" />
    <glyph glyph-name="period" unicode="." horiz-adv-x="271" 
d="M211 114v-114h-151v114h151z" />
    <glyph glyph-name="slash" unicode="/" horiz-adv-x="481" 
d="M340 753l105 -38l-305 -835l-104 38z" />
    <glyph glyph-name="zero" unicode="0" horiz-adv-x="738" 
d="M370 -12q-94 0 -165.5 30t-111.5 87.5t-40 141.5t40 142.5t111.5 88.5t165.5 30t164.5 -30t110.5 -88.5t40 -142.5t-40 -141.5t-110.5 -87.5t-164.5 -30zM370 88q51 0 92.5 18.5t66 54t24.5 86.5t-24.5 87.5t-65.5 55.5t-93 19q-51 0 -93 -19t-67 -55t-25 -88
q0 -51 24.5 -86.5t66.5 -54t94 -18.5z" />
    <glyph glyph-name="one" unicode="1" horiz-adv-x="390" 
d="M25 386v111h271v-497h-130v386h-141z" />
    <glyph glyph-name="two" unicode="2" horiz-adv-x="624" 
d="M378 151l-109 -51h315v-100h-533v100q121 54 207.5 89t133 65.5t46.5 70.5q0 35 -32.5 57t-103.5 22q-63 0 -101.5 -24.5t-40.5 -66.5h-126q-3 58 28.5 102t92.5 69t144 25q81 0 142.5 -20.5t96 -58t34.5 -89.5q0 -59 -45.5 -101t-148.5 -89z" />
    <glyph glyph-name="three" unicode="3" horiz-adv-x="641" 
d="M605 27q0 -56 -35.5 -99t-100.5 -67.5t-153 -24.5q-86 0 -150.5 26.5t-98.5 73t-31 107.5h126q1 -43 42 -69.5t112 -26.5q73 0 112 25t39 74q0 47 -45 66.5t-127 19.5h-85v100h85q86 0 123.5 17.5t37.5 61.5q0 41 -33 64.5t-107 23.5q-70 0 -107.5 -25t-39.5 -66h-126
q-3 62 33.5 107.5t100 70t139.5 24.5q129 0 202.5 -48.5t73.5 -128.5q0 -52 -26 -82.5t-72.5 -45t-107.5 -19.5q65 -5 114.5 -20.5t77 -48.5t27.5 -90z" />
    <glyph glyph-name="four" unicode="4" horiz-adv-x="711" 
d="M556 501v-412h115v-100h-115v-134h-130v134h-379v100l379 412h130zM204 89h222v249z" />
    <glyph glyph-name="five" unicode="5" horiz-adv-x="685" 
d="M404 259q66 0 119 -23t84 -68.5t31 -114.5t-35 -117t-98 -73.5t-148 -25.5q-79 0 -146 24.5t-108.5 70t-44.5 108.5h124q4 -31 28 -52.5t61.5 -32.5t80.5 -11q40 0 75.5 11.5t58 36t22.5 62.5q0 39 -21.5 63.5t-56.5 36.5t-75 12q-47 0 -94 -13.5t-71 -49.5l-113 21
l30 376h463v-111h-342l-17 -206q29 36 82 56t111 20z" />
    <glyph glyph-name="six" unicode="6" horiz-adv-x="689" 
d="M392 426q79 0 138 -27t91.5 -76.5t31.5 -115.5q-1 -100 -81 -160t-220 -60q-99 0 -172.5 25t-113.5 73.5t-39 116.5q0 24 7.5 52.5t27.5 61.5q4 7 22 33.5t44.5 64t54.5 78t53 76t40.5 57.5l15.5 22h164l-224 -276q35 26 73.5 40.5t86.5 14.5zM345 93q77 0 125.5 30
t49.5 86t-46.5 86.5t-124.5 30.5q-86 0 -137 -34t-52 -84q-1 -56 51.5 -85.5t133.5 -29.5z" />
    <glyph glyph-name="seven" unicode="7" horiz-adv-x="643" 
d="M33 386v111h571v-111l-312 -536h-157l329 536h-431z" />
    <glyph glyph-name="eight" unicode="8" horiz-adv-x="675" 
d="M337 -13q-99 0 -164.5 25.5t-98 69t-32.5 96.5q0 69 43.5 109t124.5 55q-73 13 -111 47.5t-38 94.5q0 77 68.5 126.5t207.5 49.5q140 0 208.5 -49.5t68.5 -126.5q0 -60 -38 -94.5t-112 -47.5q81 -15 125 -55t44 -109q0 -53 -32.5 -96.5t-98 -69t-165.5 -25.5zM337 379
q74 0 109.5 25.5t35.5 62.5q0 38 -35.5 61.5t-109.5 23.5q-73 0 -107 -23.5t-34 -61.5q0 -37 34 -62.5t107 -25.5zM337 97q85 0 124.5 26.5t39.5 67.5q0 44 -39.5 70.5t-124.5 26.5q-84 0 -122 -26.5t-38 -70.5q0 -41 38 -67.5t122 -26.5z" />
    <glyph glyph-name="nine" unicode="9" horiz-adv-x="697" 
d="M298 74q-77 0 -136.5 27.5t-92.5 76.5t-33 115q2 102 83.5 160.5t230.5 58.5t235 -55.5t84 -158.5q0 -26 -9 -55t-31 -63q-3 -6 -21 -32.5t-43.5 -64t-53.5 -78t-52 -76t-39.5 -57.5l-15.5 -22h-165l227 283q-36 -29 -77 -44t-91 -15zM350 407q-82 0 -130.5 -29
t-49.5 -87q-1 -56 46.5 -86.5t129.5 -30.5q86 0 137.5 33t52.5 85q1 57 -51.5 86t-134.5 29z" />
    <glyph glyph-name="colon" unicode=":" horiz-adv-x="299" 
d="M218 114v-114h-151v114h151zM218 495v-114h-151v114h151z" />
    <glyph glyph-name="semicolon" unicode=";" horiz-adv-x="273" 
d="M211 483v-114h-151v114h151zM88 -136l-18 34q15 22 29.5 49t15.5 55l-55 11v115h153v-82q0 -71 -33.5 -114.5t-91.5 -67.5z" />
    <glyph glyph-name="less" unicode="&#x3c;" horiz-adv-x="532" 
d="M388 530l50 -90l-276 -150l276 -148l-50 -93l-327 186v109z" />
    <glyph glyph-name="equal" unicode="=" horiz-adv-x="586" 
d="M50 428h486v-98h-486v98zM50 225h486v-98h-486v98z" />
    <glyph glyph-name="greater" unicode="&#x3e;" horiz-adv-x="538" 
d="M94 440l49 90l328 -186v-109l-328 -186l-49 93l276 148z" />
    <glyph glyph-name="question" unicode="?" horiz-adv-x="626" 
d="M227 201v166h59q81 0 119 30t38 85t-36 84t-96 29q-64 0 -96 -29t-34 -71h-129q-1 36 14 74t46.5 69.5t82 51t119.5 19.5q90 0 148 -29.5t86.5 -79.5t28.5 -114q0 -66 -30 -111.5t-80.5 -70t-112.5 -28.5v-75h-127zM218 0v114h151v-114h-151z" />
    <glyph glyph-name="at" unicode="@" horiz-adv-x="1073" 
d="M470 111q-69 0 -121.5 26.5t-81.5 72.5t-29 105q0 62 29 109.5t83 75t127 27.5q85 0 137.5 -38.5t72.5 -95.5v102h130v-174q0 -40 11.5 -66t47.5 -26t47 26.5t11 69.5q0 143 -104 211.5t-286 68.5q-122 0 -212.5 -30.5t-140 -93t-49.5 -159.5q0 -94 47 -160.5t135 -101
t211 -34.5q74 0 135.5 10.5t98.5 29.5l36 -73q-45 -22 -115.5 -35t-154.5 -13q-150 0 -258.5 45t-166.5 129.5t-58 202.5q0 119 58.5 200t168.5 122.5t263 41.5q230 0 356 -92t126 -265q0 -87 -42.5 -136.5t-126.5 -49.5q-54 0 -89 17t-54 43.5t-23 54.5q-14 -35 -42.5 -69
t-72.5 -56t-104 -22zM512 210q49 0 88.5 14.5t63 38t23.5 51.5q0 36 -24 61t-63.5 38t-87.5 13q-75 0 -108 -30t-33 -82q0 -46 35.5 -75t105.5 -29z" />
    <glyph glyph-name="A" unicode="A" horiz-adv-x="789" 
d="M17 0l304 647h144l307 -647h-145l-64 141h-338l-64 -141h-144zM275 252h237l-119 261z" />
    <glyph glyph-name="B" unicode="B" horiz-adv-x="780" 
d="M77 0v647h373q130 0 197.5 -43.5t67.5 -129.5q0 -71 -45 -104t-123 -43q54 -4 97.5 -18t69 -44t25.5 -84q0 -60 -32 -99.5t-89 -59.5t-132 -22h-409zM210 373h235q63 0 97 18.5t34 63.5t-34 63.5t-90 18.5h-242v-164zM210 110h262q63 0 97 20.5t34 65.5q0 33 -20 48
t-53 18.5t-71 3.5h-249v-156z" />
    <glyph glyph-name="C" unicode="C" horiz-adv-x="885" 
d="M832 233q-13 -118 -109 -182t-259 -64q-121 0 -214 37.5t-145 112t-52 185.5q0 112 52 187t145 113t214 38q164 0 259.5 -66t108.5 -184h-132q-20 63 -78.5 99t-157.5 36q-124 0 -199 -56.5t-75 -166.5q0 -108 75 -164.5t199 -56.5q99 0 157 35.5t79 96.5h132z" />
    <glyph glyph-name="D" unicode="D" horiz-adv-x="879" 
d="M447 647q109 0 182 -26t116.5 -70.5t62 -102.5t18.5 -122t-20.5 -123t-65 -104.5t-117 -72t-176.5 -26.5h-370v647h370zM210 114h234q96 0 149.5 30t75.5 78.5t22 103.5t-22 102t-75.5 76t-149.5 29h-234v-419z" />
    <glyph glyph-name="E" unicode="E" horiz-adv-x="769" 
d="M210 270v-159h499v-111h-632v647h631v-111h-498v-161h408v-105h-408z" />
    <glyph glyph-name="F" unicode="F" horiz-adv-x="741" 
d="M708 647v-111h-498v-174h408v-104h-408v-258h-133v647h631z" />
    <glyph glyph-name="G" unicode="G" horiz-adv-x="914" 
d="M449 -13q-119 0 -208.5 37.5t-138.5 111.5t-49 182q0 110 51.5 186t144.5 116t215 40q164 0 259 -67t105 -180h-128q-19 59 -76.5 95.5t-159.5 36.5q-131 0 -202.5 -62t-71.5 -165q0 -100 63.5 -158t200.5 -58q100 0 166.5 36.5t92.5 91.5h-248v85h386v-315h-115
q0 37 5.5 86.5t12.5 96.5q-31 -93 -109.5 -144.5t-195.5 -51.5z" />
    <glyph glyph-name="H" unicode="H" horiz-adv-x="895" 
d="M77 647h133v-267h475v267h133v-647h-133v269h-475v-269h-133v647z" />
    <glyph glyph-name="I" unicode="I" horiz-adv-x="324" 
d="M96 647h133v-647h-133v647z" />
    <glyph glyph-name="J" unicode="J" horiz-adv-x="683" 
d="M473 253v394h133v-403q0 -68 -33 -126t-97 -93t-158 -35q-55 0 -106.5 14t-92.5 42.5t-66 72t-27 102.5h126q11 -57 56.5 -86.5t109.5 -29.5q82 0 118.5 42.5t36.5 105.5z" />
    <glyph glyph-name="K" unicode="K" horiz-adv-x="814" 
d="M77 647h133v-306l344 306h189l-357 -304l403 -343h-192l-387 339v-339h-133v647z" />
    <glyph glyph-name="L" unicode="L" horiz-adv-x="687" 
d="M210 647v-536h430v-111h-563v647h133z" />
    <glyph glyph-name="M" unicode="M" horiz-adv-x="1099" 
d="M475 0l-265 410v-410h-133v647h133l339 -532l340 532h133v-647h-133v411l-265 -411h-149z" />
    <glyph glyph-name="N" unicode="N" horiz-adv-x="901" 
d="M691 0l-481 470v-470h-133v647h133l481 -474v474h133v-647h-133z" />
    <glyph glyph-name="O" unicode="O" horiz-adv-x="924" 
d="M462 -13q-129 0 -220.5 40.5t-140 115.5t-48.5 180q0 106 48.5 181t140 115.5t220.5 40.5q130 0 221 -40.5t139.5 -115.5t48.5 -181q0 -105 -48.5 -180t-139.5 -115.5t-221 -40.5zM462 102q80 0 140.5 24t95 73t34.5 124t-34.5 124t-95 73.5t-140.5 24.5
q-79 0 -141 -24.5t-97 -73.5t-35 -124t35 -124t97 -73t141 -24z" />
    <glyph glyph-name="P" unicode="P" horiz-adv-x="784" 
d="M476 210h-268v-210h-133v647h401q73 0 131.5 -23t93.5 -72.5t35 -127.5q0 -77 -35 -124.5t-93.5 -68.5t-131.5 -21zM488 533h-280v-217h280q53 0 84 28.5t31 79.5q0 53 -31 81t-84 28z" />
    <glyph glyph-name="Q" unicode="Q" horiz-adv-x="924" 
d="M871 323q0 -144 -90 -231t-254 -102v-190h-130v190q-164 15 -254 102t-90 231q0 106 48.5 181t140 115.5t220.5 40.5q130 0 221 -40.5t139.5 -115.5t48.5 -181zM462 102q80 0 140.5 24t95 73t34.5 124t-34.5 124t-95 73.5t-140.5 24.5q-79 0 -141 -24.5t-97 -73.5
t-35 -124t35 -124t97 -73t141 -24z" />
    <glyph glyph-name="R" unicode="R" horiz-adv-x="826" 
d="M77 0v647h439q112 0 180 -47t68 -149q0 -54 -21.5 -88.5t-58 -53.5t-82.5 -27q75 -6 111.5 -32.5t36.5 -95.5v-154h-133v145q0 37 -13 57.5t-46.5 28.5t-96.5 8h-251v-239h-133zM210 343h306q56 0 85.5 27t29.5 73q0 90 -115 90h-306v-190z" />
    <glyph glyph-name="S" unicode="S" horiz-adv-x="694" 
d="M34 218h135q4 -34 31.5 -61.5t72.5 -43t101 -15.5q76 0 112.5 24t36.5 66q0 27 -20 41.5t-63 24t-113 19.5q-73 11 -135 33.5t-99 62t-37 100.5q0 86 73.5 138.5t212.5 52.5q140 0 215.5 -59.5t73.5 -163.5h-130q-4 59 -49.5 85t-114.5 26q-64 0 -105.5 -19t-41.5 -65
q0 -24 18.5 -40t64.5 -27.5t128 -24.5q76 -11 132.5 -31.5t88.5 -58.5t32 -102q0 -88 -69 -141t-220 -53q-90 0 -154 24t-104 60.5t-58 76t-15 71.5z" />
    <glyph glyph-name="T" unicode="T" horiz-adv-x="722" 
d="M20 647h682v-111h-274v-536h-133v536h-275v111z" />
    <glyph glyph-name="U" unicode="U" horiz-adv-x="881" 
d="M671 286v361h133v-375q0 -81 -29 -135.5t-79 -87.5t-115.5 -47.5t-138.5 -14.5q-76 0 -142.5 14.5t-116.5 47.5t-78 87.5t-28 135.5v375h133v-361q0 -76 30 -115.5t82.5 -54t119.5 -14.5q65 0 116.5 14.5t82 54t30.5 115.5z" />
    <glyph glyph-name="V" unicode="V" horiz-adv-x="775" 
d="M306 0l-286 647h147l222 -529l221 529h145l-283 -647h-166z" />
    <glyph glyph-name="W" unicode="W" horiz-adv-x="1300" 
d="M293 0l-273 647h147l209 -519l199 519h153l199 -519l209 519h144l-270 -647h-163l-195 507l-196 -507h-163z" />
    <glyph glyph-name="X" unicode="X" horiz-adv-x="780" 
d="M211 647l181 -227l184 227h162l-272 -318l275 -329h-169l-183 237l-188 -237h-162l276 328l-266 319h162z" />
    <glyph glyph-name="Y" unicode="Y" horiz-adv-x="740" 
d="M721 647l-284 -443v-204h-134v204l-284 443h154l199 -322l195 322h154z" />
    <glyph glyph-name="Z" unicode="Z" horiz-adv-x="821" 
d="M63 647h695v-111l-531 -425h531v-111h-695v111l531 425h-531v111z" />
    <glyph glyph-name="bracketleft" unicode="[" horiz-adv-x="408" 
d="M349 -82v-102h-260v984h260v-102h-158v-780h158z" />
    <glyph glyph-name="backslash" unicode="\" horiz-adv-x="481" 
d="M140 753l305 -835l-105 -38l-304 835z" />
    <glyph glyph-name="bracketright" unicode="]" horiz-adv-x="410" 
d="M60 -81h159v779h-159v102h260v-983h-260v102z" />
    <glyph glyph-name="asciicircum" unicode="^" horiz-adv-x="587" 
d="M226 617v-114h-151v114h151z" />
    <glyph glyph-name="underscore" unicode="_" horiz-adv-x="849" 
d="M71 -100h708v-100h-708v100z" />
    <glyph glyph-name="grave" unicode="`" horiz-adv-x="508" 
d="M284 601l-184 158h172l136 -158h-124z" />
    <glyph glyph-name="a" unicode="a" horiz-adv-x="723" 
d="M302 -11q-74 0 -134.5 32.5t-96 91t-35.5 135.5q0 79 36 137t98 90.5t139 32.5q97 0 151.5 -44t74.5 -115v148h130v-497h-121l-2.5 19.5t-4.5 49.5t-2 59v32q-14 -45 -43 -84t-76 -63t-114 -24zM344 89q89 0 140 44t51 115q0 77 -51.5 118t-139.5 41q-83 0 -129 -43.5
t-46 -115.5t48 -115.5t127 -43.5z" />
    <glyph glyph-name="b" unicode="b" horiz-adv-x="744" 
d="M443 -11q-67 0 -114 24t-76 63t-43 84v-32q0 -32 -3 -68.5t-6 -59.5h-121v697h130v-348q20 71 76 115t157 44q77 0 136.5 -32.5t94 -90.5t34.5 -137q0 -77 -35 -135.5t-95 -91t-135 -32.5zM401 89q79 0 126.5 43.5t47.5 115.5t-45.5 116t-128.5 44q-88 0 -139.5 -41.5
t-51.5 -118.5q0 -71 51.5 -115t139.5 -44z" />
    <glyph glyph-name="c" unicode="c" horiz-adv-x="686" 
d="M650 196q-7 -98 -84.5 -153t-209.5 -55q-92 0 -164.5 29.5t-114 87t-41.5 142.5t41.5 143t114 88t164.5 30q131 0 207.5 -54.5t85.5 -151.5h-119q-17 50 -63 78t-111 28q-52 0 -94.5 -18t-68 -53.5t-25.5 -89.5q0 -53 25 -88.5t68 -53t95 -17.5q70 0 114.5 28t60.5 80
h119z" />
    <glyph glyph-name="d" unicode="d" horiz-adv-x="745" 
d="M302 -11q-75 0 -135.5 32.5t-95.5 91t-35 135.5q0 79 34.5 137t94.5 90.5t137 32.5q101 0 157 -44t76 -115v348h130v-697h-121q-3 23 -6 59.5t-3 68.5v32q-14 -45 -43 -84t-76 -63t-114 -24zM344 89q89 0 140 44t51 115q0 77 -51.5 118.5t-139.5 41.5q-83 0 -129 -44
t-46 -116t48 -115.5t127 -43.5z" />
    <glyph glyph-name="e" unicode="e" horiz-adv-x="678" 
d="M513 165h126q-13 -76 -83 -126.5t-197 -50.5q-95 0 -168 30.5t-114 88.5t-41 140t40 140.5t111.5 89.5t167.5 31q146 0 219.5 -69.5t66.5 -214.5h-474q8 -58 56 -97t133 -39q62 0 103.5 21.5t53.5 55.5zM349 409q-72 0 -117 -31.5t-58 -77.5h338q-5 50 -47.5 79.5
t-115.5 29.5z" />
    <glyph glyph-name="f" unicode="f" horiz-adv-x="446" 
d="M25 488h112v36q0 90 49 131.5t143 41.5h103v-105h-72q-44 1 -68.5 -16t-24.5 -68v-20h158v-99h-158v-389h-130v389h-112v99z" />
    <glyph glyph-name="g" unicode="g" horiz-adv-x="671" 
d="M475 -205v24q0 46 -29.5 64t-80.5 18h-155q-60 0 -94.5 12.5t-49 34t-14.5 48.5q0 51 43 71.5t108 20.5q-77 20 -122 71t-45 130q0 67 33 116t94.5 76t144.5 27q23 0 44.5 -3t42.5 -8l251 -1v-98q-41 -1 -84 8t-80 22q40 -25 68 -60.5t28 -84.5q0 -98 -72.5 -152.5
t-197.5 -54.5q-63 -2 -93.5 -10.5t-30.5 -33.5q0 -32 46 -32h163q101 0 156.5 -34t55.5 -124v-47h-130zM308 170q65 0 104.5 31t39.5 87t-39.5 88.5t-104.5 32.5t-105 -32t-40 -89q0 -56 39.5 -87t105.5 -31z" />
    <glyph glyph-name="h" unicode="h" horiz-adv-x="702" 
d="M69 0v697h130v-342q13 39 44 74t78 57t109 22q61 0 109.5 -21t76.5 -63t28 -106v-318h-130v273q0 61 -32 92t-108 31q-63 0 -110.5 -30t-64.5 -71v-295h-130z" />
    <glyph glyph-name="i" unicode="i" horiz-adv-x="268" 
d="M209 715v-114h-151v114h151zM68 497h130v-497h-130v497z" />
    <glyph glyph-name="j" unicode="j" horiz-adv-x="268" 
d="M209 715v-114h-151v114h151zM70 497h130v-697h-130v697z" />
    <glyph glyph-name="k" unicode="k" horiz-adv-x="649" 
d="M69 697h130v-697h-130v697zM618 497l-252 -222l275 -275h-165l-274 279l239 218h177z" />
    <glyph glyph-name="l" unicode="l" horiz-adv-x="271" 
d="M70 697h130v-697h-130v697z" />
    <glyph glyph-name="m" unicode="m" horiz-adv-x="1127" 
d="M60 497h130v-143q13 40 44 75t78 57t109 22q76 0 132.5 -34t74.5 -107q16 37 47.5 69t77 52t101.5 20q61 0 109.5 -21.5t77 -66.5t28.5 -116v-304h-130v281q0 63 -31 92.5t-100 29.5q-59 0 -105 -25.5t-68 -60.5v-13v-304h-130v281q0 63 -30.5 92.5t-99.5 29.5
q-45 0 -82.5 -15t-64.5 -39.5t-38 -52.5v-296h-130v497z" />
    <glyph glyph-name="n" unicode="n" horiz-adv-x="693" 
d="M60 497h130v-143q13 40 44 75t78 57t109 22q61 0 109.5 -21.5t76.5 -66.5t28 -116v-304h-130v281q0 63 -30.5 92.5t-99.5 29.5q-45 0 -82.5 -15t-64.5 -39.5t-38 -52.5v-296h-130v497z" />
    <glyph glyph-name="o" unicode="o" horiz-adv-x="704" 
d="M353 -12q-94 0 -165.5 30t-111.5 87.5t-40 141.5t40 142.5t111.5 88.5t165.5 30t164.5 -30t110.5 -88.5t40 -142.5t-40 -141.5t-110.5 -87.5t-164.5 -30zM353 88q52 0 93.5 18.5t65.5 54t24 86.5t-24 87.5t-65 55.5t-94 19q-52 0 -94 -19t-66.5 -55t-24.5 -88
q0 -76 53 -117.5t132 -41.5z" />
    <glyph glyph-name="p" unicode="p" horiz-adv-x="724" 
d="M422 -12q-66 0 -113 24t-76 63.5t-43 84.5v-360h-130v697h124l6 -132v-16q20 71 76 115t156 44q75 0 135 -33t95.5 -91.5t35.5 -135.5q0 -79 -36 -137.5t-96 -90.5t-134 -32zM380 89q80 0 127.5 43.5t47.5 115.5t-45.5 116t-129.5 44q-53 0 -96.5 -19t-68.5 -54.5
t-25 -86.5q0 -72 51 -115.5t139 -43.5z" />
    <glyph glyph-name="q" unicode="q" horiz-adv-x="745" 
d="M302 -12q-74 0 -134.5 32t-96 90.5t-35.5 137.5q0 77 35.5 135.5t96 91.5t134.5 33q101 0 157 -44t76 -115v25l4 123h126v-697h-130v360q-14 -45 -43 -84.5t-76 -63.5t-114 -24zM344 89q89 0 140 43.5t51 115.5q0 77 -51.5 118.5t-139.5 41.5q-83 0 -129 -44t-46 -116
t48 -115.5t127 -43.5z" />
    <glyph glyph-name="r" unicode="r" horiz-adv-x="401" 
d="M60 497h130v-149q7 23 21.5 50.5t37.5 52.5t55.5 41t76.5 16v-118q-50 0 -88.5 -17.5t-64 -44.5t-38.5 -54v-274h-130v497z" />
    <glyph glyph-name="s" unicode="s" horiz-adv-x="564" 
d="M40 165h120q11 -34 45.5 -55.5t90.5 -21.5q57 0 76.5 16t19.5 42q0 32 -30 43t-92 21q-56 10 -105.5 25t-79.5 44t-30 79q0 48 30.5 81.5t83 51t118.5 17.5q111 0 165.5 -47.5t55.5 -122.5h-115q-8 37 -32 53.5t-74 16.5q-49 0 -74 -15t-25 -41q0 -31 34.5 -43t103.5 -23
q52 -11 97 -25.5t73.5 -42.5t28.5 -81q0 -72 -61 -110.5t-167 -38.5q-79 0 -130.5 20.5t-80 50.5t-39 59t-7.5 47z" />
    <glyph glyph-name="t" unicode="t" horiz-adv-x="434" 
d="M25 497h128v136h130v-136h128v-101h-128v-396h-130v396h-128v101z" />
    <glyph glyph-name="u" unicode="u" horiz-adv-x="693" 
d="M635 0h-130v170q-8 -25 -24 -56.5t-42.5 -60t-65 -47t-91.5 -18.5q-41 0 -80.5 10t-71.5 33.5t-51 63.5t-19 101v301h130v-279q0 -73 35 -99t97 -26q48 0 84.5 19.5t61 48.5t37.5 59v277h130v-497z" />
    <glyph glyph-name="v" unicode="v" horiz-adv-x="627" 
d="M611 497l-239 -497h-123l-234 497h143l153 -358l158 358h142z" />
    <glyph glyph-name="w" unicode="w" horiz-adv-x="988" 
d="M631 0l-138 347l-143 -347h-122l-213 497h143l135 -352l126 352h149l121 -351l140 351h143l-219 -497h-122z" />
    <glyph glyph-name="x" unicode="x" horiz-adv-x="657" 
d="M20 497h159l148 -161l138 161h158l-223 -240l237 -257h-159l-153 172l-146 -172h-159l232 251z" />
    <glyph glyph-name="y" unicode="y" horiz-adv-x="639" 
d="M15 497h138l164 -365l167 365h139l-344 -697h-135l110 205z" />
    <glyph glyph-name="z" unicode="z" horiz-adv-x="622" 
d="M559 398l-351 -300h358v-98h-509v98l351 300h-351v99h502v-99z" />
    <glyph glyph-name="braceleft" unicode="{" horiz-adv-x="483" 
d="M122 800h272v-102h-156q0 -26 9.5 -56t22 -62.5t22 -65t9.5 -63.5q0 -57 -39.5 -91t-105.5 -49q66 -15 105.5 -49t39.5 -91q0 -31 -9.5 -63.5t-22 -65t-22 -62.5t-9.5 -56h156v-102h-272q-8 47 2 97t27.5 98t31.5 88t14 66q0 44 -35.5 70.5t-112.5 26.5v86
q77 0 112.5 26.5t35.5 70.5q0 26 -14 66t-31.5 88t-27.5 98.5t-2 96.5z" />
    <glyph glyph-name="bar" unicode="|" horiz-adv-x="323" 
d="M100 800h123v-960h-123v960z" />
    <glyph glyph-name="braceright" unicode="}" horiz-adv-x="483" 
d="M286 451q0 -44 35.5 -70.5t112.5 -26.5v-86q-77 0 -112.5 -26.5t-35.5 -70.5q0 -26 14.5 -66t31.5 -88t27 -98t2 -97h-272v102h156q0 26 -9.5 56t-22 62.5t-22 65t-9.5 63.5q0 57 39.5 91t105.5 49q-66 15 -105.5 49t-39.5 91q0 31 9.5 63.5t22 65t22 62.5t9.5 56h-156
v102h272q8 -46 -2 -96.5t-27 -98.5t-31.5 -88t-14.5 -66z" />
    <glyph glyph-name="asciitilde" unicode="~" horiz-adv-x="311" 
d="M214 330v-114h-151v114h151z" />
    <glyph glyph-name="uni00A0" unicode="&#xa0;" horiz-adv-x="241" 
 />
    <glyph glyph-name="exclamdown" unicode="&#xa1;" horiz-adv-x="305" 
d="M228 458h-151v114h151v-114zM86 -91v461h132v-461h-132z" />
    <glyph glyph-name="cent" unicode="&#xa2;" horiz-adv-x="686" 
d="M531 196h119q-7 -98 -84.5 -153t-209.5 -55h-21l-15 -86l-69 13l14 81q-103 19 -166 82t-63 169q0 85 41.5 143t113.5 88t164 30l18 100l69 -12l-16 -93q100 -13 158 -65.5t65 -135.5h-119q-13 40 -45 65.5t-77 35.5l-55 -315h4q139 0 174 108zM168 247q0 -60 32 -97.5
t83 -51.5l55 309q-72 -4 -121 -44t-49 -116z" />
    <glyph glyph-name="sterling" unicode="&#xa3;" horiz-adv-x="658" 
d="M34 268v62h110q-20 18 -41 40t-35 49.5t-14 61.5q0 58 35 97.5t96.5 60.5t140.5 21q85 0 151 -25t103.5 -70t37.5 -106h-137q-1 27 -22 47t-54.5 31t-73.5 11t-73.5 -8.5t-53.5 -28.5t-20 -53q0 -38 19 -68.5t40 -59.5h210v-62h-172q8 -21 8 -41q0 -30 -13.5 -51
t-32 -34.5t-36.5 -20.5t-27 -10h417v-111h-524v111l17.5 5.5t40 18.5t40 33.5t17.5 50.5q0 13 -3.5 25t-8.5 24h-142z" />
    <glyph glyph-name="currency" unicode="&#xa4;" horiz-adv-x="674" 
d="M150 41l-52 47l59 65q-39 27 -60.5 66.5t-21.5 88.5t21.5 88.5t60.5 66.5l-59 66l52 47l72 -81q53 18 116 18t115 -18l73 81l52 -47l-60 -67q39 -27 60 -66.5t21 -87.5t-21 -87.5t-59 -66.5l59 -66l-52 -47l-72 80q-53 -18 -116 -18q-64 0 -116 18zM338 197
q62 0 98.5 32.5t36.5 78.5t-36.5 79t-98.5 33t-99.5 -32.5t-37.5 -79.5q0 -46 37 -78.5t100 -32.5z" />
    <glyph glyph-name="yen" unicode="&#xa5;" horiz-adv-x="740" 
d="M190 232h95l-266 415h154l199 -322l195 322h154l-266 -415h95v-68h-360v68zM190 122h360v-68h-113v-54h-134v54h-113v68z" />
    <glyph glyph-name="brokenbar" unicode="&#xa6;" horiz-adv-x="323" 
d="M223 800v-364h-123v364h123zM223 204v-364h-123v364h123z" />
    <glyph glyph-name="section" unicode="&#xa7;" horiz-adv-x="565" 
d="M520 105q0 -65 -57 -103t-155 -38q-70 0 -121 18.5t-83.5 47t-46.5 59t-11 53.5h115q9 -33 43.5 -55t95.5 -23q51 -1 74 14.5t23 43.5q0 34 -31 46t-92 24q-70 12 -124.5 30t-85 46.5t-30.5 72.5q0 41 35.5 69t113.5 32q-76 24 -108.5 52t-32.5 71q0 64 59.5 104.5
t161.5 40.5q107 0 169 -46t63 -123h-116q-7 36 -37 52t-83 16q-42 0 -67.5 -15t-25.5 -42q0 -33 34.5 -46.5t95.5 -26.5q66 -12 118 -29t81.5 -45t29.5 -75q0 -39 -32 -65t-103 -31q65 -20 97.5 -50.5t32.5 -78.5zM167 345q0 -34 38.5 -51t105.5 -32q40 5 60.5 23.5
t20.5 46.5q0 38 -34 52t-101 27q-43 -4 -66.5 -21.5t-23.5 -44.5z" />
    <glyph glyph-name="dieresis" unicode="&#xa8;" horiz-adv-x="541" 
d="M231 716v-114h-151v114h151zM448 716v-114h-151v114h151z" />
    <glyph glyph-name="copyright" unicode="&#xa9;" horiz-adv-x="1014" 
d="M508 7q-139 0 -241.5 40t-158 113t-55.5 172q0 100 55 171t157.5 109.5t242.5 38.5t241.5 -38.5t156.5 -109.5t55 -171q0 -99 -55.5 -172t-157 -113t-240.5 -40zM508 87q106 0 188 29t128.5 83.5t46.5 132.5t-46 131t-128 80t-189 27q-108 0 -190 -27t-128.5 -80
t-46.5 -131t46.5 -132.5t129 -83.5t189.5 -29zM728 310q0 -58 -53 -92t-160 -34q-109 0 -169.5 38.5t-60.5 105.5q0 68 60.5 106.5t169.5 38.5q107 0 159 -33.5t53 -91.5h-96q-7 23 -35 36t-81 13q-62 0 -94.5 -18.5t-32.5 -50.5q0 -67 127 -67q103 0 117 49h96z" />
    <glyph glyph-name="ordfeminine" unicode="&#xaa;" horiz-adv-x="674" 
d="M269 293q-69 0 -121.5 26.5t-82 72.5t-29.5 104q0 63 29.5 111t83.5 74.5t127 26.5q84 0 137 -38.5t73 -95.5v123h130v-393h-121l-2.5 19.5t-4.5 47t-2 51.5v14q-14 -35 -42.5 -67.5t-72.5 -54t-102 -21.5zM305 392q53 0 93.5 14.5t64 38t23.5 51.5q0 36 -24 61t-64.5 38
t-92.5 13q-70 0 -103 -30.5t-33 -81.5q0 -45 35 -74.5t101 -29.5z" />
    <glyph glyph-name="guillemotleft" unicode="&#xab;" horiz-adv-x="584" 
d="M289 540l72 -69l-182 -192l182 -193l-72 -68l-241 261zM427 433l70 -68l-82 -84l82 -85l-71 -67l-138 152z" />
    <glyph glyph-name="logicalnot" unicode="&#xac;" horiz-adv-x="723" 
d="M85 416h538v-256h-114v158h-424v98z" />
    <glyph glyph-name="uni00AD" unicode="&#xad;" horiz-adv-x="600" 
d="M80 320h334v-98h-334v98z" />
    <glyph glyph-name="registered" unicode="&#xae;" horiz-adv-x="973" 
d="M487 77q-129 0 -227 39t-152.5 108t-54.5 158q0 90 54 157t152 104.5t228 37.5t227 -37.5t151.5 -104.5t54.5 -157q0 -89 -54.5 -158t-152 -108t-226.5 -39zM487 158q100 0 177 27t121.5 77.5t44.5 119.5q0 70 -44 118.5t-121 74t-178 25.5t-178.5 -25.5t-121.5 -74
t-44 -118.5q0 -69 44.5 -119.5t122 -77.5t177.5 -27zM330 243v284h220q67 0 98.5 -23.5t31.5 -68.5q0 -34 -16.5 -55t-61.5 -24q45 -6 58 -20.5t13 -37.5v-55h-87v50q0 18 -12 25t-56 7h-101v-82h-87zM417 393h137q39 0 39 32q0 27 -39 27h-137v-59z" />
    <glyph glyph-name="macron" unicode="&#xaf;" horiz-adv-x="507" 
d="M100 609v81h307v-81h-307z" />
    <glyph glyph-name="degree" unicode="&#xb0;" horiz-adv-x="448" 
d="M224 375q-78 0 -127.5 39t-49.5 103t49.5 102.5t127.5 38.5q79 0 128.5 -38.5t49.5 -102.5t-49.5 -103t-128.5 -39zM224 445q47 0 71.5 20t24.5 52q0 31 -24.5 50.5t-71.5 19.5q-46 0 -70.5 -19.5t-24.5 -50.5q0 -32 24.5 -52t70.5 -20z" />
    <glyph glyph-name="plusminus" unicode="&#xb1;" horiz-adv-x="560" 
d="M50 246v95h176v122h108v-122h176v-95h-176v-122h-108v122h-176zM57 -10v72h446v-72h-446z" />
    <glyph glyph-name="uni00B2" unicode="&#xb2;" horiz-adv-x="333" 
d="M143 461l137 6v-67h-221v63q48 36 82 57.5t51.5 38t17.5 38.5q0 19 -12 31t-35 12q-24 0 -37.5 -17t-6.5 -41h-66q-8 35 5.5 64t42.5 46.5t67 17.5q56 0 85.5 -30.5t29.5 -72.5q0 -51 -35.5 -82.5t-104.5 -63.5z" />
    <glyph glyph-name="uni00B3" unicode="&#xb3;" horiz-adv-x="328" 
d="M208 549q70 -15 70 -76q0 -34 -26.5 -62.5t-85.5 -28.5q-64 0 -91.5 34.5t-24.5 77.5h66q-1 -13 8.5 -27.5t41.5 -14.5q23 0 33 11t10 27q0 34 -48 34h-55v49h55q24 0 34 10t10 26q0 33 -41 33q-28 0 -38.5 -12t-9.5 -25h-61q-7 42 22 73.5t89 31.5q53 0 80.5 -25.5
t27.5 -64.5q0 -25 -15.5 -44t-50.5 -27z" />
    <glyph glyph-name="acute" unicode="&#xb4;" horiz-adv-x="484" 
d="M95 601l136 158h172l-184 -158h-124z" />
    <glyph glyph-name="uni00B5" unicode="&#xb5;" horiz-adv-x="745" 
d="M731 -7q-120 0 -172 45t-54 125q-6 -25 -19.5 -55.5t-36 -57.5t-56.5 -44.5t-83 -17.5q-83 0 -120 58v-246h-130v697h130v-273q0 -51 18 -79.5t48.5 -40t68.5 -11.5q48 0 84 19t60 48t36 59v278h130v-303q0 -38 10.5 -56.5t32 -24.5t53.5 -6v-114z" />
    <glyph glyph-name="paragraph" unicode="&#xb6;" horiz-adv-x="735" 
d="M658 647v-647h-128v236h-75v-236h-128v236h-49q-72 0 -128 23t-88 69t-32 113t31 113t86.5 69.5t127.5 23.5h383zM278 344h252v188h-252q-47 0 -81 -21t-34 -74q0 -52 33.5 -72.5t81.5 -20.5z" />
    <glyph glyph-name="periodcentered" unicode="&#xb7;" horiz-adv-x="271" 
d="M211 330v-114h-151v114h151z" />
    <glyph glyph-name="cedilla" unicode="&#xb8;" horiz-adv-x="511" 
d="M346 17v-60q32 -11 53 -32.5t21 -58.5q0 -42 -39.5 -73.5t-118.5 -31.5q-50 0 -85.5 17.5t-53.5 46t-16 59.5h94q2 -5 6.5 -15t16.5 -18t35 -8q28 0 39.5 12t11.5 28q0 7 -4.5 17t-19.5 20t-49 16v81h109z" />
    <glyph glyph-name="uni00B9" unicode="&#xb9;" horiz-adv-x="247" 
d="M40 636v64h147v-300h-68v236h-79z" />
    <glyph glyph-name="ordmasculine" unicode="&#xba;" horiz-adv-x="704" 
d="M353 285q-131 0 -207 56t-76 155q0 98 76 155t207 57t206 -57t75 -155q0 -99 -75 -155t-206 -56zM353 380q77 0 114.5 32.5t37.5 83.5q0 50 -36.5 83.5t-115.5 33.5q-78 0 -116 -33.5t-38 -83.5q0 -51 37.5 -83.5t116.5 -32.5z" />
    <glyph glyph-name="guillemotright" unicode="&#xbb;" horiz-adv-x="590" 
d="M217 471l72 69l241 -261l-241 -261l-73 68l182 193zM80 365l71 68l139 -152l-139 -152l-71 67l82 85z" />
    <glyph glyph-name="onequarter" unicode="&#xbc;" horiz-adv-x="918" 
d="M25 254v87h123v219h-119v87h233v-306h104v-87h-341zM665 700l54 -30l-382 -690l-52 32zM713 0v72h-201v82l213 239h101v-242h52v-79h-52v-72h-113zM623 147h94v126z" />
    <glyph glyph-name="onehalf" unicode="&#xbd;" horiz-adv-x="963" 
d="M25 254v87h123v219h-119v87h233v-306h104v-87h-341zM665 700l54 -30l-382 -690l-52 32zM923 0h-343v85q126 55 178 101t52 80q0 46 -60 46q-41 0 -59 -14t-21 -28h-97q-3 55 43 94.5t135 39.5q75 0 121.5 -30t46.5 -86q0 -58 -43.5 -98.5t-105.5 -73.5l-68 -31l221 3v-88
z" />
    <glyph glyph-name="threequarters" unicode="&#xbe;" horiz-adv-x="903" 
d="M250 454q64 -4 102.5 -23t38.5 -68q0 -55 -46.5 -88.5t-129.5 -33.5q-86 0 -134.5 37.5t-44.5 96.5h86q1 -22 24 -35t68 -13q40 0 57.5 12.5t17.5 36.5q0 49 -89 49h-58v55h58q45 0 64 12t19 34q0 18 -17.5 29t-54.5 11q-39 0 -61.5 -11.5t-23.5 -28.5h-86q-2 40 20 69.5
t61.5 45.5t88.5 16q83 0 128.5 -31.5t45.5 -76.5t-36 -68t-98 -27zM650 700l54 -30l-382 -690l-52 32zM698 0v72h-201v82l213 239h101v-242h52v-79h-52v-72h-113zM608 147h94v126z" />
    <glyph glyph-name="questiondown" unicode="&#xbf;" horiz-adv-x="625" 
d="M260 472v114h151v-114h-151zM448 91h128q2 -36 -13 -74t-46.5 -69.5t-82 -51t-119.5 -19.5q-89 0 -147.5 29.5t-87 80t-28.5 113.5q0 66 30 111.5t80.5 70t112.5 28.5v75h127v-166h-59q-82 0 -119.5 -30t-37.5 -85t35.5 -84t96.5 -29q65 0 97 29t33 71z" />
    <glyph glyph-name="Agrave" unicode="&#xc0;" horiz-adv-x="789" 
d="M17 0l304 647h144l307 -647h-145l-64 141h-338l-64 -141h-144zM275 252h237l-119 261zM338 725l-184 158h172l136 -158h-124z" />
    <glyph glyph-name="Aacute" unicode="&#xc1;" horiz-adv-x="789" 
d="M17 0l304 647h144l307 -647h-145l-64 141h-338l-64 -141h-144zM275 252h237l-119 261zM324 725l136 158h172l-184 -158h-124z" />
    <glyph glyph-name="Acircumflex" unicode="&#xc2;" horiz-adv-x="789" 
d="M17 0l304 647h144l307 -647h-145l-64 141h-338l-64 -141h-144zM275 252h237l-119 261zM462 883l162 -158h-141l-89 90l-90 -90h-141l163 158h136z" />
    <glyph glyph-name="Atilde" unicode="&#xc3;" horiz-adv-x="789" 
d="M17 0l304 647h144l307 -647h-145l-64 141h-338l-64 -141h-144zM275 252h237l-119 261zM481 724q-30 0 -53 9t-43 21.5t-40 21.5t-44 9q-32 0 -44.5 -19.5t-21.5 -40.5h-92q8 37 26.5 68.5t48.5 51t71 19.5q31 0 54.5 -9t44 -21.5t39.5 -21.5t41 -9q33 0 46 20.5t21 39.5
h93q-8 -36 -26.5 -68t-48.5 -51.5t-72 -19.5z" />
    <glyph glyph-name="Adieresis" unicode="&#xc4;" horiz-adv-x="789" 
d="M17 0l304 647h144l307 -647h-145l-64 141h-338l-64 -141h-144zM275 252h237l-119 261zM212 654v-114h-151v114h151zM735 654v-114h-151v114h151z" />
    <glyph glyph-name="Aring" unicode="&#xc5;" horiz-adv-x="789" 
d="M17 0l304 647h144l307 -647h-145l-64 141h-338l-64 -141h-144zM275 252h237l-119 261zM394 701q-65 0 -103.5 30.5t-38.5 81.5q0 50 38.5 80.5t103.5 30.5t103 -30.5t38 -80.5q0 -51 -38 -81.5t-103 -30.5zM394 759q35 0 50.5 13.5t15.5 40.5q0 26 -15.5 39.5t-50.5 13.5
q-36 0 -51.5 -13.5t-15.5 -39.5q0 -27 15.5 -40.5t51.5 -13.5z" />
    <glyph glyph-name="AE" unicode="&#xc6;" horiz-adv-x="1158" 
d="M599 270v-159h499v-111h-632v164h-211l-95 -164h-143l383 647h697v-111h-498v-161h408v-105h-408zM312 262h154v267z" />
    <glyph glyph-name="Ccedilla" unicode="&#xc7;" horiz-adv-x="885" 
d="M368 -116q2 -5 6.5 -15t16.5 -18t35 -8q28 0 39.5 12t11.5 28q0 7 -4.5 17t-19.5 20t-49 16v53q-105 9 -184 49t-123 111t-44 173q0 112 52 187t145 113t214 38q164 0 259.5 -66t108.5 -184h-132q-20 63 -78.5 99t-157.5 36q-124 0 -199 -56.5t-75 -166.5
q0 -108 75 -164.5t199 -56.5q99 0 157 35.5t79 96.5h132q-12 -109 -95 -172t-224 -72v-32q32 -11 53 -32.5t21 -58.5q0 -42 -39.5 -73.5t-118.5 -31.5q-50 0 -85.5 17.5t-53.5 46t-16 59.5h94z" />
    <glyph glyph-name="Egrave" unicode="&#xc8;" horiz-adv-x="769" 
d="M210 270v-159h499v-111h-632v647h631v-111h-498v-161h408v-105h-408zM341 725l-184 158h172l136 -158h-124z" />
    <glyph glyph-name="Eacute" unicode="&#xc9;" horiz-adv-x="769" 
d="M210 270v-159h499v-111h-632v647h631v-111h-498v-161h408v-105h-408zM327 725l136 158h172l-184 -158h-124z" />
    <glyph glyph-name="Ecircumflex" unicode="&#xca;" horiz-adv-x="769" 
d="M210 270v-159h499v-111h-632v647h631v-111h-498v-161h408v-105h-408zM465 883l162 -158h-141l-89 90l-90 -90h-141l163 158h136z" />
    <glyph glyph-name="Edieresis" unicode="&#xcb;" horiz-adv-x="769" 
d="M210 270v-159h499v-111h-632v647h631v-111h-498v-161h408v-105h-408zM364 840v-114h-151v114h151zM581 840v-114h-151v114h151z" />
    <glyph glyph-name="Igrave" unicode="&#xcc;" horiz-adv-x="324" 
d="M96 647h133v-647h-133v647zM106 725l-184 158h172l136 -158h-124z" />
    <glyph glyph-name="Iacute" unicode="&#xcd;" horiz-adv-x="324" 
d="M96 647h133v-647h-133v647zM92 725l136 158h172l-184 -158h-124z" />
    <glyph glyph-name="Icircumflex" unicode="&#xce;" horiz-adv-x="324" 
d="M96 647h133v-647h-133v647zM230 883l162 -158h-141l-89 90l-90 -90h-141l163 158h136z" />
    <glyph glyph-name="Idieresis" unicode="&#xcf;" horiz-adv-x="324" 
d="M96 647h133v-647h-133v647zM129 840v-114h-151v114h151zM346 840v-114h-151v114h151z" />
    <glyph glyph-name="Eth" unicode="&#xd0;" horiz-adv-x="879" 
d="M447 647q109 0 182 -26t116.5 -70.5t62 -102.5t18.5 -122t-20.5 -123t-65 -104.5t-117 -72t-176.5 -26.5h-370v647h370zM210 114h234q96 0 149.5 30t75.5 78.5t22 103.5t-22 102t-75.5 76t-149.5 29h-234v-419zM-5 361h359v-69h-359v69z" />
    <glyph glyph-name="Ntilde" unicode="&#xd1;" horiz-adv-x="901" 
d="M691 0l-481 470v-470h-133v647h133l481 -474v474h133v-647h-133zM544 724q-30 0 -53 9t-43 21.5t-40 21.5t-44 9q-32 0 -44.5 -19.5t-21.5 -40.5h-92q8 37 26.5 68.5t48.5 51t71 19.5q31 0 54.5 -9t44 -21.5t39.5 -21.5t41 -9q33 0 46 20.5t21 39.5h93q-8 -36 -26.5 -68
t-48.5 -51.5t-72 -19.5z" />
    <glyph glyph-name="Ograve" unicode="&#xd2;" horiz-adv-x="924" 
d="M462 -13q-129 0 -220.5 40.5t-140 115.5t-48.5 180q0 106 48.5 181t140 115.5t220.5 40.5q130 0 221 -40.5t139.5 -115.5t48.5 -181q0 -105 -48.5 -180t-139.5 -115.5t-221 -40.5zM462 102q80 0 140.5 24t95 73t34.5 124t-34.5 124t-95 73.5t-140.5 24.5
q-79 0 -141 -24.5t-97 -73.5t-35 -124t35 -124t97 -73t141 -24zM406 729l-184 158h172l136 -158h-124z" />
    <glyph glyph-name="Oacute" unicode="&#xd3;" horiz-adv-x="924" 
d="M462 -13q-129 0 -220.5 40.5t-140 115.5t-48.5 180q0 106 48.5 181t140 115.5t220.5 40.5q130 0 221 -40.5t139.5 -115.5t48.5 -181q0 -105 -48.5 -180t-139.5 -115.5t-221 -40.5zM462 102q80 0 140.5 24t95 73t34.5 124t-34.5 124t-95 73.5t-140.5 24.5
q-79 0 -141 -24.5t-97 -73.5t-35 -124t35 -124t97 -73t141 -24zM392 729l136 158h172l-184 -158h-124z" />
    <glyph glyph-name="Ocircumflex" unicode="&#xd4;" horiz-adv-x="924" 
d="M462 -13q-129 0 -220.5 40.5t-140 115.5t-48.5 180q0 106 48.5 181t140 115.5t220.5 40.5q130 0 221 -40.5t139.5 -115.5t48.5 -181q0 -105 -48.5 -180t-139.5 -115.5t-221 -40.5zM462 102q80 0 140.5 24t95 73t34.5 124t-34.5 124t-95 73.5t-140.5 24.5
q-79 0 -141 -24.5t-97 -73.5t-35 -124t35 -124t97 -73t141 -24zM530 887l162 -158h-141l-89 90l-90 -90h-141l163 158h136z" />
    <glyph glyph-name="Otilde" unicode="&#xd5;" horiz-adv-x="924" 
d="M462 -13q-129 0 -220.5 40.5t-140 115.5t-48.5 180q0 106 48.5 181t140 115.5t220.5 40.5q130 0 221 -40.5t139.5 -115.5t48.5 -181q0 -105 -48.5 -180t-139.5 -115.5t-221 -40.5zM462 102q80 0 140.5 24t95 73t34.5 124t-34.5 124t-95 73.5t-140.5 24.5
q-79 0 -141 -24.5t-97 -73.5t-35 -124t35 -124t97 -73t141 -24zM549 728q-30 0 -53 9t-43 21.5t-40 21.5t-44 9q-32 0 -44.5 -19.5t-21.5 -40.5h-92q8 37 26.5 68.5t48.5 51t71 19.5q31 0 54.5 -9t44 -21.5t39.5 -21.5t41 -9q33 0 46 20.5t21 39.5h93q-8 -36 -26.5 -68
t-48.5 -51.5t-72 -19.5z" />
    <glyph glyph-name="Odieresis" unicode="&#xd6;" horiz-adv-x="925" 
d="M462 -13q-129 0 -220.5 40.5t-140 115.5t-48.5 180q0 106 48.5 181t140 115.5t220.5 40.5q130 0 221 -40.5t139.5 -115.5t48.5 -181q0 -105 -48.5 -180t-139.5 -115.5t-221 -40.5zM462 102q80 0 140.5 24t95 73t34.5 124t-34.5 124t-95 73.5t-140.5 24.5
q-79 0 -141 -24.5t-97 -73.5t-35 -124t35 -124t97 -73t141 -24zM227 763v-114h-151v114h151zM860 763v-114h-151v114h151z" />
    <glyph glyph-name="multiply" unicode="&#xd7;" horiz-adv-x="500" 
d="M126 73l-67 67l124 124l-124 123l67 67l124 -123l123 123l68 -67l-124 -123l124 -124l-68 -67l-123 123z" />
    <glyph glyph-name="Oslash" unicode="&#xd8;" horiz-adv-x="924" 
d="M462 -13q-129 0 -220.5 40.5t-140 115.5t-48.5 180q0 106 48.5 181t140 115.5t220.5 40.5q130 0 221 -40.5t139.5 -115.5t48.5 -181q0 -105 -48.5 -180t-139.5 -115.5t-221 -40.5zM462 102q80 0 140.5 24t95 73t34.5 124t-34.5 124t-95 73.5t-140.5 24.5
q-79 0 -141 -24.5t-97 -73.5t-35 -124t35 -124t97 -73t141 -24zM633 693l54 -30l-398 -719l-52 32z" />
    <glyph glyph-name="Ugrave" unicode="&#xd9;" horiz-adv-x="881" 
d="M671 286v361h133v-375q0 -81 -29 -135.5t-79 -87.5t-115.5 -47.5t-138.5 -14.5q-76 0 -142.5 14.5t-116.5 47.5t-78 87.5t-28 135.5v375h133v-361q0 -76 30 -115.5t82.5 -54t119.5 -14.5q65 0 116.5 14.5t82 54t30.5 115.5zM386 725l-184 158h172l136 -158h-124z" />
    <glyph glyph-name="Uacute" unicode="&#xda;" horiz-adv-x="881" 
d="M671 286v361h133v-375q0 -81 -29 -135.5t-79 -87.5t-115.5 -47.5t-138.5 -14.5q-76 0 -142.5 14.5t-116.5 47.5t-78 87.5t-28 135.5v375h133v-361q0 -76 30 -115.5t82.5 -54t119.5 -14.5q65 0 116.5 14.5t82 54t30.5 115.5zM372 725l136 158h172l-184 -158h-124z" />
    <glyph glyph-name="Ucircumflex" unicode="&#xdb;" horiz-adv-x="881" 
d="M671 286v361h133v-375q0 -81 -29 -135.5t-79 -87.5t-115.5 -47.5t-138.5 -14.5q-76 0 -142.5 14.5t-116.5 47.5t-78 87.5t-28 135.5v375h133v-361q0 -76 30 -115.5t82.5 -54t119.5 -14.5q65 0 116.5 14.5t82 54t30.5 115.5zM510 883l162 -158h-141l-89 90l-90 -90h-141
l163 158h136z" />
    <glyph glyph-name="Udieresis" unicode="&#xdc;" horiz-adv-x="881" 
d="M671 286v361h133v-375q0 -81 -29 -135.5t-79 -87.5t-115.5 -47.5t-138.5 -14.5q-76 0 -142.5 14.5t-116.5 47.5t-78 87.5t-28 135.5v375h133v-361q0 -76 30 -115.5t82.5 -54t119.5 -14.5q65 0 116.5 14.5t82 54t30.5 115.5zM407 647v-114h-151v114h151zM624 647v-114
h-151v114h151z" />
    <glyph glyph-name="Yacute" unicode="&#xdd;" horiz-adv-x="740" 
d="M721 647l-284 -443v-204h-134v204l-284 443h154l199 -322l195 322h154zM300 725l136 158h172l-184 -158h-124z" />
    <glyph glyph-name="Thorn" unicode="&#xde;" horiz-adv-x="759" 
d="M75 647h133v-107h243q73 0 131.5 -22t93.5 -69.5t35 -125.5t-35 -125.5t-93.5 -69t-131.5 -21.5h-243v-107h-133v647zM463 432h-255v-217h255q51 0 83 28.5t32 79.5q0 53 -32 81t-83 28z" />
    <glyph glyph-name="germandbls" unicode="&#xdf;" horiz-adv-x="713" 
d="M69 0v524q0 90 49 131.5t143 41.5h113v-105h-92q-37 1 -60 -17.5t-23 -66.5v-20l437 -1v-87l-167 -198q62 -5 113.5 -23t82.5 -54t31 -95q0 -67 -43.5 -112.5t-121.5 -68t-182 -22.5v100q84 0 131 10.5t65.5 33t18.5 57.5q0 33 -17.5 55.5t-60.5 34t-122 11.5h-35v95
l154 165h-284v-389h-130z" />
    <glyph glyph-name="agrave" unicode="&#xe0;" horiz-adv-x="723" 
d="M302 -11q-74 0 -134.5 32.5t-96 91t-35.5 135.5q0 79 36 137t98 90.5t139 32.5q97 0 151.5 -44t74.5 -115v148h130v-497h-121l-2.5 19.5t-4.5 49.5t-2 59v32q-14 -45 -43 -84t-76 -63t-114 -24zM344 89q89 0 140 44t51 115q0 77 -51.5 118t-139.5 41q-83 0 -129 -43.5
t-46 -115.5t48 -115.5t127 -43.5zM288 601l-184 158h172l136 -158h-124z" />
    <glyph glyph-name="aacute" unicode="&#xe1;" horiz-adv-x="723" 
d="M302 -11q-74 0 -134.5 32.5t-96 91t-35.5 135.5q0 79 36 137t98 90.5t139 32.5q97 0 151.5 -44t74.5 -115v148h130v-497h-121l-2.5 19.5t-4.5 49.5t-2 59v32q-14 -45 -43 -84t-76 -63t-114 -24zM344 89q89 0 140 44t51 115q0 77 -51.5 118t-139.5 41q-83 0 -129 -43.5
t-46 -115.5t48 -115.5t127 -43.5zM274 601l136 158h172l-184 -158h-124z" />
    <glyph glyph-name="acircumflex" unicode="&#xe2;" horiz-adv-x="723" 
d="M302 -11q-74 0 -134.5 32.5t-96 91t-35.5 135.5q0 79 36 137t98 90.5t139 32.5q97 0 151.5 -44t74.5 -115v148h130v-497h-121l-2.5 19.5t-4.5 49.5t-2 59v32q-14 -45 -43 -84t-76 -63t-114 -24zM344 89q89 0 140 44t51 115q0 77 -51.5 118t-139.5 41q-83 0 -129 -43.5
t-46 -115.5t48 -115.5t127 -43.5zM412 759l162 -158h-141l-89 90l-90 -90h-141l163 158h136z" />
    <glyph glyph-name="atilde" unicode="&#xe3;" horiz-adv-x="723" 
d="M302 -11q-74 0 -134.5 32.5t-96 91t-35.5 135.5q0 79 36 137t98 90.5t139 32.5q97 0 151.5 -44t74.5 -115v148h130v-497h-121l-2.5 19.5t-4.5 49.5t-2 59v32q-14 -45 -43 -84t-76 -63t-114 -24zM344 89q89 0 140 44t51 115q0 77 -51.5 118t-139.5 41q-83 0 -129 -43.5
t-46 -115.5t48 -115.5t127 -43.5zM431 600q-30 0 -53 9t-43 21.5t-40 21.5t-44 9q-32 0 -44.5 -19.5t-21.5 -40.5h-92q8 37 26.5 68.5t48.5 51t71 19.5q31 0 54.5 -9t44 -21.5t39.5 -21.5t41 -9q33 0 46 20.5t21 39.5h93q-8 -36 -26.5 -68t-48.5 -51.5t-72 -19.5z" />
    <glyph glyph-name="adieresis" unicode="&#xe4;" horiz-adv-x="723" 
d="M302 -11q-74 0 -134.5 32.5t-96 91t-35.5 135.5q0 79 36 137t98 90.5t139 32.5q97 0 151.5 -44t74.5 -115v148h130v-497h-121l-2.5 19.5t-4.5 49.5t-2 59v32q-14 -45 -43 -84t-76 -63t-114 -24zM344 89q89 0 140 44t51 115q0 77 -51.5 118t-139.5 41q-83 0 -129 -43.5
t-46 -115.5t48 -115.5t127 -43.5zM311 716v-114h-151v114h151zM528 716v-114h-151v114h151z" />
    <glyph glyph-name="aring" unicode="&#xe5;" horiz-adv-x="723" 
d="M302 -11q-74 0 -134.5 32.5t-96 91t-35.5 135.5q0 79 36 137t98 90.5t139 32.5q97 0 151.5 -44t74.5 -115v148h130v-497h-121l-2.5 19.5t-4.5 49.5t-2 59v32q-14 -45 -43 -84t-76 -63t-114 -24zM344 89q89 0 140 44t51 115q0 77 -51.5 118t-139.5 41q-83 0 -129 -43.5
t-46 -115.5t48 -115.5t127 -43.5zM344 577q-65 0 -103.5 30.5t-38.5 81.5q0 50 38.5 80.5t103.5 30.5t103 -30.5t38 -80.5q0 -51 -38 -81.5t-103 -30.5zM344 635q35 0 50.5 13.5t15.5 40.5q0 26 -15.5 39.5t-50.5 13.5q-36 0 -51.5 -13.5t-15.5 -39.5q0 -27 15.5 -40.5
t51.5 -13.5z" />
    <glyph glyph-name="ae" unicode="&#xe6;" horiz-adv-x="1266" 
d="M302 -11q-74 0 -134.5 32.5t-96 91t-35.5 135.5q0 79 36 137t98 90.5t139 32.5q97 0 151.5 -44t74.5 -115v148h130v-110q39 57 111 88t167 31q146 0 219.5 -69.5t66.5 -214.5h-474q8 -58 56 -97t133 -39q62 0 103.5 21.5t53.5 55.5h126q-13 -76 -83 -126.5t-197 -50.5
q-96 0 -169 31t-113 88v-105h-121q-3 23 -6 59.5t-3 68.5v32q-14 -45 -43 -84t-76 -63t-114 -24zM344 89q89 0 140 44t51 115q0 77 -51.5 118t-139.5 41q-83 0 -129 -43.5t-46 -115.5t48 -115.5t127 -43.5zM937 407q-72 0 -117 -31.5t-58 -77.5h338q-5 50 -47.5 79.5
t-115.5 29.5z" />
    <glyph glyph-name="ccedilla" unicode="&#xe7;" horiz-adv-x="686" 
d="M260 -126q2 -5 6.5 -15t16.5 -18t35 -8q28 0 39.5 12t11.5 28q0 7 -4.5 17t-19.5 20t-49 16v65q-77 9 -135.5 41t-91.5 85.5t-33 129.5q0 85 41.5 143t114 88t164.5 30q131 0 207.5 -54.5t85.5 -151.5h-119q-17 50 -63 78t-111 28q-52 0 -94.5 -18t-68 -53.5t-25.5 -89.5
q0 -53 25 -88.5t68 -53t95 -17.5q70 0 114.5 28t60.5 80h119q-7 -89 -71 -142.5t-174 -63.5v-43q32 -11 53 -32.5t21 -58.5q0 -42 -39.5 -73.5t-118.5 -31.5q-50 0 -85.5 17.5t-53.5 46t-16 59.5h94z" />
    <glyph glyph-name="egrave" unicode="&#xe8;" horiz-adv-x="678" 
d="M513 165h126q-13 -76 -83 -126.5t-197 -50.5q-95 0 -168 30.5t-114 88.5t-41 140t40 140.5t111.5 89.5t167.5 31q146 0 219.5 -69.5t66.5 -214.5h-474q8 -58 56 -97t133 -39q62 0 103.5 21.5t53.5 55.5zM349 409q-72 0 -117 -31.5t-58 -77.5h338q-5 50 -47.5 79.5
t-115.5 29.5zM296 601l-184 158h172l136 -158h-124z" />
    <glyph glyph-name="eacute" unicode="&#xe9;" horiz-adv-x="678" 
d="M513 165h126q-13 -76 -83 -126.5t-197 -50.5q-95 0 -168 30.5t-114 88.5t-41 140t40 140.5t111.5 89.5t167.5 31q146 0 219.5 -69.5t66.5 -214.5h-474q8 -58 56 -97t133 -39q62 0 103.5 21.5t53.5 55.5zM349 409q-72 0 -117 -31.5t-58 -77.5h338q-5 50 -47.5 79.5
t-115.5 29.5zM282 601l136 158h172l-184 -158h-124z" />
    <glyph glyph-name="ecircumflex" unicode="&#xea;" horiz-adv-x="678" 
d="M513 165h126q-13 -76 -83 -126.5t-197 -50.5q-95 0 -168 30.5t-114 88.5t-41 140t40 140.5t111.5 89.5t167.5 31q146 0 219.5 -69.5t66.5 -214.5h-474q8 -58 56 -97t133 -39q62 0 103.5 21.5t53.5 55.5zM349 409q-72 0 -117 -31.5t-58 -77.5h338q-5 50 -47.5 79.5
t-115.5 29.5zM420 759l162 -158h-141l-89 90l-90 -90h-141l163 158h136z" />
    <glyph glyph-name="edieresis" unicode="&#xeb;" horiz-adv-x="678" 
d="M513 165h126q-13 -76 -83 -126.5t-197 -50.5q-95 0 -168 30.5t-114 88.5t-41 140t40 140.5t111.5 89.5t167.5 31q146 0 219.5 -69.5t66.5 -214.5h-474q8 -58 56 -97t133 -39q62 0 103.5 21.5t53.5 55.5zM349 409q-72 0 -117 -31.5t-58 -77.5h338q-5 50 -47.5 79.5
t-115.5 29.5zM319 716v-114h-151v114h151zM536 716v-114h-151v114h151z" />
    <glyph glyph-name="igrave" unicode="&#xec;" horiz-adv-x="247" 
d="M58 497h130v-497h-130v497zM67 599l-184 158h172l136 -158h-124z" />
    <glyph glyph-name="iacute" unicode="&#xed;" horiz-adv-x="247" 
d="M58 497h130v-497h-130v497zM53 599l136 158h172l-184 -158h-124z" />
    <glyph glyph-name="icircumflex" unicode="&#xee;" horiz-adv-x="247" 
d="M58 497h130v-497h-130v497zM191 757l162 -158h-141l-89 90l-90 -90h-141l163 158h136z" />
    <glyph glyph-name="idieresis" unicode="&#xef;" horiz-adv-x="247" 
d="M58 497h130v-497h-130v497zM114.605 716v-114h-139.268v114h139.268zM277.605 716v-114h-139.268v114h139.268z" />
    <glyph glyph-name="eth" unicode="&#xf0;" horiz-adv-x="692" 
d="M161 614l20 95q77 -15 139 -37.5t110 -50.5l97 88l55 -59l-84 -75q59 -48 92 -102t46 -108.5t13 -102.5q0 -80 -39 -142t-107.5 -97t-158.5 -35q-96 0 -165 32.5t-106 91.5t-37 136q0 79 34 135t93 86t133 30q85 0 141.5 -34t84.5 -90q-17 54 -59.5 99.5t-116 80.5
t-185.5 59zM350 89q52 0 93.5 19t66.5 54.5t25 83.5q0 49 -26 83.5t-68.5 52.5t-93.5 18q-83 0 -130.5 -42.5t-47.5 -113.5q0 -73 49.5 -114t131.5 -41z" />
    <glyph glyph-name="ntilde" unicode="&#xf1;" horiz-adv-x="693" 
d="M60 497h130v-143q13 40 44 75t78 57t109 22q61 0 109.5 -21.5t76.5 -66.5t28 -116v-304h-130v281q0 63 -30.5 92.5t-99.5 29.5q-45 0 -82.5 -15t-64.5 -39.5t-38 -52.5v-296h-130v497zM467 600q-30 0 -53 9t-43 21.5t-40 21.5t-44 9q-32 0 -44.5 -19.5t-21.5 -40.5h-92
q8 37 26.5 68.5t48.5 51t71 19.5q31 0 54.5 -9t44 -21.5t39.5 -21.5t41 -9q33 0 46 20.5t21 39.5h93q-8 -36 -26.5 -68t-48.5 -51.5t-72 -19.5z" />
    <glyph glyph-name="ograve" unicode="&#xf2;" horiz-adv-x="704" 
d="M353 -12q-94 0 -165.5 30t-111.5 87.5t-40 141.5t40 142.5t111.5 88.5t165.5 30t164.5 -30t110.5 -88.5t40 -142.5t-40 -141.5t-110.5 -87.5t-164.5 -30zM353 88q52 0 93.5 18.5t65.5 54t24 86.5t-24 87.5t-65 55.5t-94 19q-52 0 -94 -19t-66.5 -55t-24.5 -88
q0 -76 53 -117.5t132 -41.5zM297 601l-184 158h172l136 -158h-124z" />
    <glyph glyph-name="oacute" unicode="&#xf3;" horiz-adv-x="704" 
d="M353 -12q-94 0 -165.5 30t-111.5 87.5t-40 141.5t40 142.5t111.5 88.5t165.5 30t164.5 -30t110.5 -88.5t40 -142.5t-40 -141.5t-110.5 -87.5t-164.5 -30zM353 88q52 0 93.5 18.5t65.5 54t24 86.5t-24 87.5t-65 55.5t-94 19q-52 0 -94 -19t-66.5 -55t-24.5 -88
q0 -76 53 -117.5t132 -41.5zM283 601l136 158h172l-184 -158h-124z" />
    <glyph glyph-name="ocircumflex" unicode="&#xf4;" horiz-adv-x="704" 
d="M353 -12q-94 0 -165.5 30t-111.5 87.5t-40 141.5t40 142.5t111.5 88.5t165.5 30t164.5 -30t110.5 -88.5t40 -142.5t-40 -141.5t-110.5 -87.5t-164.5 -30zM353 88q52 0 93.5 18.5t65.5 54t24 86.5t-24 87.5t-65 55.5t-94 19q-52 0 -94 -19t-66.5 -55t-24.5 -88
q0 -76 53 -117.5t132 -41.5zM421 759l162 -158h-141l-89 90l-90 -90h-141l163 158h136z" />
    <glyph glyph-name="otilde" unicode="&#xf5;" horiz-adv-x="704" 
d="M353 -12q-94 0 -165.5 30t-111.5 87.5t-40 141.5t40 142.5t111.5 88.5t165.5 30t164.5 -30t110.5 -88.5t40 -142.5t-40 -141.5t-110.5 -87.5t-164.5 -30zM353 88q52 0 93.5 18.5t65.5 54t24 86.5t-24 87.5t-65 55.5t-94 19q-52 0 -94 -19t-66.5 -55t-24.5 -88
q0 -76 53 -117.5t132 -41.5zM440 600q-30 0 -53 9t-43 21.5t-40 21.5t-44 9q-32 0 -44.5 -19.5t-21.5 -40.5h-92q8 37 26.5 68.5t48.5 51t71 19.5q31 0 54.5 -9t44 -21.5t39.5 -21.5t41 -9q33 0 46 20.5t21 39.5h93q-8 -36 -26.5 -68t-48.5 -51.5t-72 -19.5z" />
    <glyph glyph-name="odieresis" unicode="&#xf6;" horiz-adv-x="704" 
d="M353 -12q-94 0 -165.5 30t-111.5 87.5t-40 141.5t40 142.5t111.5 88.5t165.5 30t164.5 -30t110.5 -88.5t40 -142.5t-40 -141.5t-110.5 -87.5t-164.5 -30zM353 88q52 0 93.5 18.5t65.5 54t24 86.5t-24 87.5t-65 55.5t-94 19q-52 0 -94 -19t-66.5 -55t-24.5 -88
q0 -76 53 -117.5t132 -41.5zM320 716v-114h-151v114h151zM537 716v-114h-151v114h151z" />
    <glyph glyph-name="divide" unicode="&#xf7;" horiz-adv-x="530" 
d="M327 472v-103h-151v103h151zM50 316h430v-98h-430v98zM327 163v-102h-151v102h151z" />
    <glyph glyph-name="oslash" unicode="&#xf8;" horiz-adv-x="704" 
d="M353 -12q-61 0 -113 13l-27 -45l-52 32l19 33q-67 30 -105.5 87t-38.5 139q0 84 40 142.5t111.5 88.5t165.5 30q58 0 108 -12l28 47l54 -30l-22 -37q69 -30 108 -88t39 -141q0 -84 -40 -141.5t-110.5 -87.5t-164.5 -30zM168 247q0 -44 18.5 -77t50.5 -53l169 286
q-25 6 -53 6q-52 0 -94 -19t-66.5 -55t-24.5 -88zM353 88q52 0 93.5 18.5t65.5 54t24 86.5q0 45 -19 79t-53 54l-169 -286q27 -6 58 -6z" />
    <glyph glyph-name="ugrave" unicode="&#xf9;" horiz-adv-x="693" 
d="M635 0h-130v170q-8 -25 -24 -56.5t-42.5 -60t-65 -47t-91.5 -18.5q-41 0 -80.5 10t-71.5 33.5t-51 63.5t-19 101v301h130v-279q0 -73 35 -99t97 -26q48 0 84.5 19.5t61 48.5t37.5 59v277h130v-497zM301 601l-184 158h172l136 -158h-124z" />
    <glyph glyph-name="uacute" unicode="&#xfa;" horiz-adv-x="693" 
d="M635 0h-130v170q-8 -25 -24 -56.5t-42.5 -60t-65 -47t-91.5 -18.5q-41 0 -80.5 10t-71.5 33.5t-51 63.5t-19 101v301h130v-279q0 -73 35 -99t97 -26q48 0 84.5 19.5t61 48.5t37.5 59v277h130v-497zM287 601l136 158h172l-184 -158h-124z" />
    <glyph glyph-name="ucircumflex" unicode="&#xfb;" horiz-adv-x="693" 
d="M635 0h-130v170q-8 -25 -24 -56.5t-42.5 -60t-65 -47t-91.5 -18.5q-41 0 -80.5 10t-71.5 33.5t-51 63.5t-19 101v301h130v-279q0 -73 35 -99t97 -26q48 0 84.5 19.5t61 48.5t37.5 59v277h130v-497zM425 759l162 -158h-141l-89 90l-90 -90h-141l163 158h136z" />
    <glyph glyph-name="udieresis" unicode="&#xfc;" horiz-adv-x="693" 
d="M635 0h-130v170q-8 -25 -24 -56.5t-42.5 -60t-65 -47t-91.5 -18.5q-41 0 -80.5 10t-71.5 33.5t-51 63.5t-19 101v301h130v-279q0 -73 35 -99t97 -26q48 0 84.5 19.5t61 48.5t37.5 59v277h130v-497zM324 716v-114h-151v114h151zM541 716v-114h-151v114h151z" />
    <glyph glyph-name="yacute" unicode="&#xfd;" horiz-adv-x="639" 
d="M15 497h138l164 -365l167 365h139l-344 -697h-135l110 205zM250 601l136 158h172l-184 -158h-124z" />
    <glyph glyph-name="thorn" unicode="&#xfe;" horiz-adv-x="724" 
d="M422 -12q-66 0 -113 24t-76 63.5t-43 84.5v-360h-130v896h130v-331v-16q20 71 76 115t156 44q75 0 135 -33t95.5 -91.5t35.5 -135.5q0 -79 -36 -137.5t-96 -90.5t-134 -32zM380 89q80 0 127.5 43.5t47.5 115.5t-45.5 116t-129.5 44q-53 0 -96.5 -19t-68.5 -54.5
t-25 -86.5q0 -72 51 -115.5t139 -43.5z" />
    <glyph glyph-name="ydieresis" unicode="&#xff;" horiz-adv-x="639" 
d="M15 497h138l164 -365l167 365h139l-344 -697h-135l110 205zM287 716v-114h-151v114h151zM504 716v-114h-151v114h151z" />
    <glyph glyph-name="Amacron" unicode="&#x100;" horiz-adv-x="789" 
d="M17 0l304 647h144l307 -647h-145l-64 141h-338l-64 -141h-144zM275 252h237l-119 261zM241 733v81h307v-81h-307z" />
    <glyph glyph-name="amacron" unicode="&#x101;" horiz-adv-x="723" 
d="M302 -11q-74 0 -134.5 32.5t-96 91t-35.5 135.5q0 79 36 137t98 90.5t139 32.5q97 0 151.5 -44t74.5 -115v148h130v-497h-121l-2.5 19.5t-4.5 49.5t-2 59v32q-14 -45 -43 -84t-76 -63t-114 -24zM344 89q89 0 140 44t51 115q0 77 -51.5 118t-139.5 41q-83 0 -129 -43.5
t-46 -115.5t48 -115.5t127 -43.5zM191 609v81h307v-81h-307z" />
    <glyph glyph-name="Abreve" unicode="&#x102;" horiz-adv-x="789" 
d="M17 0l304 647h144l307 -647h-145l-64 141h-338l-64 -141h-144zM275 252h237l-119 261zM604 854q-9 -65 -59 -108t-151 -43q-100 0 -150 43t-60 108h95q8 -34 35.5 -52.5t79.5 -18.5q53 0 80.5 18.5t34.5 52.5h95z" />
    <glyph glyph-name="abreve" unicode="&#x103;" horiz-adv-x="723" 
d="M302 -11q-74 0 -134.5 32.5t-96 91t-35.5 135.5q0 79 36 137t98 90.5t139 32.5q97 0 151.5 -44t74.5 -115v148h130v-497h-121l-2.5 19.5t-4.5 49.5t-2 59v32q-14 -45 -43 -84t-76 -63t-114 -24zM344 89q89 0 140 44t51 115q0 77 -51.5 118t-139.5 41q-83 0 -129 -43.5
t-46 -115.5t48 -115.5t127 -43.5zM554 730q-9 -65 -59 -108t-151 -43q-100 0 -150 43t-60 108h95q8 -34 35.5 -52.5t79.5 -18.5q53 0 80.5 18.5t34.5 52.5h95z" />
    <glyph glyph-name="Aogonek" unicode="&#x104;" horiz-adv-x="789" 
d="M17 0l304 647h144l307 -647h-78q-29 -9 -47 -26.5t-18 -45.5q0 -36 33 -55.5t88 -19.5v-69q-102 0 -162 33.5t-60 91.5q0 40 25.5 64t68.5 38l-59 130h-338l-64 -141h-144zM275 252h237l-119 261z" />
    <glyph glyph-name="aogonek" unicode="&#x105;" horiz-adv-x="723" 
d="M302 -11q-74 0 -134.5 32.5t-96 91t-35.5 135.5q0 79 36 137t98 90.5t139 32.5q97 0 151.5 -44t74.5 -115v148h130v-497h-50q-41 -7 -67.5 -26t-26.5 -53q0 -36 33 -55.5t88 -19.5v-69q-102 0 -162 33.5t-60 91.5q0 46 34 71.5t89 37.5q-2 17 -5 50.5t-3 66.5v32
q-14 -45 -43 -84t-76 -63t-114 -24zM344 89q89 0 140 44t51 115q0 77 -51.5 118t-139.5 41q-83 0 -129 -43.5t-46 -115.5t48 -115.5t127 -43.5z" />
    <glyph glyph-name="Cacute" unicode="&#x106;" horiz-adv-x="885" 
d="M832 233q-13 -118 -109 -182t-259 -64q-121 0 -214 37.5t-145 112t-52 185.5q0 112 52 187t145 113t214 38q164 0 259.5 -66t108.5 -184h-132q-20 63 -78.5 99t-157.5 36q-124 0 -199 -56.5t-75 -166.5q0 -108 75 -164.5t199 -56.5q99 0 157 35.5t79 96.5h132zM384 729
l136 158h172l-184 -158h-124z" />
    <glyph glyph-name="cacute" unicode="&#x107;" horiz-adv-x="686" 
d="M650 196q-7 -98 -84.5 -153t-209.5 -55q-92 0 -164.5 29.5t-114 87t-41.5 142.5t41.5 143t114 88t164.5 30q131 0 207.5 -54.5t85.5 -151.5h-119q-17 50 -63 78t-111 28q-52 0 -94.5 -18t-68 -53.5t-25.5 -89.5q0 -53 25 -88.5t68 -53t95 -17.5q70 0 114.5 28t60.5 80
h119zM279 601l136 158h172l-184 -158h-124z" />
    <glyph glyph-name="Cdotaccent" unicode="&#x10a;" horiz-adv-x="885" 
d="M832 233q-13 -118 -109 -182t-259 -64q-121 0 -214 37.5t-145 112t-52 185.5q0 112 52 187t145 113t214 38q164 0 259.5 -66t108.5 -184h-132q-20 63 -78.5 99t-157.5 36q-124 0 -199 -56.5t-75 -166.5q0 -108 75 -164.5t199 -56.5q99 0 157 35.5t79 96.5h132zM530 845
v-114h-151v114h151z" />
    <glyph glyph-name="cdotaccent" unicode="&#x10b;" horiz-adv-x="686" 
d="M650 196q-7 -98 -84.5 -153t-209.5 -55q-92 0 -164.5 29.5t-114 87t-41.5 142.5t41.5 143t114 88t164.5 30q131 0 207.5 -54.5t85.5 -151.5h-119q-17 50 -63 78t-111 28q-52 0 -94.5 -18t-68 -53.5t-25.5 -89.5q0 -53 25 -88.5t68 -53t95 -17.5q70 0 114.5 28t60.5 80
h119zM425 717v-114h-151v114h151z" />
    <glyph glyph-name="Ccaron" unicode="&#x10c;" horiz-adv-x="885" 
d="M832 233q-13 -118 -109 -182t-259 -64q-121 0 -214 37.5t-145 112t-52 185.5q0 112 52 187t145 113t214 38q164 0 259.5 -66t108.5 -184h-132q-20 63 -78.5 99t-157.5 36q-124 0 -199 -56.5t-75 -166.5q0 -108 75 -164.5t199 -56.5q99 0 157 35.5t79 96.5h132zM684 887
l-159 -158h-136l-159 158h141l86 -88l86 88h141z" />
    <glyph glyph-name="ccaron" unicode="&#x10d;" horiz-adv-x="686" 
d="M650 196q-7 -98 -84.5 -153t-209.5 -55q-92 0 -164.5 29.5t-114 87t-41.5 142.5t41.5 143t114 88t164.5 30q131 0 207.5 -54.5t85.5 -151.5h-119q-17 50 -63 78t-111 28q-52 0 -94.5 -18t-68 -53.5t-25.5 -89.5q0 -53 25 -88.5t68 -53t95 -17.5q70 0 114.5 28t60.5 80
h119zM579 759l-159 -158h-136l-159 158h141l86 -88l86 88h141z" />
    <glyph glyph-name="Dcaron" unicode="&#x10e;" horiz-adv-x="879" 
d="M447 647q109 0 182 -26t116.5 -70.5t62 -102.5t18.5 -122t-20.5 -123t-65 -104.5t-117 -72t-176.5 -26.5h-370v647h370zM210 114h234q96 0 149.5 30t75.5 78.5t22 103.5t-22 102t-75.5 76t-149.5 29h-234v-419zM640 904l-159 -158h-136l-159 158h141l86 -88l86 88h141z
" />
    <glyph glyph-name="dcaron" unicode="&#x10f;" horiz-adv-x="745" 
d="M302 -11q-75 0 -135.5 32.5t-95.5 91t-35 135.5q0 79 34.5 137t94.5 90.5t137 32.5q101 0 157 -44t76 -115v348h130v-697h-121q-3 23 -6 59.5t-3 68.5v32q-14 -45 -43 -84t-76 -63t-114 -24zM344 89q89 0 140 44t51 115q0 77 -51.5 118.5t-139.5 41.5q-83 0 -129 -44
t-46 -116t48 -115.5t127 -43.5zM828 487h-69l-42 124v86h153v-86z" />
    <glyph glyph-name="Dcroat" unicode="&#x110;" horiz-adv-x="879" 
d="M447 647q109 0 182 -26t116.5 -70.5t62 -102.5t18.5 -122t-20.5 -123t-65 -104.5t-117 -72t-176.5 -26.5h-370v647h370zM210 114h234q96 0 149.5 30t75.5 78.5t22 103.5t-22 102t-75.5 76t-149.5 29h-234v-419zM-5 361h359v-69h-359v69z" />
    <glyph glyph-name="dcroat" unicode="&#x111;" horiz-adv-x="745" 
d="M302 -11q-75 0 -135.5 32.5t-95.5 91t-35 135.5q0 79 34.5 137t94.5 90.5t137 32.5q101 0 157 -44t76 -115v348h130v-697h-121q-3 23 -6 59.5t-3 68.5v32q-14 -45 -43 -84t-76 -63t-114 -24zM344 89q89 0 140 44t51 115q0 77 -51.5 118.5t-139.5 41.5q-83 0 -129 -44
t-46 -116t48 -115.5t127 -43.5zM371 635h359v-69h-359v69z" />
    <glyph glyph-name="Emacron" unicode="&#x112;" horiz-adv-x="769" 
d="M210 270v-159h499v-111h-632v647h631v-111h-498v-161h408v-105h-408zM244 733v81h307v-81h-307z" />
    <glyph glyph-name="emacron" unicode="&#x113;" horiz-adv-x="678" 
d="M513 165h126q-13 -76 -83 -126.5t-197 -50.5q-95 0 -168 30.5t-114 88.5t-41 140t40 140.5t111.5 89.5t167.5 31q146 0 219.5 -69.5t66.5 -214.5h-474q8 -58 56 -97t133 -39q62 0 103.5 21.5t53.5 55.5zM349 409q-72 0 -117 -31.5t-58 -77.5h338q-5 50 -47.5 79.5
t-115.5 29.5zM199 609v81h307v-81h-307z" />
    <glyph glyph-name="Edotaccent" unicode="&#x116;" horiz-adv-x="769" 
d="M210 270v-159h499v-111h-632v647h631v-111h-498v-161h408v-105h-408zM473 841v-114h-151v114h151z" />
    <glyph glyph-name="edotaccent" unicode="&#x117;" horiz-adv-x="678" 
d="M513 165h126q-13 -76 -83 -126.5t-197 -50.5q-95 0 -168 30.5t-114 88.5t-41 140t40 140.5t111.5 89.5t167.5 31q146 0 219.5 -69.5t66.5 -214.5h-474q8 -58 56 -97t133 -39q62 0 103.5 21.5t53.5 55.5zM349 409q-72 0 -117 -31.5t-58 -77.5h338q-5 50 -47.5 79.5
t-115.5 29.5zM428 717v-114h-151v114h151z" />
    <glyph glyph-name="Eogonek" unicode="&#x118;" horiz-adv-x="769" 
d="M210 270v-159h499v-111q-41 -7 -67.5 -26t-26.5 -53q0 -36 33 -55.5t88 -19.5v-69q-102 0 -162 33.5t-60 91.5q0 37 22.5 60.5t60.5 37.5h-520v647h631v-111h-498v-161h408v-105h-408z" />
    <glyph glyph-name="eogonek" unicode="&#x119;" horiz-adv-x="678" 
d="M513 165h126q-8 -45 -35.5 -82t-75.5 -61v-1q-41 -22 -68 -44t-27 -56q0 -36 33.5 -56t88.5 -20v-68q-103 0 -163 33.5t-60 91.5q0 29 14 50t39 37q-13 -1 -26 -1q-95 0 -168 30.5t-114 88.5t-41 140t40 140.5t111.5 89.5t167.5 31q146 0 219.5 -69.5t66.5 -214.5h-474
q8 -58 56 -97t133 -39q62 0 103.5 21.5t53.5 55.5zM349 409q-72 0 -117 -31.5t-58 -77.5h338q-5 50 -47.5 79.5t-115.5 29.5z" />
    <glyph glyph-name="Ecaron" unicode="&#x11a;" horiz-adv-x="769" 
d="M210 270v-159h499v-111h-632v647h631v-111h-498v-161h408v-105h-408zM627 883l-159 -158h-136l-159 158h141l86 -88l86 88h141z" />
    <glyph glyph-name="ecaron" unicode="&#x11b;" horiz-adv-x="678" 
d="M513 165h126q-13 -76 -83 -126.5t-197 -50.5q-95 0 -168 30.5t-114 88.5t-41 140t40 140.5t111.5 89.5t167.5 31q146 0 219.5 -69.5t66.5 -214.5h-474q8 -58 56 -97t133 -39q62 0 103.5 21.5t53.5 55.5zM349 409q-72 0 -117 -31.5t-58 -77.5h338q-5 50 -47.5 79.5
t-115.5 29.5zM582 759l-159 -158h-136l-159 158h141l86 -88l86 88h141z" />
    <glyph glyph-name="Gbreve" unicode="&#x11e;" horiz-adv-x="914" 
d="M449 -13q-119 0 -208.5 37.5t-138.5 111.5t-49 182q0 110 51.5 186t144.5 116t215 40q164 0 259 -67t105 -180h-128q-19 59 -76.5 95.5t-159.5 36.5q-131 0 -202.5 -62t-71.5 -165q0 -100 63.5 -158t200.5 -58q100 0 166.5 36.5t92.5 91.5h-248v85h386v-315h-115
q0 37 5.5 86.5t12.5 96.5q-31 -93 -109.5 -144.5t-195.5 -51.5zM664 858q-9 -65 -59 -108t-151 -43q-100 0 -150 43t-60 108h95q8 -34 35.5 -52.5t79.5 -18.5q53 0 80.5 18.5t34.5 52.5h95z" />
    <glyph glyph-name="gbreve" unicode="&#x11f;" horiz-adv-x="671" 
d="M475 -205v24q0 46 -29.5 64t-80.5 18h-155q-60 0 -94.5 12.5t-49 34t-14.5 48.5q0 51 43 71.5t108 20.5q-77 20 -122 71t-45 130q0 67 33 116t94.5 76t144.5 27q23 0 44.5 -3t42.5 -8l251 -1v-98q-41 -1 -84 8t-80 22q40 -25 68 -60.5t28 -84.5q0 -98 -72.5 -152.5
t-197.5 -54.5q-63 -2 -93.5 -10.5t-30.5 -33.5q0 -32 46 -32h163q101 0 156.5 -34t55.5 -124v-47h-130zM308 170q65 0 104.5 31t39.5 87t-39.5 88.5t-104.5 32.5t-105 -32t-40 -89q0 -56 39.5 -87t105.5 -31zM518 730q-9 -65 -59 -108t-151 -43q-100 0 -150 43t-60 108h95
q8 -34 35.5 -52.5t79.5 -18.5q53 0 80.5 18.5t34.5 52.5h95z" />
    <glyph glyph-name="Gdotaccent" unicode="&#x120;" horiz-adv-x="914" 
d="M449 -13q-119 0 -208.5 37.5t-138.5 111.5t-49 182q0 110 51.5 186t144.5 116t215 40q164 0 259 -67t105 -180h-128q-19 59 -76.5 95.5t-159.5 36.5q-131 0 -202.5 -62t-71.5 -165q0 -100 63.5 -158t200.5 -58q100 0 166.5 36.5t92.5 91.5h-248v85h386v-315h-115
q0 37 5.5 86.5t12.5 96.5q-31 -93 -109.5 -144.5t-195.5 -51.5zM530 845v-114h-151v114h151z" />
    <glyph glyph-name="gdotaccent" unicode="&#x121;" horiz-adv-x="671" 
d="M475 -205v24q0 46 -29.5 64t-80.5 18h-155q-60 0 -94.5 12.5t-49 34t-14.5 48.5q0 51 43 71.5t108 20.5q-77 20 -122 71t-45 130q0 67 33 116t94.5 76t144.5 27q23 0 44.5 -3t42.5 -8l251 -1v-98q-41 -1 -84 8t-80 22q40 -25 68 -60.5t28 -84.5q0 -98 -72.5 -152.5
t-197.5 -54.5q-63 -2 -93.5 -10.5t-30.5 -33.5q0 -32 46 -32h163q101 0 156.5 -34t55.5 -124v-47h-130zM308 170q65 0 104.5 31t39.5 87t-39.5 88.5t-104.5 32.5t-105 -32t-40 -89q0 -56 39.5 -87t105.5 -31zM384 717v-114h-151v114h151z" />
    <glyph glyph-name="uni0122" unicode="&#x122;" horiz-adv-x="914" 
d="M449 -13q-119 0 -208.5 37.5t-138.5 111.5t-49 182q0 110 51.5 186t144.5 116t215 40q164 0 259 -67t105 -180h-128q-19 59 -76.5 95.5t-159.5 36.5q-131 0 -202.5 -62t-71.5 -165q0 -100 63.5 -158t200.5 -58q100 0 166.5 36.5t92.5 91.5h-248v85h386v-315h-115
q0 37 5.5 86.5t12.5 96.5q-31 -93 -109.5 -144.5t-195.5 -51.5zM530 -113q0 -54 -33.5 -88.5t-97.5 -47.5l-12 34q21 10 36 23.5t16 27.5l-62 11v92h153v-52z" />
    <glyph glyph-name="uni0123" unicode="&#x123;" horiz-adv-x="671" 
d="M475 -205v24q0 46 -29.5 64t-80.5 18h-155q-60 0 -94.5 12.5t-49 34t-14.5 48.5q0 51 43 71.5t108 20.5q-77 20 -122 71t-45 130q0 67 33 116t94.5 76t144.5 27q23 0 44.5 -3t42.5 -8l251 -1v-98q-41 -1 -84 8t-80 22q40 -25 68 -60.5t28 -84.5q0 -98 -72.5 -152.5
t-197.5 -54.5q-63 -2 -93.5 -10.5t-30.5 -33.5q0 -32 46 -32h163q101 0 156.5 -34t55.5 -124v-47h-130zM308 170q65 0 104.5 31t39.5 87t-39.5 88.5t-104.5 32.5t-105 -32t-40 -89q0 -56 39.5 -87t105.5 -31zM363 759l12 -34q-16 -7 -33 -21.5t-18 -29.5l61 -11v-92h-153v52
q0 110 131 136z" />
    <glyph glyph-name="Hbar" unicode="&#x126;" horiz-adv-x="895" 
d="M37 536h40v111h133v-111h475v111h133v-111h40v-75h-40v-461h-133v269h-475v-269h-133v461h-40v75zM210 380h475v81h-475v-81z" />
    <glyph glyph-name="hbar" unicode="&#x127;" horiz-adv-x="702" 
d="M69 0v697h130v-342q13 39 44 74t78 57t109 22q61 0 109.5 -21t76.5 -63t28 -106v-318h-130v273q0 61 -32 92t-108 31q-63 0 -110.5 -30t-64.5 -71v-295h-130zM0 637h359v-69h-359v69z" />
    <glyph glyph-name="Imacron" unicode="&#x12a;" horiz-adv-x="324" 
d="M96 647h133v-647h-133v647zM9 733v81h307v-81h-307z" />
    <glyph glyph-name="imacron" unicode="&#x12b;" horiz-adv-x="247" 
d="M58 497h130v-497h-130v497zM-30 607v81h307v-81h-307z" />
    <glyph glyph-name="Iogonek" unicode="&#x12e;" horiz-adv-x="324" 
d="M204 -223q-102 0 -162 33.5t-60 91.5q0 44 31.5 69.5t82.5 37.5v638h133v-647h-52q-41 -7 -67.5 -26t-26.5 -53q0 -36 33 -55.5t88 -19.5v-69z" />
    <glyph glyph-name="iogonek" unicode="&#x12f;" horiz-adv-x="268" 
d="M209 715v-114h-151v114h151zM179 -223q-102 0 -162 33.5t-60 91.5q0 43 30.5 68.5t80.5 38.5v488h130v-497h-46q-41 -7 -67.5 -26t-26.5 -53q0 -36 33 -55.5t88 -19.5v-69z" />
    <glyph glyph-name="Idotaccent" unicode="&#x130;" horiz-adv-x="324" 
d="M96 647h133v-647h-133v647zM238 841v-114h-151v114h151z" />
    <glyph glyph-name="dotlessi" unicode="&#x131;" horiz-adv-x="247" 
d="M58 497h130v-497h-130v497z" />
    <glyph glyph-name="IJ" unicode="&#x132;" horiz-adv-x="754" 
d="M96 647h130v-358h-130v358zM544 253v394h133v-403q0 -68 -33 -126t-97 -93t-158 -35q-55 0 -106.5 14t-92.5 42.5t-66 72t-27 102.5h126q11 -57 56.5 -86.5t109.5 -29.5q82 0 118.5 42.5t36.5 105.5z" />
    <glyph glyph-name="ij" unicode="&#x133;" horiz-adv-x="536" 
d="M209 715v-114h-151v114h151zM68 497h130v-497h-130v497zM477 715v-114h-151v114h151zM338 497h130v-697h-130v697z" />
    <glyph glyph-name="uni0136" unicode="&#x136;" horiz-adv-x="814" 
d="M77 647h133v-306l344 306h189l-357 -304l403 -343h-192l-387 339v-339h-133v647zM461 -113q0 -54 -33.5 -88.5t-97.5 -47.5l-12 34q21 10 36 23.5t16 27.5l-62 11v92h153v-52z" />
    <glyph glyph-name="uni0137" unicode="&#x137;" horiz-adv-x="649" 
d="M69 697h130v-697h-130v697zM618 497l-252 -222l275 -275h-165l-274 279l239 218h177zM400 -113q0 -54 -33.5 -88.5t-97.5 -47.5l-12 34q21 10 36 23.5t16 27.5l-62 11v92h153v-52z" />
    <glyph glyph-name="Lacute" unicode="&#x139;" horiz-adv-x="687" 
d="M210 647v-536h430v-111h-563v647h133zM73 725l136 158h172l-184 -158h-124z" />
    <glyph glyph-name="lacute" unicode="&#x13a;" horiz-adv-x="271" 
d="M70 697h130v-697h-130v697zM70 791l136 158h172l-184 -158h-124z" />
    <glyph glyph-name="uni013B" unicode="&#x13b;" horiz-adv-x="687" 
d="M210 647v-536h430v-111h-563v647h133zM466 -113q0 -54 -33.5 -88.5t-97.5 -47.5l-12 34q21 10 36 23.5t16 27.5l-62 11v92h153v-52z" />
    <glyph glyph-name="uni013C" unicode="&#x13c;" horiz-adv-x="271" 
d="M70 697h130v-697h-130v697zM212 -113q0 -54 -33.5 -88.5t-97.5 -47.5l-12 34q21 10 36 23.5t16 27.5l-62 11v92h153v-52z" />
    <glyph glyph-name="Lcaron" unicode="&#x13d;" horiz-adv-x="687" 
d="M210 647v-536h430v-111h-563v647h133zM480 487h-69l-42 124v86h153v-86z" />
    <glyph glyph-name="lcaron" unicode="&#x13e;" horiz-adv-x="420" 
d="M70 697h130v-697h-130v697zM359 487h-69l-42 124v86h153v-86z" />
    <glyph glyph-name="Ldot" unicode="&#x13f;" horiz-adv-x="687" 
d="M210 647v-536h430v-111h-563v647h133zM503 422v-114h-151v114h151z" />
    <glyph glyph-name="ldot" unicode="&#x140;" horiz-adv-x="457" 
d="M70 697h130v-697h-130v697zM386 384v-114h-151v114h151z" />
    <glyph glyph-name="Lslash" unicode="&#x141;" horiz-adv-x="687" 
d="M210 647v-536h430v-111h-563v647h133zM377 506l37 -53l-410 -280l-35 53z" />
    <glyph glyph-name="lslash" unicode="&#x142;" horiz-adv-x="292" 
d="M274 476l37 -53l-101 -69v-354h-130v265l-65 -44l-35 53l100 69v354h130v-265z" />
    <glyph glyph-name="Nacute" unicode="&#x143;" horiz-adv-x="901" 
d="M691 0l-481 470v-470h-133v647h133l481 -474v474h133v-647h-133zM387 725l136 158h172l-184 -158h-124z" />
    <glyph glyph-name="nacute" unicode="&#x144;" horiz-adv-x="693" 
d="M60 497h130v-143q13 40 44 75t78 57t109 22q61 0 109.5 -21.5t76.5 -66.5t28 -116v-304h-130v281q0 63 -30.5 92.5t-99.5 29.5q-45 0 -82.5 -15t-64.5 -39.5t-38 -52.5v-296h-130v497zM310 601l136 158h172l-184 -158h-124z" />
    <glyph glyph-name="uni0145" unicode="&#x145;" horiz-adv-x="901" 
d="M691 0l-481 470v-470h-133v647h133l481 -474v474h133v-647h-133zM536 -113q0 -54 -33.5 -88.5t-97.5 -47.5l-12 34q21 10 36 23.5t16 27.5l-62 11v92h153v-52z" />
    <glyph glyph-name="uni0146" unicode="&#x146;" horiz-adv-x="693" 
d="M60 497h130v-143q13 40 44 75t78 57t109 22q61 0 109.5 -21.5t76.5 -66.5t28 -116v-304h-130v281q0 63 -30.5 92.5t-99.5 29.5q-45 0 -82.5 -15t-64.5 -39.5t-38 -52.5v-296h-130v497zM424 -113q0 -54 -33.5 -88.5t-97.5 -47.5l-12 34q21 10 36 23.5t16 27.5l-62 11v92
h153v-52z" />
    <glyph glyph-name="Ncaron" unicode="&#x147;" horiz-adv-x="901" 
d="M691 0l-481 470v-470h-133v647h133l481 -474v474h133v-647h-133zM687 883l-159 -158h-136l-159 158h141l86 -88l86 88h141z" />
    <glyph glyph-name="ncaron" unicode="&#x148;" horiz-adv-x="693" 
d="M60 497h130v-143q13 40 44 75t78 57t109 22q61 0 109.5 -21.5t76.5 -66.5t28 -116v-304h-130v281q0 63 -30.5 92.5t-99.5 29.5q-45 0 -82.5 -15t-64.5 -39.5t-38 -52.5v-296h-130v497zM610 759l-159 -158h-136l-159 158h141l86 -88l86 88h141z" />
    <glyph glyph-name="Eng" unicode="&#x14a;" horiz-adv-x="901" 
d="M824 -33q0 -54 -24 -89t-63.5 -54t-84.5 -26.5t-87 -7.5v108q33 0 62 8t46.5 30t17.5 64l-481 470v-470h-133v647h133l481 -474v474h133v-680z" />
    <glyph glyph-name="eng" unicode="&#x14b;" horiz-adv-x="693" 
d="M60 0v497h130v-143q13 40 44 75t78 57t109 22q61 0 109.5 -21.5t76.5 -66.5t28 -116v-340q0 -85 -63 -130.5t-200 -45.5v107q71 0 102 25t31 80v281q0 63 -30.5 92.5t-99.5 29.5q-45 0 -82.5 -15t-64.5 -39.5t-38 -52.5v-296h-130z" />
    <glyph glyph-name="Omacron" unicode="&#x14c;" horiz-adv-x="924" 
d="M462 -13q-129 0 -220.5 40.5t-140 115.5t-48.5 180q0 106 48.5 181t140 115.5t220.5 40.5q130 0 221 -40.5t139.5 -115.5t48.5 -181q0 -105 -48.5 -180t-139.5 -115.5t-221 -40.5zM462 102q80 0 140.5 24t95 73t34.5 124t-34.5 124t-95 73.5t-140.5 24.5
q-79 0 -141 -24.5t-97 -73.5t-35 -124t35 -124t97 -73t141 -24zM309 737v81h307v-81h-307z" />
    <glyph glyph-name="omacron" unicode="&#x14d;" horiz-adv-x="704" 
d="M353 -12q-94 0 -165.5 30t-111.5 87.5t-40 141.5t40 142.5t111.5 88.5t165.5 30t164.5 -30t110.5 -88.5t40 -142.5t-40 -141.5t-110.5 -87.5t-164.5 -30zM353 88q52 0 93.5 18.5t65.5 54t24 86.5t-24 87.5t-65 55.5t-94 19q-52 0 -94 -19t-66.5 -55t-24.5 -88
q0 -76 53 -117.5t132 -41.5zM200 609v81h307v-81h-307z" />
    <glyph glyph-name="Ohungarumlaut" unicode="&#x150;" horiz-adv-x="924" 
d="M462 -13q-129 0 -220.5 40.5t-140 115.5t-48.5 180q0 106 48.5 181t140 115.5t220.5 40.5q130 0 221 -40.5t139.5 -115.5t48.5 -181q0 -105 -48.5 -180t-139.5 -115.5t-221 -40.5zM462 102q80 0 140.5 24t95 73t34.5 124t-34.5 124t-95 73.5t-140.5 24.5
q-79 0 -141 -24.5t-97 -73.5t-35 -124t35 -124t97 -73t141 -24zM502 729l121 158h136l-155 -158h-102zM286 729l115 158h136l-149 -158h-102z" />
    <glyph glyph-name="ohungarumlaut" unicode="&#x151;" horiz-adv-x="704" 
d="M353 -12q-94 0 -165.5 30t-111.5 87.5t-40 141.5t40 142.5t111.5 88.5t165.5 30t164.5 -30t110.5 -88.5t40 -142.5t-40 -141.5t-110.5 -87.5t-164.5 -30zM353 88q52 0 93.5 18.5t65.5 54t24 86.5t-24 87.5t-65 55.5t-94 19q-52 0 -94 -19t-66.5 -55t-24.5 -88
q0 -76 53 -117.5t132 -41.5zM393 601l121 158h136l-155 -158h-102zM177 601l115 158h136l-149 -158h-102z" />
    <glyph glyph-name="OE" unicode="&#x152;" horiz-adv-x="1277" 
d="M462 -13q-129 0 -220.5 40.5t-140 115.5t-48.5 180q0 106 48.5 181t140 115.5t220.5 40.5q72 0 134 -13h620v-112h-416q56 -66 68 -160h257v-105h-257q-13 -93 -68 -158h417v-112h-621q-62 -13 -134 -13zM462 102q80 0 140.5 24t95 73t34.5 124t-34.5 124t-95 73.5
t-140.5 24.5q-79 0 -141 -24.5t-97 -73.5t-35 -124t35 -124t97 -73t141 -24z" />
    <glyph glyph-name="oe" unicode="&#x153;" horiz-adv-x="1230" 
d="M353 -12q-94 0 -165.5 30t-111.5 87.5t-40 141.5t40 142.5t111.5 88.5t165.5 30t164.5 -30t110.5 -88.5t40 -142.5t-40 -141.5t-110.5 -87.5t-164.5 -30zM353 88q52 0 93.5 18.5t65.5 54t24 86.5t-24 87.5t-65 55.5t-94 19q-52 0 -94 -19t-66.5 -55t-24.5 -88
q0 -76 53 -117.5t132 -41.5zM1065 165h126q-13 -76 -83 -126.5t-197 -50.5q-95 0 -168 30.5t-114 88.5t-41 140t40 140.5t111.5 89.5t167.5 31q146 0 219.5 -69.5t66.5 -214.5h-474q8 -58 56 -97t133 -39q62 0 103.5 21.5t53.5 55.5zM901 409q-72 0 -117 -31.5t-58 -77.5
h338q-5 50 -47.5 79.5t-115.5 29.5z" />
    <glyph glyph-name="Racute" unicode="&#x154;" horiz-adv-x="826" 
d="M77 0v647h439q112 0 180 -47t68 -149q0 -54 -21.5 -88.5t-58 -53.5t-82.5 -27q75 -6 111.5 -32.5t36.5 -95.5v-154h-133v145q0 37 -13 57.5t-46.5 28.5t-96.5 8h-251v-239h-133zM210 343h306q56 0 85.5 27t29.5 73q0 90 -115 90h-306v-190zM338 725l136 158h172
l-184 -158h-124z" />
    <glyph glyph-name="racute" unicode="&#x155;" horiz-adv-x="401" 
d="M60 497h130v-149q7 23 21.5 50.5t37.5 52.5t55.5 41t76.5 16v-118q-50 0 -88.5 -17.5t-64 -44.5t-38.5 -54v-274h-130v497zM166 601l136 158h172l-184 -158h-124z" />
    <glyph glyph-name="uni0156" unicode="&#x156;" horiz-adv-x="826" 
d="M77 0v647h439q112 0 180 -47t68 -149q0 -54 -21.5 -88.5t-58 -53.5t-82.5 -27q75 -6 111.5 -32.5t36.5 -95.5v-154h-133v145q0 37 -13 57.5t-46.5 28.5t-96.5 8h-251v-239h-133zM210 343h306q56 0 85.5 27t29.5 73q0 90 -115 90h-306v-190zM481 -118q0 -54 -33.5 -88.5
t-97.5 -47.5l-12 34q21 10 36 23.5t16 27.5l-62 11v92h153v-52z" />
    <glyph glyph-name="uni0157" unicode="&#x157;" horiz-adv-x="401" 
d="M60 497h130v-149q7 23 21.5 50.5t37.5 52.5t55.5 41t76.5 16v-118q-50 0 -88.5 -17.5t-64 -44.5t-38.5 -54v-274h-130v497zM202 -113q0 -54 -33.5 -88.5t-97.5 -47.5l-12 34q21 10 36 23.5t16 27.5l-62 11v92h153v-52z" />
    <glyph glyph-name="Rcaron" unicode="&#x158;" horiz-adv-x="826" 
d="M77 0v647h439q112 0 180 -47t68 -149q0 -54 -21.5 -88.5t-58 -53.5t-82.5 -27q75 -6 111.5 -32.5t36.5 -95.5v-154h-133v145q0 37 -13 57.5t-46.5 28.5t-96.5 8h-251v-239h-133zM210 343h306q56 0 85.5 27t29.5 73q0 90 -115 90h-306v-190zM638 883l-159 -158h-136
l-159 158h141l86 -88l86 88h141z" />
    <glyph glyph-name="rcaron" unicode="&#x159;" horiz-adv-x="401" 
d="M60 497h130v-149q7 23 21.5 50.5t37.5 52.5t55.5 41t76.5 16v-118q-50 0 -88.5 -17.5t-64 -44.5t-38.5 -54v-274h-130v497zM466 759l-159 -158h-136l-159 158h141l86 -88l86 88h141z" />
    <glyph glyph-name="Sacute" unicode="&#x15a;" horiz-adv-x="694" 
d="M34 218h135q4 -34 31.5 -61.5t72.5 -43t101 -15.5q76 0 112.5 24t36.5 66q0 27 -20 41.5t-63 24t-113 19.5q-73 11 -135 33.5t-99 62t-37 100.5q0 86 73.5 138.5t212.5 52.5q140 0 215.5 -59.5t73.5 -163.5h-130q-4 59 -49.5 85t-114.5 26q-64 0 -105.5 -19t-41.5 -65
q0 -24 18.5 -40t64.5 -27.5t128 -24.5q76 -11 132.5 -31.5t88.5 -58.5t32 -102q0 -88 -69 -141t-220 -53q-90 0 -154 24t-104 60.5t-58 76t-15 71.5zM269 729l136 158h172l-184 -158h-124z" />
    <glyph glyph-name="sacute" unicode="&#x15b;" horiz-adv-x="564" 
d="M40 165h120q11 -34 45.5 -55.5t90.5 -21.5q57 0 76.5 16t19.5 42q0 32 -30 43t-92 21q-56 10 -105.5 25t-79.5 44t-30 79q0 48 30.5 81.5t83 51t118.5 17.5q111 0 165.5 -47.5t55.5 -122.5h-115q-8 37 -32 53.5t-74 16.5q-49 0 -74 -15t-25 -41q0 -31 34.5 -43t103.5 -23
q52 -11 97 -25.5t73.5 -42.5t28.5 -81q0 -72 -61 -110.5t-167 -38.5q-79 0 -130.5 20.5t-80 50.5t-39 59t-7.5 47zM210 601l136 158h172l-184 -158h-124z" />
    <glyph glyph-name="Scedilla" unicode="&#x15e;" horiz-adv-x="694" 
d="M34 218h135q4 -34 31.5 -61.5t72.5 -43t101 -15.5q76 0 112.5 24t36.5 66q0 27 -20 41.5t-63 24t-113 19.5q-73 11 -135 33.5t-99 62t-37 100.5q0 86 73.5 138.5t212.5 52.5q140 0 215.5 -59.5t73.5 -163.5h-130q-4 59 -49.5 85t-114.5 26q-64 0 -105.5 -19t-41.5 -65
q0 -24 18.5 -40t64.5 -27.5t128 -24.5q76 -11 132.5 -31.5t88.5 -58.5t32 -102q0 -84 -62.5 -136t-197.5 -57v-35q32 -11 53 -32.5t21 -58.5q0 -42 -39.5 -73.5t-118.5 -31.5q-50 0 -85.5 17.5t-53.5 46t-16 59.5h94q2 -5 6.5 -15t16.5 -18t35 -8q28 0 39.5 12t11.5 28
q0 7 -4.5 17t-19.5 20t-49 16v61q-68 11 -117 36.5t-79.5 59t-44 68t-10.5 62.5z" />
    <glyph glyph-name="scedilla" unicode="&#x15f;" horiz-adv-x="564" 
d="M40 165h120q11 -34 45.5 -55.5t90.5 -21.5q57 0 76.5 16t19.5 42q0 32 -30 43t-92 21q-56 10 -105.5 25t-79.5 44t-30 79q0 48 30.5 81.5t83 51t118.5 17.5q111 0 165.5 -47.5t55.5 -122.5h-115q-8 37 -32 53.5t-74 16.5q-49 0 -74 -15t-25 -41q0 -31 34.5 -43t103.5 -23
q52 -11 97 -25.5t73.5 -42.5t28.5 -81q0 -62 -45.5 -99t-125.5 -47v-44q32 -11 53 -32.5t21 -58.5q0 -42 -39.5 -73.5t-118.5 -31.5q-50 0 -85.5 17.5t-53.5 46t-16 59.5h94q2 -5 6.5 -15t16.5 -18t35 -8q28 0 39.5 12t11.5 28q0 7 -4.5 17t-19.5 20t-49 16v65
q-63 7 -104 28.5t-64 49.5t-31 54t-6 42z" />
    <glyph glyph-name="Scaron" unicode="&#x160;" horiz-adv-x="694" 
d="M34 218h135q4 -34 31.5 -61.5t72.5 -43t101 -15.5q76 0 112.5 24t36.5 66q0 27 -20 41.5t-63 24t-113 19.5q-73 11 -135 33.5t-99 62t-37 100.5q0 86 73.5 138.5t212.5 52.5q140 0 215.5 -59.5t73.5 -163.5h-130q-4 59 -49.5 85t-114.5 26q-64 0 -105.5 -19t-41.5 -65
q0 -24 18.5 -40t64.5 -27.5t128 -24.5q76 -11 132.5 -31.5t88.5 -58.5t32 -102q0 -88 -69 -141t-220 -53q-90 0 -154 24t-104 60.5t-58 76t-15 71.5zM569 887l-159 -158h-136l-159 158h141l86 -88l86 88h141z" />
    <glyph glyph-name="scaron" unicode="&#x161;" horiz-adv-x="564" 
d="M40 165h120q11 -34 45.5 -55.5t90.5 -21.5q57 0 76.5 16t19.5 42q0 32 -30 43t-92 21q-56 10 -105.5 25t-79.5 44t-30 79q0 48 30.5 81.5t83 51t118.5 17.5q111 0 165.5 -47.5t55.5 -122.5h-115q-8 37 -32 53.5t-74 16.5q-49 0 -74 -15t-25 -41q0 -31 34.5 -43t103.5 -23
q52 -11 97 -25.5t73.5 -42.5t28.5 -81q0 -72 -61 -110.5t-167 -38.5q-79 0 -130.5 20.5t-80 50.5t-39 59t-7.5 47zM510 759l-159 -158h-136l-159 158h141l86 -88l86 88h141z" />
    <glyph glyph-name="uni0162" unicode="&#x162;" horiz-adv-x="722" 
d="M266 -116q2 -5 6.5 -15t16.5 -18t35 -8q28 0 39.5 12t11.5 28q0 7 -4.5 17t-19.5 20t-49 16v64h-7v536h-275v111h682v-111h-274v-536h-17v-43q32 -11 53 -32.5t21 -58.5q0 -42 -39.5 -73.5t-118.5 -31.5q-50 0 -85.5 17.5t-53.5 46t-16 59.5h94z" />
    <glyph glyph-name="uni0163" unicode="&#x163;" horiz-adv-x="434" 
d="M123 -116q2 -5 6.5 -15t16.5 -18t35 -8q28 0 39.5 12t11.5 28q0 7 -4.5 17t-19.5 20t-49 16v64h-6v396h-128v101h128v136h130v-136h128v-101h-128v-396h-15v-43q32 -11 53 -32.5t21 -58.5q0 -42 -39.5 -73.5t-118.5 -31.5q-50 0 -85.5 17.5t-53.5 46t-16 59.5h94z" />
    <glyph glyph-name="Tcaron" unicode="&#x164;" horiz-adv-x="722" 
d="M20 647h682v-111h-274v-536h-133v536h-275v111zM591 883l-159 -158h-136l-159 158h141l86 -88l86 88h141z" />
    <glyph glyph-name="tcaron" unicode="&#x165;" horiz-adv-x="433" 
d="M25 497h128v136h130v-136h128v-101h-128v-396h-130v396h-128v101zM412.536 546h-61.8105l-37.624 124v86h137.059v-86z" />
    <glyph glyph-name="Tbar" unicode="&#x166;" horiz-adv-x="722" 
d="M20 361h275v175h-275v111h682v-111h-274v-175h274v-75h-274v-286h-133v286h-275v75z" />
    <glyph glyph-name="tbar" unicode="&#x167;" horiz-adv-x="433" 
d="M24 323h129v73h-128v101h128v136h130v-136h128v-101h-128v-73h126v-75h-126v-248h-130v248h-129v75z" />
    <glyph glyph-name="Umacron" unicode="&#x16a;" horiz-adv-x="881" 
d="M671 286v361h133v-375q0 -81 -29 -135.5t-79 -87.5t-115.5 -47.5t-138.5 -14.5q-76 0 -142.5 14.5t-116.5 47.5t-78 87.5t-28 135.5v375h133v-361q0 -76 30 -115.5t82.5 -54t119.5 -14.5q65 0 116.5 14.5t82 54t30.5 115.5zM289 733v81h307v-81h-307z" />
    <glyph glyph-name="umacron" unicode="&#x16b;" horiz-adv-x="693" 
d="M635 0h-130v170q-8 -25 -24 -56.5t-42.5 -60t-65 -47t-91.5 -18.5q-41 0 -80.5 10t-71.5 33.5t-51 63.5t-19 101v301h130v-279q0 -73 35 -99t97 -26q48 0 84.5 19.5t61 48.5t37.5 59v277h130v-497zM204 609v81h307v-81h-307z" />
    <glyph glyph-name="Uring" unicode="&#x16e;" horiz-adv-x="881" 
d="M671 286v361h133v-375q0 -81 -29 -135.5t-79 -87.5t-115.5 -47.5t-138.5 -14.5q-76 0 -142.5 14.5t-116.5 47.5t-78 87.5t-28 135.5v375h133v-361q0 -76 30 -115.5t82.5 -54t119.5 -14.5q65 0 116.5 14.5t82 54t30.5 115.5zM442 701q-65 0 -103.5 30.5t-38.5 81.5
q0 50 38.5 80.5t103.5 30.5t103 -30.5t38 -80.5q0 -51 -38 -81.5t-103 -30.5zM442 759q35 0 50.5 13.5t15.5 40.5q0 26 -15.5 39.5t-50.5 13.5q-36 0 -51.5 -13.5t-15.5 -39.5q0 -27 15.5 -40.5t51.5 -13.5z" />
    <glyph glyph-name="uring" unicode="&#x16f;" horiz-adv-x="693" 
d="M635 0h-130v170q-8 -25 -24 -56.5t-42.5 -60t-65 -47t-91.5 -18.5q-41 0 -80.5 10t-71.5 33.5t-51 63.5t-19 101v301h130v-279q0 -73 35 -99t97 -26q48 0 84.5 19.5t61 48.5t37.5 59v277h130v-497zM357 577q-65 0 -103.5 30.5t-38.5 81.5q0 50 38.5 80.5t103.5 30.5
t103 -30.5t38 -80.5q0 -51 -38 -81.5t-103 -30.5zM357 635q35 0 50.5 13.5t15.5 40.5q0 26 -15.5 39.5t-50.5 13.5q-36 0 -51.5 -13.5t-15.5 -39.5q0 -27 15.5 -40.5t51.5 -13.5z" />
    <glyph glyph-name="Uhungarumlaut" unicode="&#x170;" horiz-adv-x="881" 
d="M671 286v361h133v-375q0 -81 -29 -135.5t-79 -87.5t-115.5 -47.5t-138.5 -14.5q-76 0 -142.5 14.5t-116.5 47.5t-78 87.5t-28 135.5v375h133v-361q0 -76 30 -115.5t82.5 -54t119.5 -14.5q65 0 116.5 14.5t82 54t30.5 115.5zM491 662l121 158h136l-155 -158h-102zM275 662
l115 158h136l-149 -158h-102z" />
    <glyph glyph-name="uhungarumlaut" unicode="&#x171;" horiz-adv-x="693" 
d="M635 0h-130v170q-8 -25 -24 -56.5t-42.5 -60t-65 -47t-91.5 -18.5q-41 0 -80.5 10t-71.5 33.5t-51 63.5t-19 101v301h130v-279q0 -73 35 -99t97 -26q48 0 84.5 19.5t61 48.5t37.5 59v277h130v-497zM397 601l121 158h136l-155 -158h-102zM181 601l115 158h136l-149 -158
h-102z" />
    <glyph glyph-name="Uogonek" unicode="&#x172;" horiz-adv-x="881" 
d="M643 -228q-102 0 -162 33.5t-60 91.5q0 32 17 54t46 37q-21 -1 -42 -1q-76 0 -142.5 14.5t-116.5 47.5t-78 87.5t-28 135.5v375h133v-361q0 -76 30 -115.5t82.5 -54t119.5 -14.5q65 0 116.5 14.5t82 54t30.5 115.5v361h133v-375q0 -110 -52.5 -172t-135.5 -89v-2
q-41 -16 -67.5 -37.5t-26.5 -54.5q0 -37 33 -56.5t88 -19.5v-69z" />
    <glyph glyph-name="uogonek" unicode="&#x173;" horiz-adv-x="693" 
d="M635 0h-46q-41 -7 -67.5 -26t-26.5 -53q0 -36 33 -55.5t88 -19.5v-69q-102 0 -162 33.5t-60 91.5q0 43 30.5 68.5t80.5 38.5v161q-8 -25 -24 -56.5t-42.5 -60t-65 -47t-91.5 -18.5q-41 0 -80.5 10t-71.5 33.5t-51 63.5t-19 101v301h130v-279q0 -73 35 -99t97 -26
q48 0 84.5 19.5t61 48.5t37.5 59v277h130v-497z" />
    <glyph glyph-name="Wcircumflex" unicode="&#x174;" horiz-adv-x="1300" 
d="M293 0l-273 647h147l209 -519l199 519h153l199 -519l209 519h144l-270 -647h-163l-195 507l-196 -507h-163zM722 899l162 -158h-141l-89 90l-90 -90h-141l163 158h136z" />
    <glyph glyph-name="wcircumflex" unicode="&#x175;" horiz-adv-x="988" 
d="M631 0l-138 347l-143 -347h-122l-213 497h143l135 -352l126 352h149l121 -351l140 351h143l-219 -497h-122zM559 759l162 -158h-141l-89 90l-90 -90h-141l163 158h136z" />
    <glyph glyph-name="Ycircumflex" unicode="&#x176;" horiz-adv-x="740" 
d="M721 647l-284 -443v-204h-134v204l-284 443h154l199 -322l195 322h154zM438 883l162 -158h-141l-89 90l-90 -90h-141l163 158h136z" />
    <glyph glyph-name="ycircumflex" unicode="&#x177;" horiz-adv-x="639" 
d="M15 497h138l164 -365l167 365h139l-344 -697h-135l110 205zM388 759l162 -158h-141l-89 90l-90 -90h-141l163 158h136z" />
    <glyph glyph-name="Ydieresis" unicode="&#x178;" horiz-adv-x="740" 
d="M721 647l-284 -443v-204h-134v204l-284 443h154l199 -322l195 322h154zM337 840v-114h-151v114h151zM554 840v-114h-151v114h151z" />
    <glyph glyph-name="Zacute" unicode="&#x179;" horiz-adv-x="821" 
d="M63 647h695v-111l-531 -425h531v-111h-695v111l531 425h-531v111zM341 741l136 158h172l-184 -158h-124z" />
    <glyph glyph-name="zacute" unicode="&#x17a;" horiz-adv-x="622" 
d="M559 398l-351 -300h358v-98h-509v98l351 300h-351v99h502v-99zM239 601l136 158h172l-184 -158h-124z" />
    <glyph glyph-name="Zdotaccent" unicode="&#x17b;" horiz-adv-x="821" 
d="M63 647h695v-111l-531 -425h531v-111h-695v111l531 425h-531v111zM487 857v-114h-151v114h151z" />
    <glyph glyph-name="zdotaccent" unicode="&#x17c;" horiz-adv-x="622" 
d="M559 398l-351 -300h358v-98h-509v98l351 300h-351v99h502v-99zM385 717v-114h-151v114h151z" />
    <glyph glyph-name="Zcaron" unicode="&#x17d;" horiz-adv-x="821" 
d="M63 647h695v-111l-531 -425h531v-111h-695v111l531 425h-531v111zM641 899l-159 -158h-136l-159 158h141l86 -88l86 88h141z" />
    <glyph glyph-name="zcaron" unicode="&#x17e;" horiz-adv-x="622" 
d="M559 398l-351 -300h358v-98h-509v98l351 300h-351v99h502v-99zM539 759l-159 -158h-136l-159 158h141l86 -88l86 88h141z" />
    <glyph glyph-name="florin" unicode="&#x192;" horiz-adv-x="905" 
d="M251 364h136v7q0 106 33.5 169t91 91.5t129.5 28.5q110 0 168.5 -56.5t58.5 -144.5h-124q-1 40 -27 65t-76 25q-34 0 -62.5 -14.5t-45 -53t-16.5 -110.5v-7h129v-69h-129v-27q0 -98 -31.5 -159.5t-86.5 -90t-126 -28.5q-70 0 -123.5 26.5t-83 71.5t-29.5 100h124
q1 -40 32.5 -63.5t79.5 -23.5q33 0 59 14t40.5 50.5t14.5 102.5v27h-136v69z" />
    <glyph glyph-name="uni0218" unicode="&#x218;" horiz-adv-x="694" 
d="M34 218h135q4 -34 31.5 -61.5t72.5 -43t101 -15.5q76 0 112.5 24t36.5 66q0 27 -20 41.5t-63 24t-113 19.5q-73 11 -135 33.5t-99 62t-37 100.5q0 86 73.5 138.5t212.5 52.5q140 0 215.5 -59.5t73.5 -163.5h-130q-4 59 -49.5 85t-114.5 26q-64 0 -105.5 -19t-41.5 -65
q0 -24 18.5 -40t64.5 -27.5t128 -24.5q76 -11 132.5 -31.5t88.5 -58.5t32 -102q0 -88 -69 -141t-220 -53q-90 0 -154 24t-104 60.5t-58 76t-15 71.5zM420 -118q0 -54 -33.5 -88.5t-97.5 -47.5l-12 34q21 10 36 23.5t16 27.5l-62 11v92h153v-52z" />
    <glyph glyph-name="uni0219" unicode="&#x219;" horiz-adv-x="564" 
d="M40 165h120q11 -34 45.5 -55.5t90.5 -21.5q57 0 76.5 16t19.5 42q0 32 -30 43t-92 21q-56 10 -105.5 25t-79.5 44t-30 79q0 48 30.5 81.5t83 51t118.5 17.5q111 0 165.5 -47.5t55.5 -122.5h-115q-8 37 -32 53.5t-74 16.5q-49 0 -74 -15t-25 -41q0 -31 34.5 -43t103.5 -23
q52 -11 97 -25.5t73.5 -42.5t28.5 -81q0 -72 -61 -110.5t-167 -38.5q-79 0 -130.5 20.5t-80 50.5t-39 59t-7.5 47zM380 -123q0 -54 -33.5 -88.5t-97.5 -47.5l-12 34q21 10 36 23.5t16 27.5l-62 11v92h153v-52z" />
    <glyph glyph-name="uni021A" unicode="&#x21a;" horiz-adv-x="722" 
d="M20 647h682v-111h-274v-536h-133v536h-275v111zM437 -113q0 -54 -33.5 -88.5t-97.5 -47.5l-12 34q21 10 36 23.5t16 27.5l-62 11v92h153v-52z" />
    <glyph glyph-name="uni021B" unicode="&#x21b;" horiz-adv-x="434" 
d="M25 497h128v136h130v-136h128v-101h-128v-396h-130v396h-128v101zM294 -113q0 -54 -33.5 -88.5t-97.5 -47.5l-12 34q21 10 36 23.5t16 27.5l-62 11v92h153v-52z" />
    <glyph glyph-name="uni022E" unicode="&#x22e;" horiz-adv-x="924" 
d="M462 -13q-129 0 -220.5 40.5t-140 115.5t-48.5 180q0 106 48.5 181t140 115.5t220.5 40.5q130 0 221 -40.5t139.5 -115.5t48.5 -181q0 -105 -48.5 -180t-139.5 -115.5t-221 -40.5zM462 102q80 0 140.5 24t95 73t34.5 124t-34.5 124t-95 73.5t-140.5 24.5
q-79 0 -141 -24.5t-97 -73.5t-35 -124t35 -124t97 -73t141 -24zM538 845v-114h-151v114h151z" />
    <glyph glyph-name="circumflex" unicode="&#x2c6;" horiz-adv-x="668" 
d="M402 759l162 -158h-141l-89 90l-90 -90h-141l163 158h136z" />
    <glyph glyph-name="caron" unicode="&#x2c7;" horiz-adv-x="662" 
d="M561 759l-159 -158h-136l-159 158h141l86 -88l86 88h141z" />
    <glyph glyph-name="breve" unicode="&#x2d8;" horiz-adv-x="639" 
d="M529 730q-9 -65 -59 -108t-151 -43q-100 0 -150 43t-60 108h95q8 -34 35.5 -52.5t79.5 -18.5q53 0 80.5 18.5t34.5 52.5h95z" />
    <glyph glyph-name="dotaccent" unicode="&#x2d9;" horiz-adv-x="304" 
d="M226 717v-114h-151v114h151z" />
    <glyph glyph-name="ring" unicode="&#x2da;" horiz-adv-x="490" 
d="M245 577q-65 0 -103.5 30.5t-38.5 81.5q0 50 38.5 80.5t103.5 30.5t103 -30.5t38 -80.5q0 -51 -38 -81.5t-103 -30.5zM245 635q35 0 50.5 13.5t15.5 40.5q0 26 -15.5 39.5t-50.5 13.5q-36 0 -51.5 -13.5t-15.5 -39.5q0 -27 15.5 -40.5t51.5 -13.5z" />
    <glyph glyph-name="ogonek" unicode="&#x2db;" horiz-adv-x="422" 
d="M322 -223q-102 0 -162 33.5t-60 91.5q0 40 26 64.5t70 37.5t99 18v-22q-41 -7 -67.5 -26t-26.5 -53q0 -36 33 -55.5t88 -19.5v-69z" />
    <glyph glyph-name="tilde" unicode="&#x2dc;" horiz-adv-x="673" 
d="M423 600q-30 0 -53 9t-43 21.5t-40 21.5t-44 9q-32 0 -44.5 -19.5t-21.5 -40.5h-92q8 37 26.5 68.5t48.5 51t71 19.5q31 0 54.5 -9t44 -21.5t39.5 -21.5t41 -9q33 0 46 20.5t21 39.5h93q-8 -36 -26.5 -68t-48.5 -51.5t-72 -19.5z" />
    <glyph glyph-name="hungarumlaut" unicode="&#x2dd;" horiz-adv-x="638" 
d="M316 601l121 158h136l-155 -158h-102zM100 601l115 158h136l-149 -158h-102z" />
    <glyph glyph-name="gravecomb" unicode="&#x300;" 
d="M284 601l-184 158h172l136 -158h-124z" />
    <glyph glyph-name="acutecomb" unicode="&#x301;" 
d="M95 601l136 158h172l-184 -158h-124z" />
    <glyph glyph-name="uni0302" unicode="&#x302;" 
d="M402 759l162 -158h-141l-89 90l-90 -90h-141l163 158h136z" />
    <glyph glyph-name="tildecomb" unicode="&#x303;" 
d="M423 600q-30 0 -53 9t-43 21.5t-40 21.5t-44 9q-32 0 -44.5 -19.5t-21.5 -40.5h-92q8 37 26.5 68.5t48.5 51t71 19.5q31 0 54.5 -9t44 -21.5t39.5 -21.5t41 -9q33 0 46 20.5t21 39.5h93q-8 -36 -26.5 -68t-48.5 -51.5t-72 -19.5z" />
    <glyph glyph-name="uni0304" unicode="&#x304;" 
d="M100 609v81h307v-81h-307z" />
    <glyph glyph-name="uni0306" unicode="&#x306;" 
d="M529 730q-9 -65 -59 -108t-151 -43q-100 0 -150 43t-60 108h95q8 -34 35.5 -52.5t79.5 -18.5q53 0 80.5 18.5t34.5 52.5h95z" />
    <glyph glyph-name="uni0307" unicode="&#x307;" 
d="M226 717v-114h-151v114h151z" />
    <glyph glyph-name="uni0308" unicode="&#x308;" 
d="M231 716v-114h-151v114h151zM448 716v-114h-151v114h151z" />
    <glyph glyph-name="uni030A" unicode="&#x30a;" 
d="M245 577q-65 0 -103.5 30.5t-38.5 81.5q0 50 38.5 80.5t103.5 30.5t103 -30.5t38 -80.5q0 -51 -38 -81.5t-103 -30.5zM245 635q35 0 50.5 13.5t15.5 40.5q0 26 -15.5 39.5t-50.5 13.5q-36 0 -51.5 -13.5t-15.5 -39.5q0 -27 15.5 -40.5t51.5 -13.5z" />
    <glyph glyph-name="uni030B" unicode="&#x30b;" 
d="M316 601l121 158h136l-155 -158h-102zM100 601l115 158h136l-149 -158h-102z" />
    <glyph glyph-name="uni030C" unicode="&#x30c;" 
d="M561 759l-159 -158h-136l-159 158h141l86 -88l86 88h141z" />
    <glyph glyph-name="uni0312" unicode="&#x312;" 
d="M363 759l12 -34q-16 -7 -33 -21.5t-18 -29.5l61 -11v-92h-153v52q0 110 131 136z" />
    <glyph glyph-name="uni0326" unicode="&#x326;" 
d="M183 -113q0 -54 -33.5 -88.5t-97.5 -47.5l-12 34q21 10 36 23.5t16 27.5l-62 11v92h153v-52z" />
    <glyph glyph-name="uni0327" unicode="&#x327;" 
d="M346 17v-60q32 -11 53 -32.5t21 -58.5q0 -42 -39.5 -73.5t-118.5 -31.5q-50 0 -85.5 17.5t-53.5 46t-16 59.5h94q2 -5 6.5 -15t16.5 -18t35 -8q28 0 39.5 12t11.5 28q0 7 -4.5 17t-19.5 20t-49 16v81h109z" />
    <glyph glyph-name="uni0328" unicode="&#x328;" 
d="M322 -223q-102 0 -162 33.5t-60 91.5q0 40 26 64.5t70 37.5t99 18v-22q-41 -7 -67.5 -26t-26.5 -53q0 -36 33 -55.5t88 -19.5v-69z" />
    <glyph glyph-name="uni0335" unicode="&#x335;" 
d="M75 426h359v-69h-359v69z" />
    <glyph glyph-name="uni0336" unicode="&#x336;" 
d="M75 424h400v-60h-400v60z" />
    <glyph glyph-name="uni0337" unicode="&#x337;" 
d="M483 564l37 -53l-410 -280l-35 53z" />
    <glyph glyph-name="uni0338" unicode="&#x338;" 
d="M471 720l54 -30l-398 -719l-52 32z" />
    <glyph glyph-name="uni0394" unicode="&#x394;" horiz-adv-x="747" 
d="M374 700l333 -700h-667zM374 468l-162 -366h323z" />
    <glyph glyph-name="uni03A9" unicode="&#x3a9;" horiz-adv-x="814" 
d="M46 0v102l194 -6v32q-103 27 -161.5 88.5t-58.5 149.5q0 81 47.5 147.5t134.5 106.5t205 40t205 -40t134.5 -106.5t47.5 -147.5q0 -69 -33 -118t-83 -78t-102 -42v-32l192 6v-102h-296v152q47 16 90.5 41.5t71 64.5t27.5 95q0 84 -63 138.5t-191 54.5
q-127 0 -190.5 -54.5t-63.5 -138.5q0 -58 28.5 -97.5t73.5 -64t93 -39.5v-152h-302z" />
    <glyph glyph-name="uni03BC" unicode="&#x3bc;" horiz-adv-x="759" 
d="M731 -7q-120 0 -172 45t-54 125q-6 -25 -19.5 -55.5t-36 -57.5t-56.5 -44.5t-83 -17.5q-83 0 -120 58v-246h-130v697h130v-273q0 -51 18 -79.5t48.5 -40t68.5 -11.5q48 0 84 19t60 48t36 59v278h130v-303q0 -38 10.5 -56.5t32 -24.5t53.5 -6v-114z" />
    <glyph glyph-name="pi" unicode="&#x3c0;" horiz-adv-x="783" 
d="M611 191q0 -43 11.5 -64.5t38 -28t71.5 -6.5v-102q-133 0 -192 50t-59 145v213h-179v-398h-130v398h-122v99h683v-99h-122v-207z" />
    <glyph glyph-name="Wgrave" unicode="&#x1e80;" horiz-adv-x="1300" 
d="M293 0l-273 647h147l209 -519l199 519h153l199 -519l209 519h144l-270 -647h-163l-195 507l-196 -507h-163zM598 741l-184 158h172l136 -158h-124z" />
    <glyph glyph-name="wgrave" unicode="&#x1e81;" horiz-adv-x="988" 
d="M631 0l-138 347l-143 -347h-122l-213 497h143l135 -352l126 352h149l121 -351l140 351h143l-219 -497h-122zM435 601l-184 158h172l136 -158h-124z" />
    <glyph glyph-name="Wacute" unicode="&#x1e82;" horiz-adv-x="1300" 
d="M293 0l-273 647h147l209 -519l199 519h153l199 -519l209 519h144l-270 -647h-163l-195 507l-196 -507h-163zM584 741l136 158h172l-184 -158h-124z" />
    <glyph glyph-name="wacute" unicode="&#x1e83;" horiz-adv-x="988" 
d="M631 0l-138 347l-143 -347h-122l-213 497h143l135 -352l126 352h149l121 -351l140 351h143l-219 -497h-122zM421 601l136 158h172l-184 -158h-124z" />
    <glyph glyph-name="Wdieresis" unicode="&#x1e84;" horiz-adv-x="1300" 
d="M293 0l-273 647h147l209 -519l199 519h153l199 -519l209 519h144l-270 -647h-163l-195 507l-196 -507h-163zM435 677v-114h-151v114h151zM1018 677v-114h-151v114h151z" />
    <glyph glyph-name="wdieresis" unicode="&#x1e85;" horiz-adv-x="988" 
d="M631 0l-138 347l-143 -347h-122l-213 497h143l135 -352l126 352h149l121 -351l140 351h143l-219 -497h-122zM458 716v-114h-151v114h151zM675 716v-114h-151v114h151z" />
    <glyph glyph-name="Ygrave" unicode="&#x1ef2;" horiz-adv-x="740" 
d="M721 647l-284 -443v-204h-134v204l-284 443h154l199 -322l195 322h154zM314 725l-184 158h172l136 -158h-124z" />
    <glyph glyph-name="ygrave" unicode="&#x1ef3;" horiz-adv-x="639" 
d="M15 497h138l164 -365l167 365h139l-344 -697h-135l110 205zM264 601l-184 158h172l136 -158h-124z" />
    <glyph glyph-name="endash" unicode="&#x2013;" horiz-adv-x="604" 
d="M80 321h444v-100h-444v100z" />
    <glyph glyph-name="emdash" unicode="&#x2014;" horiz-adv-x="844" 
d="M60 322h724v-100h-724v100z" />
    <glyph glyph-name="quoteleft" unicode="&#x2018;" horiz-adv-x="231" 
d="M163 702l19 -34q-16 -22 -29.5 -49t-15.5 -56l55 -10v-115h-153v82q0 71 33.5 114.5t90.5 67.5z" />
    <glyph glyph-name="quoteright" unicode="&#x2019;" horiz-adv-x="231" 
d="M67 389l-18 34q15 22 29.5 49.5t15.5 55.5l-55 11v114h153v-82q0 -70 -33.5 -113.5t-91.5 -68.5z" />
    <glyph glyph-name="quotesinglbase" unicode="&#x201a;" horiz-adv-x="231" 
d="M67 -149l-18 34q15 22 29.5 49t15.5 55l-55 11v115h153v-82q0 -71 -33.5 -114.5t-91.5 -67.5z" />
    <glyph glyph-name="quotedblleft" unicode="&#x201c;" horiz-adv-x="429" 
d="M163 702l19 -34q-16 -22 -29.5 -49t-15.5 -56l55 -10v-115h-153v82q0 71 33.5 114.5t90.5 67.5zM361 702l19 -34q-16 -22 -29.5 -49t-15.5 -56l55 -10v-115h-153v82q0 71 33.5 114.5t90.5 67.5z" />
    <glyph glyph-name="quotedblright" unicode="&#x201d;" horiz-adv-x="429" 
d="M67 389l-18 34q15 22 29.5 49.5t15.5 55.5l-55 11v114h153v-82q0 -70 -33.5 -113.5t-91.5 -68.5zM265 389l-18 34q15 22 29.5 49.5t15.5 55.5l-55 11v114h153v-82q0 -70 -33.5 -113.5t-91.5 -68.5z" />
    <glyph glyph-name="quotedblbase" unicode="&#x201e;" horiz-adv-x="429" 
d="M67 -150l-18 34q15 22 29.5 49.5t15.5 55.5l-55 11v114h153v-82q0 -70 -33.5 -113.5t-91.5 -68.5zM265 -150l-18 34q15 22 29.5 49.5t15.5 55.5l-55 11v114h153v-82q0 -70 -33.5 -113.5t-91.5 -68.5z" />
    <glyph glyph-name="dagger" unicode="&#x2020;" horiz-adv-x="763" 
d="M96 500h220v200h130v-200h221v-111h-221v-589h-130v589h-220v111z" />
    <glyph glyph-name="daggerdbl" unicode="&#x2021;" horiz-adv-x="732" 
d="M80 5v111h221v273h-221v111h221v200h130v-200h220v-111h-220v-273h220v-111h-220v-205h-130v205h-221z" />
    <glyph glyph-name="bullet" unicode="&#x2022;" horiz-adv-x="456" 
d="M97 393h262v-262h-262v262z" />
    <glyph glyph-name="ellipsis" unicode="&#x2026;" horiz-adv-x="691" 
d="M631 114v-114h-151v114h151zM211 114v-114h-151v114h151zM421 114v-114h-151v114h151z" />
    <glyph glyph-name="perthousand" unicode="&#x2030;" horiz-adv-x="1053" 
d="M618 686l54 -30l-382 -690l-52 32zM228 333q-86 0 -137 44t-51 121q0 79 51 122.5t137 43.5t136.5 -43.5t50.5 -122.5q0 -77 -50.5 -121t-136.5 -44zM228 415q38 0 61.5 22.5t23.5 60.5q0 39 -23.5 61.5t-61.5 22.5q-39 0 -62.5 -22.5t-23.5 -61.5q0 -38 23.5 -60.5
t62.5 -22.5zM826 248q-86 0 -137 44t-51 121q0 78 51 122t137 44t136.5 -44t50.5 -122q0 -77 -50.5 -121t-136.5 -44zM826 330q38 0 61.5 22.5t23.5 60.5q0 39 -23.5 61.5t-61.5 22.5q-39 0 -62.5 -22.5t-23.5 -61.5q0 -38 23.5 -60.5t62.5 -22.5zM632 -100q-85 0 -136.5 44
t-51.5 122t51.5 121.5t136.5 43.5q86 0 136.5 -44t50.5 -121q0 -78 -50.5 -122t-136.5 -44zM632 -18q38 0 61.5 22.5t23.5 61.5q0 38 -23.5 60.5t-61.5 22.5t-62 -22.5t-24 -60.5q0 -39 23.5 -61.5t62.5 -22.5z" />
    <glyph glyph-name="guilsinglleft" unicode="&#x2039;" horiz-adv-x="423" 
d="M60 279l241 261l72 -69l-182 -192l182 -193l-72 -68z" />
    <glyph glyph-name="guilsinglright" unicode="&#x203a;" horiz-adv-x="423" 
d="M363 279l-241 -261l-72 68l182 193l-182 192l72 69z" />
    <glyph glyph-name="fraction" unicode="&#x2044;" horiz-adv-x="84" 
d="M210 700l54 -30l-382 -690l-52 32z" />
    <glyph glyph-name="uni2074" unicode="&#x2074;" horiz-adv-x="314" 
d="M254 536h40v-60h-40v-76h-63v76h-151v60l147 167h67v-167zM191 536v90l-78 -90h78z" />
    <glyph glyph-name="Euro" unicode="&#x20ac;" horiz-adv-x="964" 
d="M616 342h-596l60 59h66q18 85 71 143t133 87t177 29q98 0 172.5 -23.5t120.5 -67.5l-92 -96q-30 35 -76 52.5t-103 17.5q-96 0 -164.5 -36.5t-94.5 -105.5h380zM511 233h-217q28 -66 96 -99t159 -33q95 0 152.5 35t77.5 97h132q-13 -118 -108 -182t-254 -64
q-102 0 -186 28t-140 83t-75 135h-128l60 56h485z" />
    <glyph glyph-name="trademark" unicode="&#x2122;" horiz-adv-x="1115" 
d="M323 397h-117v155h-129v95h379v-95h-133v-155zM782 470l138 177h118v-250h-116l-1 117l-79 -119h-118l-80 118v-116h-116v250h117zM1038 233h-950v94h950v-94z" />
    <glyph glyph-name="uni2150" unicode="&#x2150;" horiz-adv-x="979" 
d="M25 254v87h123v219h-119v87h233v-306h104v-87h-341zM665 700l54 -30l-382 -690l-52 32zM618 308v85h338v-86l-158 -307h-122l165 308h-223z" />
    <glyph glyph-name="uni2151" unicode="&#x2151;" horiz-adv-x="976" 
d="M25 254v87h123v219h-119v87h233v-306h104v-87h-341zM665 700l54 -30l-382 -690l-52 32zM755 403q90 0 141.5 -38.5t51.5 -97.5q0 -19 -5.5 -39t-22.5 -44q-6 -10 -20.5 -31.5t-32.5 -47.5t-34.5 -50t-27.5 -39.5l-11 -15.5h-122l117 136q-13 -7 -26.5 -11t-30.5 -4
q-73 0 -115 38t-42 100q0 66 47.5 105t132.5 39zM758 196q41 0 65 16.5t24 43.5q0 26 -24 42.5t-65 16.5t-61.5 -16.5t-20.5 -42.5q0 -27 21 -43.5t61 -16.5z" />
    <glyph glyph-name="uni2152" unicode="&#x2152;" horiz-adv-x="1491" 
d="M25 254v87h123v219h-119v87h233v-306h104v-87h-341zM667 700l54 -30l-382 -690l-52 32zM657 0v87h123v219h-119v87h233v-306h104v-87h-341zM1230 402q101 0 153.5 -57.5t52.5 -150.5t-52.5 -150t-153.5 -57q-100 0 -152.5 57t-52.5 150t52.5 150.5t152.5 57.5zM1230 87
q47 0 71 29t24 78q0 50 -24 78t-71 28q-46 0 -70.5 -28t-24.5 -78q0 -49 24.5 -78t70.5 -29z" />
    <glyph glyph-name="uni2153" unicode="&#x2153;" horiz-adv-x="966" 
d="M25 254v87h123v219h-119v87h233v-306h104v-87h-341zM665 700l54 -30l-382 -690l-52 32zM792 201q62 -5 100 -24.5t38 -67.5q0 -55 -46.5 -88.5t-129.5 -33.5q-86 0 -134.5 37.5t-44.5 96.5h86q1 -22 24 -34.5t68 -12.5q40 0 57.5 12t17.5 36q0 49 -89 49h-58v55h58
q45 0 64 12t19 34q0 18 -17.5 29t-54.5 11q-39 0 -61.5 -11.5t-23.5 -28.5h-86q-2 40 20 69.5t61.5 45.5t88.5 16q83 0 128.5 -31.5t45.5 -76.5t-35.5 -67.5t-95.5 -26.5z" />
    <glyph glyph-name="uni2154" unicode="&#x2154;" horiz-adv-x="984" 
d="M384 254h-343v85q126 55 178 100.5t52 80.5q0 45 -60 45q-41 0 -59 -13.5t-21 -27.5h-97q-3 54 43 93.5t135 39.5q75 0 121.5 -29.5t46.5 -86.5t-43.5 -97.5t-105.5 -73.5l-68 -31l221 3v-88zM683 700l54 -30l-382 -690l-52 32zM810 201q62 -5 100 -24.5t38 -67.5
q0 -55 -46.5 -88.5t-129.5 -33.5q-86 0 -134.5 37.5t-44.5 96.5h86q1 -22 24 -34.5t68 -12.5q40 0 57.5 12t17.5 36q0 49 -89 49h-58v55h58q45 0 64 12t19 34q0 18 -17.5 29t-54.5 11q-39 0 -61.5 -11.5t-23.5 -28.5h-86q-2 40 20 69.5t61.5 45.5t88.5 16q83 0 128.5 -31.5
t45.5 -76.5t-35.5 -67.5t-95.5 -26.5z" />
    <glyph glyph-name="uni2155" unicode="&#x2155;" horiz-adv-x="1005" 
d="M25 254v87h123v219h-119v87h233v-306h104v-87h-341zM665 700l54 -30l-382 -690l-52 32zM813 252q64 0 104.5 -34t40.5 -95q0 -64 -46 -100t-131 -36q-80 0 -130.5 36t-53.5 98h91q2 -22 27.5 -35.5t68.5 -13.5q32 0 51.5 14.5t19.5 41.5q0 28 -19 41.5t-49 13.5
q-37 0 -62.5 -7t-31.5 -22l-80 21l14 219h293v-85h-214l-8 -98q40 41 115 41z" />
    <glyph glyph-name="uni2156" unicode="&#x2156;" horiz-adv-x="1023" 
d="M384 254h-343v85q126 55 178 100.5t52 80.5q0 45 -60 45q-41 0 -59 -13.5t-21 -27.5h-97q-3 54 43 93.5t135 39.5q75 0 121.5 -29.5t46.5 -86.5t-43.5 -97.5t-105.5 -73.5l-68 -31l221 3v-88zM683 700l54 -30l-382 -690l-52 32zM831 252q64 0 104.5 -34t40.5 -95
q0 -64 -46 -100t-131 -36q-80 0 -130.5 36t-53.5 98h91q2 -22 27.5 -35.5t68.5 -13.5q32 0 51.5 14.5t19.5 41.5q0 28 -19 41.5t-49 13.5q-37 0 -62.5 -7t-31.5 -22l-80 21l14 219h293v-85h-214l-8 -98q40 41 115 41z" />
    <glyph glyph-name="uni2157" unicode="&#x2157;" horiz-adv-x="990" 
d="M250 454q64 -4 102.5 -23t38.5 -68q0 -55 -46.5 -88.5t-129.5 -33.5q-86 0 -134.5 37.5t-44.5 96.5h86q1 -22 24 -35t68 -13q40 0 57.5 12.5t17.5 36.5q0 49 -89 49h-58v55h58q45 0 64 12t19 34q0 18 -17.5 29t-54.5 11q-39 0 -61.5 -11.5t-23.5 -28.5h-86q-2 40 20 69.5
t61.5 45.5t88.5 16q83 0 128.5 -31.5t45.5 -76.5t-36 -68t-98 -27zM650 700l54 -30l-382 -690l-52 32zM798 252q64 0 104.5 -34t40.5 -95q0 -64 -46 -100t-131 -36q-80 0 -130.5 36t-53.5 98h91q2 -22 27.5 -35.5t68.5 -13.5q32 0 51.5 14.5t19.5 41.5q0 28 -19 41.5
t-49 13.5q-37 0 -62.5 -7t-31.5 -22l-80 21l14 219h293v-85h-214l-8 -98q40 41 115 41z" />
    <glyph glyph-name="uni2158" unicode="&#x2158;" horiz-adv-x="1029" 
d="M248 254v71h-201v83l213 239h101v-242h52v-80h-52v-71h-113zM158 401h94v126zM689 700l54 -30l-382 -690l-52 32zM837 252q64 0 104.5 -34t40.5 -95q0 -64 -46 -100t-131 -36q-80 0 -130.5 36t-53.5 98h91q2 -22 27.5 -35.5t68.5 -13.5q32 0 51.5 14.5t19.5 41.5
q0 28 -19 41.5t-49 13.5q-37 0 -62.5 -7t-31.5 -22l-80 21l14 219h293v-85h-214l-8 -98q40 41 115 41z" />
    <glyph glyph-name="uni2159" unicode="&#x2159;" horiz-adv-x="936" 
d="M25 254v87h123v219h-119v87h233v-306h104v-87h-341zM665 700l54 -30l-382 -690l-52 32zM750 269q68 0 109 -38t41 -100q0 -66 -46 -105t-129 -39q-93 0 -145 38.5t-52 96.5q0 20 5.5 40t22.5 43q6 11 20 33t32 48.5t34.5 50.5l27.5 40l11 16h122l-119 -141q28 17 66 17z
M719 74q43 0 63.5 17t20.5 43q0 27 -21 43.5t-64 16.5q-41 0 -65.5 -16.5t-24.5 -43.5q0 -26 24.5 -43t66.5 -17z" />
    <glyph glyph-name="uni215A" unicode="&#x215a;" horiz-adv-x="947" 
d="M274 506q64 0 104.5 -34t40.5 -96q0 -64 -46 -99.5t-131 -35.5q-80 0 -130.5 36t-53.5 98h91q2 -22 27.5 -35.5t68.5 -13.5q32 0 51.5 14t19.5 42t-19 41.5t-49 13.5q-37 0 -62.5 -7.5t-31.5 -21.5l-80 20l14 219h293v-84h-214l-8 -98q40 41 115 41zM676 700l54 -30
l-382 -690l-52 32zM761 269q68 0 109 -38t41 -100q0 -66 -46 -105t-129 -39q-93 0 -145 38.5t-52 96.5q0 20 5.5 40t22.5 43q6 11 20 33t32 48.5t34.5 50.5l27.5 40l11 16h122l-119 -141q28 17 66 17zM730 74q43 0 63.5 17t20.5 43q0 27 -21 43.5t-64 16.5
q-41 0 -65.5 -16.5t-24.5 -43.5q0 -26 24.5 -43t66.5 -17z" />
    <glyph glyph-name="oneeighth" unicode="&#x215b;" horiz-adv-x="981" 
d="M25 254v87h123v219h-119v87h233v-306h104v-87h-341zM665 700l54 -30l-382 -690l-52 32zM842 202q41 -7 69 -30t28 -64q0 -54 -45 -87.5t-134 -33.5t-134 33.5t-45 87.5q0 41 27.5 64.5t64.5 30.5q-34 8 -57.5 29.5t-23.5 57.5q0 52 43 82t125 30t124.5 -30t42.5 -82
q0 -36 -24 -58t-61 -30zM760 316q-33 0 -48.5 -11t-15.5 -30t16 -31t48 -12t49 12t17 31t-17 30t-49 11zM760 72q38 0 57.5 13t19.5 35q0 23 -19.5 36t-57.5 13q-39 0 -57.5 -13t-18.5 -36q0 -22 18.5 -35t57.5 -13z" />
    <glyph glyph-name="threeeighths" unicode="&#x215c;" horiz-adv-x="966" 
d="M250 454q64 -4 102.5 -23t38.5 -68q0 -55 -46.5 -88.5t-129.5 -33.5q-86 0 -134.5 37.5t-44.5 96.5h86q1 -22 24 -35t68 -13q40 0 57.5 12.5t17.5 36.5q0 49 -89 49h-58v55h58q45 0 64 12t19 34q0 18 -17.5 29t-54.5 11q-39 0 -61.5 -11.5t-23.5 -28.5h-86q-2 40 20 69.5
t61.5 45.5t88.5 16q83 0 128.5 -31.5t45.5 -76.5t-36 -68t-98 -27zM650 700l54 -30l-382 -690l-52 32zM827 202q41 -7 69 -30t28 -64q0 -54 -45 -87.5t-134 -33.5t-134 33.5t-45 87.5q0 41 27.5 64.5t64.5 30.5q-34 8 -57.5 29.5t-23.5 57.5q0 52 43 82t125 30t124.5 -30
t42.5 -82q0 -36 -24 -58t-61 -30zM745 316q-33 0 -48.5 -11t-15.5 -30t16 -31t48 -12t49 12t17 31t-17 30t-49 11zM745 72q38 0 57.5 13t19.5 35q0 23 -19.5 36t-57.5 13q-39 0 -57.5 -13t-18.5 -36q0 -22 18.5 -35t57.5 -13z" />
    <glyph glyph-name="fiveeighths" unicode="&#x215d;" horiz-adv-x="992" 
d="M274 506q64 0 104.5 -34t40.5 -96q0 -64 -46 -99.5t-131 -35.5q-80 0 -130.5 36t-53.5 98h91q2 -22 27.5 -35.5t68.5 -13.5q32 0 51.5 14t19.5 42t-19 41.5t-49 13.5q-37 0 -62.5 -7.5t-31.5 -21.5l-80 20l14 219h293v-84h-214l-8 -98q40 41 115 41zM676 700l54 -30
l-382 -690l-52 32zM853 202q41 -7 69 -30t28 -64q0 -54 -45 -87.5t-134 -33.5t-134 33.5t-45 87.5q0 41 27.5 64.5t64.5 30.5q-34 8 -57.5 29.5t-23.5 57.5q0 52 43 82t125 30t124.5 -30t42.5 -82q0 -36 -24 -58t-61 -30zM771 316q-33 0 -48.5 -11t-15.5 -30t16 -31t48 -12
t49 12t17 31t-17 30t-49 11zM771 72q38 0 57.5 13t19.5 35q0 23 -19.5 36t-57.5 13q-39 0 -57.5 -13t-18.5 -36q0 -22 18.5 -35t57.5 -13z" />
    <glyph glyph-name="seveneighths" unicode="&#x215e;" horiz-adv-x="880" 
d="M23 561v86h338v-87l-158 -306h-122l165 307h-223zM564 700l54 -30l-382 -690l-52 32zM741 202q41 -7 69 -30t28 -64q0 -54 -45 -87.5t-134 -33.5t-134 33.5t-45 87.5q0 41 27.5 64.5t64.5 30.5q-34 8 -57.5 29.5t-23.5 57.5q0 52 43 82t125 30t124.5 -30t42.5 -82
q0 -36 -24 -58t-61 -30zM659 316q-33 0 -48.5 -11t-15.5 -30t16 -31t48 -12t49 12t17 31t-17 30t-49 11zM659 72q38 0 57.5 13t19.5 35q0 23 -19.5 36t-57.5 13q-39 0 -57.5 -13t-18.5 -36q0 -22 18.5 -35t57.5 -13z" />
    <glyph glyph-name="uni2189" unicode="&#x2189;" horiz-adv-x="994" 
d="M241 655q101 0 153.5 -57t52.5 -150t-52.5 -150t-153.5 -57q-100 0 -152.5 57t-52.5 150t52.5 150t152.5 57zM241 341q47 0 71 28.5t24 78.5q0 49 -24 77.5t-71 28.5q-46 0 -70.5 -28.5t-24.5 -77.5t24.5 -78t70.5 -29zM693 700l54 -30l-382 -690l-52 32zM820 201
q62 -5 100 -24.5t38 -67.5q0 -55 -46.5 -88.5t-129.5 -33.5q-86 0 -134.5 37.5t-44.5 96.5h86q1 -22 24 -34.5t68 -12.5q40 0 57.5 12t17.5 36q0 49 -89 49h-58v55h58q45 0 64 12t19 34q0 18 -17.5 29t-54.5 11q-39 0 -61.5 -11.5t-23.5 -28.5h-86q-2 40 20 69.5t61.5 45.5
t88.5 16q83 0 128.5 -31.5t45.5 -76.5t-35.5 -67.5t-95.5 -26.5z" />
    <glyph glyph-name="arrowleft" unicode="&#x2190;" horiz-adv-x="873" 
d="M301 18l-241 261l241 261l72 -69l-137 -145l76 2h521v-98h-521l-77 2l138 -146z" />
    <glyph glyph-name="arrowup" unicode="&#x2191;" horiz-adv-x="703" 
d="M303 -46v521l2 76l-145 -137l-69 72l261 241l261 -241l-68 -72l-146 138l2 -77v-521h-98z" />
    <glyph glyph-name="arrowright" unicode="&#x2192;" horiz-adv-x="873" 
d="M572 18l-72 68l138 146l-77 -2h-521v98h521l76 -2l-137 145l72 69l241 -261z" />
    <glyph glyph-name="arrowdown" unicode="&#x2193;" horiz-adv-x="703" 
d="M351 -66l-261 242l69 72l145 -137l-2 76v521h98v-521l-2 -77l145 138l70 -72z" />
    <glyph glyph-name="arrowboth" unicode="&#x2194;" horiz-adv-x="1074" 
d="M301 18l-241 261l241 261l72 -69l-137 -145l61 2h480l61 -2l-137 145l72 69l241 -261l-241 -261l-73 68l138 146l-61 -2h-480l-62 2l138 -146z" />
    <glyph glyph-name="arrowupdn" unicode="&#x2195;" horiz-adv-x="703" 
d="M351 -142l-261 241l69 72l145 -137l-2 61v448l2 61l-145 -137l-69 72l261 241l262 -241l-70 -72l-145 138l2 -62v-448l-2 -62l145 138l70 -72z" />
    <glyph glyph-name="uni2196" unicode="&#x2196;" horiz-adv-x="796" 
d="M626 55l-368 368l-53 56l-5 -201l-100 3l14 355l355 14l2 -99l-198 -6l54 -52l369 -369z" />
    <glyph glyph-name="uni2197" unicode="&#x2197;" horiz-adv-x="796" 
d="M170 52l-70 70l369 369l55 52l-200 6l2 99l356 -14l14 -355l-100 -3l-5 200l-53 -55z" />
    <glyph glyph-name="uni2198" unicode="&#x2198;" horiz-adv-x="796" 
d="M326 -5l-2 100l200 5l-55 53l-369 368l70 70l368 -369l53 -55l5 199l100 -1l-14 -356z" />
    <glyph glyph-name="uni2199" unicode="&#x2199;" horiz-adv-x="796" 
d="M469 -5l-355 14l-14 356l100 1l5 -199l53 55l368 369l70 -70l-369 -368l-55 -53l200 -5z" />
    <glyph glyph-name="partialdiff" unicode="&#x2202;" horiz-adv-x="702" 
d="M344 -12q-96 0 -165 32.5t-106 91.5t-37 136q0 79 34 135t93 86t133 30q85 0 141.5 -34t84.5 -90q-17 54 -59.5 99.5t-116 80.5t-185.5 59l20 95q115 -23 196.5 -60.5t134.5 -85t83 -99.5t42 -104t12 -98q0 -80 -39 -142t-107.5 -97t-158.5 -35zM350 89q52 0 93.5 19
t66.5 54.5t25 83.5q0 49 -26 83.5t-68.5 52.5t-93.5 18q-83 0 -130.5 -42.5t-47.5 -113.5q0 -73 49.5 -114t131.5 -41z" />
    <glyph glyph-name="emptyset" unicode="&#x2205;" horiz-adv-x="796" 
d="M224 -68l-61 35l57 99q-75 33 -117.5 94t-42.5 143t42 142.5t118 94.5t178 34q60 0 109 -12l64 111l60 -35l-56 -97q76 -33 118.5 -94.5t42.5 -143.5q0 -81 -42 -142t-118 -95t-178 -34q-59 0 -110 12zM274 159l181 313q-27 6 -57 6q-62 0 -110 -23t-75 -62.5t-27 -89.5
q0 -46 23.5 -83.5t64.5 -60.5zM398 128q62 0 110 23t75 62.5t27 89.5q0 47 -23.5 84.5t-64.5 60.5l-182 -314q27 -6 58 -6z" />
    <glyph glyph-name="product" unicode="&#x220f;" horiz-adv-x="857" 
d="M665 0h-130v535h-213v-535h-130v535h-152v112h777v-112h-152v-535z" />
    <glyph glyph-name="summation" unicode="&#x2211;" horiz-adv-x="727" 
d="M84 647h551v-111h-396l247 -222l-242 -203h391v-111h-551v110l225 205l-225 218v114z" />
    <glyph glyph-name="minus" unicode="&#x2212;" horiz-adv-x="490" 
d="M50 319h390v-98h-390v98z" />
    <glyph glyph-name="uni2215" unicode="&#x2215;" horiz-adv-x="434" 
d="M380 700l54 -30l-382 -690l-52 32z" />
    <glyph glyph-name="radical" unicode="&#x221a;" horiz-adv-x="807" 
d="M794 647v-111h-189l-234 -536h-122l-234 497h143l151 -353l209 503h276z" />
    <glyph glyph-name="infinity" unicode="&#x221e;" horiz-adv-x="1104" 
d="M809 80q-63 0 -108.5 21t-80.5 55.5t-65 73.5q-31 -38 -67.5 -72.5t-83 -55.5t-109.5 -21q-71 0 -125.5 28.5t-85.5 77t-31 109.5q0 60 31 108t84 76t120 28q66 0 114.5 -22t85.5 -57t68 -74q30 39 65 74t82.5 57t112.5 22q67 0 120 -28t84 -76t31 -109t-31 -109.5
t-85.5 -77t-125.5 -28.5zM313 177q68 0 112.5 34t81.5 81q-26 33 -54.5 60t-64 43.5t-81.5 16.5q-32 0 -61 -14.5t-47 -40.5t-18 -61q0 -36 19.5 -63t50 -41.5t62.5 -14.5zM791 176q33 0 63 15t49.5 41.5t19.5 62.5t-18 62t-46.5 40.5t-61.5 14.5q-64 0 -108.5 -35.5
t-83.5 -84.5q38 -47 81 -81.5t105 -34.5z" />
    <glyph glyph-name="integral" unicode="&#x222b;" horiz-adv-x="504" 
d="M357 760h123v-114h-73q-37 1 -63.5 -18t-26.5 -72v-496q0 -90 -49 -130t-124 -40h-121v114h74q38 -1 64 18t26 72v496q0 90 47.5 130t122.5 40z" />
    <glyph glyph-name="approxequal" unicode="&#x2248;" horiz-adv-x="622" 
d="M476 443h96q3 -41 -12 -75.5t-46.5 -55t-79.5 -20.5q-36 0 -66 11t-56.5 26t-52 26t-51.5 11q-30 0 -46 -16.5t-16 -35.5h-95q-3 41 12.5 75.5t50.5 55t87 20.5q36 0 66 -11t57 -26t52 -26t51 -11q30 0 39.5 16.5t9.5 35.5zM482 244h90q3 -39 -12 -73.5t-46.5 -56
t-79.5 -21.5q-36 0 -66 11t-56.5 26t-52 26t-51.5 11q-30 0 -46 -16.5t-16 -35.5h-95q-3 41 12.5 75.5t50.5 55t87 20.5q36 0 66 -11t57 -26t52 -26t51 -11q30 0 42.5 16.5t12.5 35.5z" />
    <glyph glyph-name="notequal" unicode="&#x2260;" horiz-adv-x="586" 
d="M186 23l29 104h-165v98h193l30 105h-223v98h250l36 126l64 -17l-31 -109h167v-98h-194l-30 -105h224v-98h-252l-34 -121z" />
    <glyph glyph-name="lessequal" unicode="&#x2264;" horiz-adv-x="582" 
d="M488 210l-34 -98l-348 136v110l334 170l44 -90l-269 -129zM475 -10h-355v72h355v-72z" />
    <glyph glyph-name="greaterequal" unicode="&#x2265;" horiz-adv-x="543" 
d="M476 248l-348 -136l-34 98l273 99l-268 129l43 90l334 -170v-110zM463 -10h-356v72h356v-72z" />
    <glyph glyph-name="lozenge" unicode="&#x25ca;" horiz-adv-x="692" 
d="M346 -6l-296 343l295 343l297 -343zM346 145l165 192l-166 192l-164 -192z" />
    <glyph glyph-name="uniF8FF" unicode="&#xf8ff;" horiz-adv-x="860" 
d="M430 -10q-85 0 -158 23.5t-127.5 67.5t-84.5 106t-30 138q0 77 30 138.5t84.5 105.5t127.5 67.5t158 23.5q86 0 158.5 -23.5t127 -67.5t84.5 -105.5t30 -138.5q0 -76 -30 -138t-84.5 -106t-127 -67.5t-158.5 -23.5zM453 472q40 1 72.5 3.5t60.5 7.5q-20 47 -53 80.5
t-80 40.5v-132zM408 472v132q-47 -7 -80.5 -40.5t-53.5 -81.5q27 -4 60.5 -6.5t73.5 -3.5zM624 491q20 5 36.5 12t29.5 15q-60 57 -150 78q28 -19 49 -46t35 -59zM235 489q15 33 36 60.5t49 46.5q-92 -21 -152 -80q27 -17 67 -27zM659 345h109q-2 44 -16.5 81t-38.5 66
q-15 -12 -33.5 -21t-40.5 -17q17 -54 20 -109zM92 345h109q3 55 20 107q-46 15 -76 38q-23 -29 -37 -65.5t-16 -79.5zM453 345h162q-1 26 -5 50.5t-11 47.5q-60 -13 -146 -15v-83zM245 345h163v83q-43 1 -80 4.5t-68 9.5q-12 -46 -15 -97zM260 215q31 6 68 9.5t80 4.5v76
h-163q3 -47 15 -90zM600 214q6 22 10 45.5t5 45.5h-162v-76q85 -1 147 -15zM717 162q22 29 35.5 65t15.5 78h-110q-1 -25 -6 -50.5t-13 -51.5q24 -7 43 -17.5t35 -23.5zM142 164q30 25 78 40q-7 26 -12 51t-6 50h-110q2 -42 15 -77t35 -64zM453 47q47 8 80.5 43t53.5 84
q-28 5 -61 7.5t-73 3.5v-138zM408 47v138q-40 -1 -73.5 -3t-61.5 -7q20 -49 54 -84.5t81 -43.5zM324 53q-30 20 -52 50t-38 64q-42 -11 -70 -29q30 -31 71 -52.5t89 -32.5zM536 53q96 21 159 84q-14 9 -31 16.5t-39 12.5q-15 -34 -37.5 -63.5t-51.5 -49.5z" />
    <glyph glyph-name="Aacute.ss03" horiz-adv-x="789" 
d="M17 0l304 647h144l307 -647h-145l-64 141h-338l-64 -141h-144zM275 252h237l-119 261zM470 841v-114h-151v114h151z" />
    <glyph glyph-name="Abreve.ss03" horiz-adv-x="789" 
d="M17 0l304 647h144l307 -647h-145l-64 141h-338l-64 -141h-144zM275 252h237l-119 261zM470 841v-114h-151v114h151z" />
    <glyph glyph-name="Acircumflex.ss03" horiz-adv-x="789" 
d="M17 0l304 647h144l307 -647h-145l-64 141h-338l-64 -141h-144zM275 252h237l-119 261zM470 841v-114h-151v114h151z" />
    <glyph glyph-name="Agrave.ss03" horiz-adv-x="789" 
d="M17 0l304 647h144l307 -647h-145l-64 141h-338l-64 -141h-144zM275 252h237l-119 261zM319 841h151v-114h-151v114z" />
    <glyph glyph-name="Amacron.ss03" horiz-adv-x="789" 
d="M17 0l304 647h144l307 -647h-145l-64 141h-338l-64 -141h-144zM275 252h237l-119 261zM470 841v-114h-151v114h151z" />
    <glyph glyph-name="Aogonek.ss03" horiz-adv-x="789" 
d="M17 0l304 647h144l307 -647h-145l-64 141h-338l-64 -141h-144zM275 252h237l-119 261zM783 -79v-114h-151v114h151z" />
    <glyph glyph-name="Aring.ss03" horiz-adv-x="789" 
d="M17 0l304 647h144l307 -647h-145l-64 141h-338l-64 -141h-144zM275 252h237l-119 261zM470 841v-114h-151v114h151z" />
    <glyph glyph-name="Atilde.ss03" horiz-adv-x="789" 
d="M17 0l304 647h144l307 -647h-145l-64 141h-338l-64 -141h-144zM275 252h237l-119 261zM470 841v-114h-151v114h151z" />
    <glyph glyph-name="Cacute.ss03" horiz-adv-x="885" 
d="M832 233q-13 -118 -109 -182t-259 -64q-121 0 -214 37.5t-145 112t-52 185.5q0 112 52 187t145 113t214 38q164 0 259.5 -66t108.5 -184h-132q-20 63 -78.5 99t-157.5 36q-124 0 -199 -56.5t-75 -166.5q0 -108 75 -164.5t199 -56.5q99 0 157 35.5t79 96.5h132zM530 845
v-114h-151v114h151z" />
    <glyph glyph-name="Ccaron.ss03" horiz-adv-x="885" 
d="M832 233q-13 -118 -109 -182t-259 -64q-121 0 -214 37.5t-145 112t-52 185.5q0 112 52 187t145 113t214 38q164 0 259.5 -66t108.5 -184h-132q-20 63 -78.5 99t-157.5 36q-124 0 -199 -56.5t-75 -166.5q0 -108 75 -164.5t199 -56.5q99 0 157 35.5t79 96.5h132zM530 845
v-114h-151v114h151z" />
    <glyph glyph-name="Ccedilla.ss03" horiz-adv-x="885" 
d="M832 233q-13 -118 -109 -182t-259 -64q-121 0 -214 37.5t-145 112t-52 185.5q0 112 52 187t145 113t214 38q164 0 259.5 -66t108.5 -184h-132q-20 63 -78.5 99t-157.5 36q-124 0 -199 -56.5t-75 -166.5q0 -108 75 -164.5t199 -56.5q99 0 157 35.5t79 96.5h132zM539 -85
v-115h-151v115h151z" />
    <glyph glyph-name="Cdotaccent.ss03" horiz-adv-x="885" 
d="M832 233q-13 -118 -109 -182t-259 -64q-121 0 -214 37.5t-145 112t-52 185.5q0 112 52 187t145 113t214 38q164 0 259.5 -66t108.5 -184h-132q-20 63 -78.5 99t-157.5 36q-124 0 -199 -56.5t-75 -166.5q0 -108 75 -164.5t199 -56.5q99 0 157 35.5t79 96.5h132zM530 845
v-114h-151v114h151z" />
    <glyph glyph-name="Dcaron.ss03" horiz-adv-x="879" 
d="M447 647q109 0 182 -26t116.5 -70.5t62 -102.5t18.5 -122t-20.5 -123t-65 -104.5t-117 -72t-176.5 -26.5h-370v647h370zM210 114h234q96 0 149.5 30t75.5 78.5t22 103.5t-22 102t-75.5 76t-149.5 29h-234v-419zM486 862v-114h-151v114h151z" />
    <glyph glyph-name="Eacute.ss03" horiz-adv-x="769" 
d="M210 270v-159h499v-111h-632v647h631v-111h-498v-161h408v-105h-408zM473 841v-114h-151v114h151z" />
    <glyph glyph-name="Ecaron.ss03" horiz-adv-x="769" 
d="M210 270v-159h499v-111h-632v647h631v-111h-498v-161h408v-105h-408zM473 841v-114h-151v114h151z" />
    <glyph glyph-name="Ecircumflex.ss03" horiz-adv-x="769" 
d="M210 270v-159h499v-111h-632v647h631v-111h-498v-161h408v-105h-408zM473 841v-114h-151v114h151z" />
    <glyph glyph-name="Egrave.ss03" horiz-adv-x="769" 
d="M210 270v-159h499v-111h-632v647h631v-111h-498v-161h408v-105h-408zM322 841h151v-114h-151v114z" />
    <glyph glyph-name="Emacron.ss03" horiz-adv-x="769" 
d="M210 270v-159h499v-111h-632v647h631v-111h-498v-161h408v-105h-408zM473 841v-114h-151v114h151z" />
    <glyph glyph-name="Eogonek.ss03" horiz-adv-x="769" 
d="M210 270v-159h499v-111h-632v647h631v-111h-498v-161h408v-105h-408zM720 -86v-114h-151v114h151z" />
    <glyph glyph-name="Gbreve.ss03" horiz-adv-x="914" 
d="M449 -13q-119 0 -208.5 37.5t-138.5 111.5t-49 182q0 110 51.5 186t144.5 116t215 40q164 0 259 -67t105 -180h-128q-19 59 -76.5 95.5t-159.5 36.5q-131 0 -202.5 -62t-71.5 -165q0 -100 63.5 -158t200.5 -58q100 0 166.5 36.5t92.5 91.5h-248v85h386v-315h-115
q0 37 5.5 86.5t12.5 96.5q-31 -93 -109.5 -144.5t-195.5 -51.5zM530 845v-114h-151v114h151z" />
    <glyph glyph-name="uni0122.ss03" horiz-adv-x="914" 
d="M449 -13q-119 0 -208.5 37.5t-138.5 111.5t-49 182q0 110 51.5 186t144.5 116t215 40q164 0 259 -67t105 -180h-128q-19 59 -76.5 95.5t-159.5 36.5q-131 0 -202.5 -62t-71.5 -165q0 -100 63.5 -158t200.5 -58q100 0 166.5 36.5t92.5 91.5h-248v85h386v-315h-115
q0 37 5.5 86.5t12.5 96.5q-31 -93 -109.5 -144.5t-195.5 -51.5zM529 -85v-115h-150v115h150z" />
    <glyph glyph-name="Gdotaccent.ss03" horiz-adv-x="914" 
d="M449 -13q-119 0 -208.5 37.5t-138.5 111.5t-49 182q0 110 51.5 186t144.5 116t215 40q164 0 259 -67t105 -180h-128q-19 59 -76.5 95.5t-159.5 36.5q-131 0 -202.5 -62t-71.5 -165q0 -100 63.5 -158t200.5 -58q100 0 166.5 36.5t92.5 91.5h-248v85h386v-315h-115
q0 37 5.5 86.5t12.5 96.5q-31 -93 -109.5 -144.5t-195.5 -51.5zM530 845v-114h-151v114h151z" />
    <glyph glyph-name="Iacute.ss03" horiz-adv-x="324" 
d="M96 647h133v-647h-133v647zM238 841v-114h-151v114h151z" />
    <glyph glyph-name="Icircumflex.ss03" horiz-adv-x="324" 
d="M96 647h133v-647h-133v647zM238 841v-114h-151v114h151z" />
    <glyph glyph-name="Igrave.ss03" horiz-adv-x="324" 
d="M96 647h133v-647h-133v647zM87 841h151v-114h-151v114z" />
    <glyph glyph-name="Imacron.ss03" horiz-adv-x="324" 
d="M96 647h133v-647h-133v647zM238 841v-114h-151v114h151z" />
    <glyph glyph-name="Iogonek.ss03" horiz-adv-x="324" 
d="M96 647h133v-647h-133v647zM237 -86v-114h-151v114h151z" />
    <glyph glyph-name="uni0136.ss03" horiz-adv-x="814" 
d="M77 647h133v-306l344 306h189l-357 -304l403 -343h-192l-387 339v-339h-133v647zM460 -85v-115h-150v115h150z" />
    <glyph glyph-name="Lacute.ss03" horiz-adv-x="687" 
d="M210 647v-536h430v-111h-563v647h133zM219 841v-114h-151v114h151z" />
    <glyph glyph-name="Lcaron.ss03" horiz-adv-x="687" 
d="M210 647v-536h430v-111h-563v647h133zM522 697v-114h-150v114h150z" />
    <glyph glyph-name="uni013B.ss03" horiz-adv-x="687" 
d="M210 647v-536h430v-111h-563v647h133zM465 -85v-115h-150v115h150z" />
    <glyph glyph-name="Nacute.ss03" horiz-adv-x="901" 
d="M691 0l-481 470v-470h-133v647h133l481 -474v474h133v-647h-133zM533 841v-114h-151v114h151z" />
    <glyph glyph-name="Ncaron.ss03" horiz-adv-x="901" 
d="M691 0l-481 470v-470h-133v647h133l481 -474v474h133v-647h-133zM533 841v-114h-151v114h151z" />
    <glyph glyph-name="uni0145.ss03" horiz-adv-x="901" 
d="M691 0l-481 470v-470h-133v647h133l481 -474v474h133v-647h-133zM535 -85v-115h-150v115h150z" />
    <glyph glyph-name="Ntilde.ss03" horiz-adv-x="901" 
d="M691 0l-481 470v-470h-133v647h133l481 -474v474h133v-647h-133zM533 841v-114h-151v114h151z" />
    <glyph glyph-name="Oacute.ss03" horiz-adv-x="924" 
d="M462 -13q-129 0 -220.5 40.5t-140 115.5t-48.5 180q0 106 48.5 181t140 115.5t220.5 40.5q130 0 221 -40.5t139.5 -115.5t48.5 -181q0 -105 -48.5 -180t-139.5 -115.5t-221 -40.5zM462 102q80 0 140.5 24t95 73t34.5 124t-34.5 124t-95 73.5t-140.5 24.5
q-79 0 -141 -24.5t-97 -73.5t-35 -124t35 -124t97 -73t141 -24zM538 845v-114h-151v114h151z" />
    <glyph glyph-name="Ocircumflex.ss03" horiz-adv-x="924" 
d="M462 -13q-129 0 -220.5 40.5t-140 115.5t-48.5 180q0 106 48.5 181t140 115.5t220.5 40.5q130 0 221 -40.5t139.5 -115.5t48.5 -181q0 -105 -48.5 -180t-139.5 -115.5t-221 -40.5zM462 102q80 0 140.5 24t95 73t34.5 124t-34.5 124t-95 73.5t-140.5 24.5
q-79 0 -141 -24.5t-97 -73.5t-35 -124t35 -124t97 -73t141 -24zM538 845v-114h-151v114h151z" />
    <glyph glyph-name="Ograve.ss03" horiz-adv-x="924" 
d="M462 -13q-129 0 -220.5 40.5t-140 115.5t-48.5 180q0 106 48.5 181t140 115.5t220.5 40.5q130 0 221 -40.5t139.5 -115.5t48.5 -181q0 -105 -48.5 -180t-139.5 -115.5t-221 -40.5zM462 102q80 0 140.5 24t95 73t34.5 124t-34.5 124t-95 73.5t-140.5 24.5
q-79 0 -141 -24.5t-97 -73.5t-35 -124t35 -124t97 -73t141 -24zM387 845h151v-114h-151v114z" />
    <glyph glyph-name="Ohungarumlaut.ss03" horiz-adv-x="924" 
d="M462 -13q-129 0 -220.5 40.5t-140 115.5t-48.5 180q0 106 48.5 181t140 115.5t220.5 40.5q130 0 221 -40.5t139.5 -115.5t48.5 -181q0 -105 -48.5 -180t-139.5 -115.5t-221 -40.5zM462 102q80 0 140.5 24t95 73t34.5 124t-34.5 124t-95 73.5t-140.5 24.5
q-79 0 -141 -24.5t-97 -73.5t-35 -124t35 -124t97 -73t141 -24zM422 844v-114h-151v114h151zM639 844v-114h-151v114h151z" />
    <glyph glyph-name="Omacron.ss03" horiz-adv-x="924" 
d="M462 -13q-129 0 -220.5 40.5t-140 115.5t-48.5 180q0 106 48.5 181t140 115.5t220.5 40.5q130 0 221 -40.5t139.5 -115.5t48.5 -181q0 -105 -48.5 -180t-139.5 -115.5t-221 -40.5zM462 102q80 0 140.5 24t95 73t34.5 124t-34.5 124t-95 73.5t-140.5 24.5
q-79 0 -141 -24.5t-97 -73.5t-35 -124t35 -124t97 -73t141 -24zM538 845v-114h-151v114h151z" />
    <glyph glyph-name="Otilde.ss03" horiz-adv-x="924" 
d="M462 -13q-129 0 -220.5 40.5t-140 115.5t-48.5 180q0 106 48.5 181t140 115.5t220.5 40.5q130 0 221 -40.5t139.5 -115.5t48.5 -181q0 -105 -48.5 -180t-139.5 -115.5t-221 -40.5zM462 102q80 0 140.5 24t95 73t34.5 124t-34.5 124t-95 73.5t-140.5 24.5
q-79 0 -141 -24.5t-97 -73.5t-35 -124t35 -124t97 -73t141 -24zM538 845v-114h-151v114h151z" />
    <glyph glyph-name="Racute.ss03" horiz-adv-x="826" 
d="M77 0v647h439q112 0 180 -47t68 -149q0 -54 -21.5 -88.5t-58 -53.5t-82.5 -27q75 -6 111.5 -32.5t36.5 -95.5v-154h-133v145q0 37 -13 57.5t-46.5 28.5t-96.5 8h-251v-239h-133zM210 343h306q56 0 85.5 27t29.5 73q0 90 -115 90h-306v-190zM484 841v-114h-151v114h151z
" />
    <glyph glyph-name="Rcaron.ss03" horiz-adv-x="826" 
d="M77 0v647h439q112 0 180 -47t68 -149q0 -54 -21.5 -88.5t-58 -53.5t-82.5 -27q75 -6 111.5 -32.5t36.5 -95.5v-154h-133v145q0 37 -13 57.5t-46.5 28.5t-96.5 8h-251v-239h-133zM210 343h306q56 0 85.5 27t29.5 73q0 90 -115 90h-306v-190zM484 841v-114h-151v114h151z
" />
    <glyph glyph-name="uni0156.ss03" horiz-adv-x="826" 
d="M77 0v647h439q112 0 180 -47t68 -149q0 -54 -21.5 -88.5t-58 -53.5t-82.5 -27q75 -6 111.5 -32.5t36.5 -95.5v-154h-133v145q0 37 -13 57.5t-46.5 28.5t-96.5 8h-251v-239h-133zM210 343h306q56 0 85.5 27t29.5 73q0 90 -115 90h-306v-190zM480 -90v-115h-150v115h150z
" />
    <glyph glyph-name="Sacute.ss03" horiz-adv-x="694" 
d="M34 218h135q4 -34 31.5 -61.5t72.5 -43t101 -15.5q76 0 112.5 24t36.5 66q0 27 -20 41.5t-63 24t-113 19.5q-73 11 -135 33.5t-99 62t-37 100.5q0 86 73.5 138.5t212.5 52.5q140 0 215.5 -59.5t73.5 -163.5h-130q-4 59 -49.5 85t-114.5 26q-64 0 -105.5 -19t-41.5 -65
q0 -24 18.5 -40t64.5 -27.5t128 -24.5q76 -11 132.5 -31.5t88.5 -58.5t32 -102q0 -88 -69 -141t-220 -53q-90 0 -154 24t-104 60.5t-58 76t-15 71.5zM415 845v-114h-151v114h151z" />
    <glyph glyph-name="Scaron.ss03" horiz-adv-x="694" 
d="M34 218h135q4 -34 31.5 -61.5t72.5 -43t101 -15.5q76 0 112.5 24t36.5 66q0 27 -20 41.5t-63 24t-113 19.5q-73 11 -135 33.5t-99 62t-37 100.5q0 86 73.5 138.5t212.5 52.5q140 0 215.5 -59.5t73.5 -163.5h-130q-4 59 -49.5 85t-114.5 26q-64 0 -105.5 -19t-41.5 -65
q0 -24 18.5 -40t64.5 -27.5t128 -24.5q76 -11 132.5 -31.5t88.5 -58.5t32 -102q0 -88 -69 -141t-220 -53q-90 0 -154 24t-104 60.5t-58 76t-15 71.5zM415 845v-114h-151v114h151z" />
    <glyph glyph-name="Scedilla.ss03" horiz-adv-x="694" 
d="M34 218h135q4 -34 31.5 -61.5t72.5 -43t101 -15.5q76 0 112.5 24t36.5 66q0 27 -20 41.5t-63 24t-113 19.5q-73 11 -135 33.5t-99 62t-37 100.5q0 86 73.5 138.5t212.5 52.5q140 0 215.5 -59.5t73.5 -163.5h-130q-4 59 -49.5 85t-114.5 26q-64 0 -105.5 -19t-41.5 -65
q0 -24 18.5 -40t64.5 -27.5t128 -24.5q76 -11 132.5 -31.5t88.5 -58.5t32 -102q0 -88 -69 -141t-220 -53q-90 0 -154 24t-104 60.5t-58 76t-15 71.5zM420 -90v-115h-151v115h151z" />
    <glyph glyph-name="uni0218.ss03" horiz-adv-x="694" 
d="M34 218h135q4 -34 31.5 -61.5t72.5 -43t101 -15.5q76 0 112.5 24t36.5 66q0 27 -20 41.5t-63 24t-113 19.5q-73 11 -135 33.5t-99 62t-37 100.5q0 86 73.5 138.5t212.5 52.5q140 0 215.5 -59.5t73.5 -163.5h-130q-4 59 -49.5 85t-114.5 26q-64 0 -105.5 -19t-41.5 -65
q0 -24 18.5 -40t64.5 -27.5t128 -24.5q76 -11 132.5 -31.5t88.5 -58.5t32 -102q0 -88 -69 -141t-220 -53q-90 0 -154 24t-104 60.5t-58 76t-15 71.5zM419 -90v-115h-150v115h150z" />
    <glyph glyph-name="Tcaron.ss03" horiz-adv-x="722" 
d="M20 647h682v-111h-274v-536h-133v536h-275v111zM437 841v-114h-151v114h151z" />
    <glyph glyph-name="uni0162.ss03" horiz-adv-x="722" 
d="M20 647h682v-111h-274v-536h-133v536h-275v111zM437 -85v-115h-151v115h151z" />
    <glyph glyph-name="uni021A.ss03" horiz-adv-x="722" 
d="M20 647h682v-111h-274v-536h-133v536h-275v111zM436 -85v-115h-150v115h150z" />
    <glyph glyph-name="Uacute.ss03" horiz-adv-x="881" 
d="M671 286v361h133v-375q0 -81 -29 -135.5t-79 -87.5t-115.5 -47.5t-138.5 -14.5q-76 0 -142.5 14.5t-116.5 47.5t-78 87.5t-28 135.5v375h133v-361q0 -76 30 -115.5t82.5 -54t119.5 -14.5q65 0 116.5 14.5t82 54t30.5 115.5zM518 841v-114h-151v114h151z" />
    <glyph glyph-name="Ucircumflex.ss03" horiz-adv-x="881" 
d="M671 286v361h133v-375q0 -81 -29 -135.5t-79 -87.5t-115.5 -47.5t-138.5 -14.5q-76 0 -142.5 14.5t-116.5 47.5t-78 87.5t-28 135.5v375h133v-361q0 -76 30 -115.5t82.5 -54t119.5 -14.5q65 0 116.5 14.5t82 54t30.5 115.5zM518 841v-114h-151v114h151z" />
    <glyph glyph-name="Ugrave.ss03" horiz-adv-x="881" 
d="M671 286v361h133v-375q0 -81 -29 -135.5t-79 -87.5t-115.5 -47.5t-138.5 -14.5q-76 0 -142.5 14.5t-116.5 47.5t-78 87.5t-28 135.5v375h133v-361q0 -76 30 -115.5t82.5 -54t119.5 -14.5q65 0 116.5 14.5t82 54t30.5 115.5zM367 841h151v-114h-151v114z" />
    <glyph glyph-name="Uhungarumlaut.ss03" horiz-adv-x="881" 
d="M671 286v361h133v-375q0 -81 -29 -135.5t-79 -87.5t-115.5 -47.5t-138.5 -14.5q-76 0 -142.5 14.5t-116.5 47.5t-78 87.5t-28 135.5v375h133v-361q0 -76 30 -115.5t82.5 -54t119.5 -14.5q65 0 116.5 14.5t82 54t30.5 115.5zM407 647v-114h-151v114h151zM624 647v-114
h-151v114h151z" />
    <glyph glyph-name="Umacron.ss03" horiz-adv-x="881" 
d="M671 286v361h133v-375q0 -81 -29 -135.5t-79 -87.5t-115.5 -47.5t-138.5 -14.5q-76 0 -142.5 14.5t-116.5 47.5t-78 87.5t-28 135.5v375h133v-361q0 -76 30 -115.5t82.5 -54t119.5 -14.5q65 0 116.5 14.5t82 54t30.5 115.5zM518 841v-114h-151v114h151z" />
    <glyph glyph-name="Uogonek.ss03" horiz-adv-x="881" 
d="M671 286v361h133v-375q0 -81 -29 -135.5t-79 -87.5t-115.5 -47.5t-138.5 -14.5q-76 0 -142.5 14.5t-116.5 47.5t-78 87.5t-28 135.5v375h133v-361q0 -76 30 -115.5t82.5 -54t119.5 -14.5q65 0 116.5 14.5t82 54t30.5 115.5zM812 -91v-114h-151v114h151z" />
    <glyph glyph-name="Uring.ss03" horiz-adv-x="881" 
d="M671 286v361h133v-375q0 -81 -29 -135.5t-79 -87.5t-115.5 -47.5t-138.5 -14.5q-76 0 -142.5 14.5t-116.5 47.5t-78 87.5t-28 135.5v375h133v-361q0 -76 30 -115.5t82.5 -54t119.5 -14.5q65 0 116.5 14.5t82 54t30.5 115.5zM518 841v-114h-151v114h151z" />
    <glyph glyph-name="Wacute.ss03" horiz-adv-x="1300" 
d="M293 0l-273 647h147l209 -519l199 519h153l199 -519l209 519h144l-270 -647h-163l-195 507l-196 -507h-163zM730 857v-114h-151v114h151z" />
    <glyph glyph-name="Wcircumflex.ss03" horiz-adv-x="1300" 
d="M293 0l-273 647h147l209 -519l199 519h153l199 -519l209 519h144l-270 -647h-163l-195 507l-196 -507h-163zM730 857v-114h-151v114h151z" />
    <glyph glyph-name="Wgrave.ss03" horiz-adv-x="1300" 
d="M293 0l-273 647h147l209 -519l199 519h153l199 -519l209 519h144l-270 -647h-163l-195 507l-196 -507h-163zM579 857h151v-114h-151v114z" />
    <glyph glyph-name="Yacute.ss03" horiz-adv-x="740" 
d="M721 647l-284 -443v-204h-134v204l-284 443h154l199 -322l195 322h154zM446 841v-114h-151v114h151z" />
    <glyph glyph-name="Ycircumflex.ss03" horiz-adv-x="740" 
d="M721 647l-284 -443v-204h-134v204l-284 443h154l199 -322l195 322h154zM446 841v-114h-151v114h151z" />
    <glyph glyph-name="Ygrave.ss03" horiz-adv-x="740" 
d="M721 647l-284 -443v-204h-134v204l-284 443h154l199 -322l195 322h154zM295 841h151v-114h-151v114z" />
    <glyph glyph-name="Zacute.ss03" horiz-adv-x="821" 
d="M63 647h695v-111l-531 -425h531v-111h-695v111l531 425h-531v111zM487 857v-114h-151v114h151z" />
    <glyph glyph-name="Zcaron.ss03" horiz-adv-x="821" 
d="M63 647h695v-111l-531 -425h531v-111h-695v111l531 425h-531v111zM487 857v-114h-151v114h151z" />
    <glyph glyph-name="i.loclTRK" horiz-adv-x="247" 
d="M58 497h130v-497h-130v497zM199 715v-114h-151v114h151z" />
    <glyph glyph-name="aacute.ss03" horiz-adv-x="723" 
d="M302 -11q-74 0 -134.5 32.5t-96 91t-35.5 135.5q0 79 36 137t98 90.5t139 32.5q97 0 151.5 -44t74.5 -115v148h130v-497h-121l-2.5 19.5t-4.5 49.5t-2 59v32q-14 -45 -43 -84t-76 -63t-114 -24zM344 89q89 0 140 44t51 115q0 77 -51.5 118t-139.5 41q-83 0 -129 -43.5
t-46 -115.5t48 -115.5t127 -43.5zM420 717v-114h-151v114h151z" />
    <glyph glyph-name="abreve.ss03" horiz-adv-x="723" 
d="M302 -11q-74 0 -134.5 32.5t-96 91t-35.5 135.5q0 79 36 137t98 90.5t139 32.5q97 0 151.5 -44t74.5 -115v148h130v-497h-121l-2.5 19.5t-4.5 49.5t-2 59v32q-14 -45 -43 -84t-76 -63t-114 -24zM344 89q89 0 140 44t51 115q0 77 -51.5 118t-139.5 41q-83 0 -129 -43.5
t-46 -115.5t48 -115.5t127 -43.5zM420 717v-114h-151v114h151z" />
    <glyph glyph-name="acircumflex.ss03" horiz-adv-x="723" 
d="M302 -11q-74 0 -134.5 32.5t-96 91t-35.5 135.5q0 79 36 137t98 90.5t139 32.5q97 0 151.5 -44t74.5 -115v148h130v-497h-121l-2.5 19.5t-4.5 49.5t-2 59v32q-14 -45 -43 -84t-76 -63t-114 -24zM344 89q89 0 140 44t51 115q0 77 -51.5 118t-139.5 41q-83 0 -129 -43.5
t-46 -115.5t48 -115.5t127 -43.5zM420 717v-114h-151v114h151z" />
    <glyph glyph-name="agrave.ss03" horiz-adv-x="723" 
d="M302 -11q-74 0 -134.5 32.5t-96 91t-35.5 135.5q0 79 36 137t98 90.5t139 32.5q97 0 151.5 -44t74.5 -115v148h130v-497h-121l-2.5 19.5t-4.5 49.5t-2 59v32q-14 -45 -43 -84t-76 -63t-114 -24zM344 89q89 0 140 44t51 115q0 77 -51.5 118t-139.5 41q-83 0 -129 -43.5
t-46 -115.5t48 -115.5t127 -43.5zM269 717h151v-114h-151v114z" />
    <glyph glyph-name="amacron.ss03" horiz-adv-x="723" 
d="M302 -11q-74 0 -134.5 32.5t-96 91t-35.5 135.5q0 79 36 137t98 90.5t139 32.5q97 0 151.5 -44t74.5 -115v148h130v-497h-121l-2.5 19.5t-4.5 49.5t-2 59v32q-14 -45 -43 -84t-76 -63t-114 -24zM344 89q89 0 140 44t51 115q0 77 -51.5 118t-139.5 41q-83 0 -129 -43.5
t-46 -115.5t48 -115.5t127 -43.5zM420 717v-114h-151v114h151z" />
    <glyph glyph-name="aogonek.ss03" horiz-adv-x="723" 
d="M302 -11q-74 0 -134.5 32.5t-96 91t-35.5 135.5q0 79 36 137t98 90.5t139 32.5q97 0 151.5 -44t74.5 -115v148h130v-497h-121l-2.5 19.5t-4.5 49.5t-2 59v32q-14 -45 -43 -84t-76 -63t-114 -24zM344 89q89 0 140 44t51 115q0 77 -51.5 118t-139.5 41q-83 0 -129 -43.5
t-46 -115.5t48 -115.5t127 -43.5zM675 -86v-114h-151v114h151z" />
    <glyph glyph-name="aring.ss03" horiz-adv-x="723" 
d="M302 -11q-74 0 -134.5 32.5t-96 91t-35.5 135.5q0 79 36 137t98 90.5t139 32.5q97 0 151.5 -44t74.5 -115v148h130v-497h-121l-2.5 19.5t-4.5 49.5t-2 59v32q-14 -45 -43 -84t-76 -63t-114 -24zM344 89q89 0 140 44t51 115q0 77 -51.5 118t-139.5 41q-83 0 -129 -43.5
t-46 -115.5t48 -115.5t127 -43.5zM420 717v-114h-151v114h151z" />
    <glyph glyph-name="atilde.ss03" horiz-adv-x="723" 
d="M302 -11q-74 0 -134.5 32.5t-96 91t-35.5 135.5q0 79 36 137t98 90.5t139 32.5q97 0 151.5 -44t74.5 -115v148h130v-497h-121l-2.5 19.5t-4.5 49.5t-2 59v32q-14 -45 -43 -84t-76 -63t-114 -24zM344 89q89 0 140 44t51 115q0 77 -51.5 118t-139.5 41q-83 0 -129 -43.5
t-46 -115.5t48 -115.5t127 -43.5zM420 717v-114h-151v114h151z" />
    <glyph glyph-name="cacute.ss03" horiz-adv-x="686" 
d="M650 196q-7 -98 -84.5 -153t-209.5 -55q-92 0 -164.5 29.5t-114 87t-41.5 142.5t41.5 143t114 88t164.5 30q131 0 207.5 -54.5t85.5 -151.5h-119q-17 50 -63 78t-111 28q-52 0 -94.5 -18t-68 -53.5t-25.5 -89.5q0 -53 25 -88.5t68 -53t95 -17.5q70 0 114.5 28t60.5 80
h119zM425 717v-114h-151v114h151z" />
    <glyph glyph-name="ccaron.ss03" horiz-adv-x="686" 
d="M650 196q-7 -98 -84.5 -153t-209.5 -55q-92 0 -164.5 29.5t-114 87t-41.5 142.5t41.5 143t114 88t164.5 30q131 0 207.5 -54.5t85.5 -151.5h-119q-17 50 -63 78t-111 28q-52 0 -94.5 -18t-68 -53.5t-25.5 -89.5q0 -53 25 -88.5t68 -53t95 -17.5q70 0 114.5 28t60.5 80
h119zM425 717v-114h-151v114h151z" />
    <glyph glyph-name="ccedilla.ss03" horiz-adv-x="686" 
d="M650 196q-7 -98 -84.5 -153t-209.5 -55q-92 0 -164.5 29.5t-114 87t-41.5 142.5t41.5 143t114 88t164.5 30q131 0 207.5 -54.5t85.5 -151.5h-119q-17 50 -63 78t-111 28q-52 0 -94.5 -18t-68 -53.5t-25.5 -89.5q0 -53 25 -88.5t68 -53t95 -17.5q70 0 114.5 28t60.5 80
h119zM431 -95v-115h-151v115h151z" />
    <glyph glyph-name="dcaron.ss03" horiz-adv-x="745" 
d="M302 -11q-75 0 -135.5 32.5t-95.5 91t-35 135.5q0 79 34.5 137t94.5 90.5t137 32.5q101 0 157 -44t76 -115v348h130v-697h-121q-3 23 -6 59.5t-3 68.5v32q-14 -45 -43 -84t-76 -63t-114 -24zM344 89q89 0 140 44t51 115q0 77 -51.5 118.5t-139.5 41.5q-83 0 -129 -44
t-46 -116t48 -115.5t127 -43.5zM870 697v-114h-150v114h150z" />
    <glyph glyph-name="eacute.ss03" horiz-adv-x="678" 
d="M513 165h126q-13 -76 -83 -126.5t-197 -50.5q-95 0 -168 30.5t-114 88.5t-41 140t40 140.5t111.5 89.5t167.5 31q146 0 219.5 -69.5t66.5 -214.5h-474q8 -58 56 -97t133 -39q62 0 103.5 21.5t53.5 55.5zM349 409q-72 0 -117 -31.5t-58 -77.5h338q-5 50 -47.5 79.5
t-115.5 29.5zM428 717v-114h-151v114h151z" />
    <glyph glyph-name="ecaron.ss03" horiz-adv-x="678" 
d="M513 165h126q-13 -76 -83 -126.5t-197 -50.5q-95 0 -168 30.5t-114 88.5t-41 140t40 140.5t111.5 89.5t167.5 31q146 0 219.5 -69.5t66.5 -214.5h-474q8 -58 56 -97t133 -39q62 0 103.5 21.5t53.5 55.5zM349 409q-72 0 -117 -31.5t-58 -77.5h338q-5 50 -47.5 79.5
t-115.5 29.5zM428 717v-114h-151v114h151z" />
    <glyph glyph-name="ecircumflex.ss03" horiz-adv-x="678" 
d="M513 165h126q-13 -76 -83 -126.5t-197 -50.5q-95 0 -168 30.5t-114 88.5t-41 140t40 140.5t111.5 89.5t167.5 31q146 0 219.5 -69.5t66.5 -214.5h-474q8 -58 56 -97t133 -39q62 0 103.5 21.5t53.5 55.5zM349 409q-72 0 -117 -31.5t-58 -77.5h338q-5 50 -47.5 79.5
t-115.5 29.5zM428 717v-114h-151v114h151z" />
    <glyph glyph-name="egrave.ss03" horiz-adv-x="678" 
d="M513 165h126q-13 -76 -83 -126.5t-197 -50.5q-95 0 -168 30.5t-114 88.5t-41 140t40 140.5t111.5 89.5t167.5 31q146 0 219.5 -69.5t66.5 -214.5h-474q8 -58 56 -97t133 -39q62 0 103.5 21.5t53.5 55.5zM349 409q-72 0 -117 -31.5t-58 -77.5h338q-5 50 -47.5 79.5
t-115.5 29.5zM277 717h151v-114h-151v114z" />
    <glyph glyph-name="emacron.ss03" horiz-adv-x="678" 
d="M513 165h126q-13 -76 -83 -126.5t-197 -50.5q-95 0 -168 30.5t-114 88.5t-41 140t40 140.5t111.5 89.5t167.5 31q146 0 219.5 -69.5t66.5 -214.5h-474q8 -58 56 -97t133 -39q62 0 103.5 21.5t53.5 55.5zM349 409q-72 0 -117 -31.5t-58 -77.5h338q-5 50 -47.5 79.5
t-115.5 29.5zM428 717v-114h-151v114h151z" />
    <glyph glyph-name="eogonek.ss03" horiz-adv-x="678" 
d="M513 165h126q-13 -76 -83 -126.5t-197 -50.5q-95 0 -168 30.5t-114 88.5t-41 140t40 140.5t111.5 89.5t167.5 31q146 0 219.5 -69.5t66.5 -214.5h-474q8 -58 56 -97t133 -39q62 0 103.5 21.5t53.5 55.5zM349 409q-72 0 -117 -31.5t-58 -77.5h338q-5 50 -47.5 79.5
t-115.5 29.5zM647 -86v-114h-151v114h151z" />
    <glyph glyph-name="gbreve.ss03" horiz-adv-x="671" 
d="M475 -205v24q0 46 -29.5 64t-80.5 18h-155q-60 0 -94.5 12.5t-49 34t-14.5 48.5q0 51 43 71.5t108 20.5q-77 20 -122 71t-45 130q0 67 33 116t94.5 76t144.5 27q23 0 44.5 -3t42.5 -8l251 -1v-98q-41 -1 -84 8t-80 22q40 -25 68 -60.5t28 -84.5q0 -98 -72.5 -152.5
t-197.5 -54.5q-63 -2 -93.5 -10.5t-30.5 -33.5q0 -32 46 -32h163q101 0 156.5 -34t55.5 -124v-47h-130zM308 170q65 0 104.5 31t39.5 87t-39.5 88.5t-104.5 32.5t-105 -32t-40 -89q0 -56 39.5 -87t105.5 -31zM384 717v-114h-151v114h151z" />
    <glyph glyph-name="uni0123.ss03" horiz-adv-x="671" 
d="M475 -205v24q0 46 -29.5 64t-80.5 18h-155q-60 0 -94.5 12.5t-49 34t-14.5 48.5q0 51 43 71.5t108 20.5q-77 20 -122 71t-45 130q0 67 33 116t94.5 76t144.5 27q23 0 44.5 -3t42.5 -8l251 -1v-98q-41 -1 -84 8t-80 22q40 -25 68 -60.5t28 -84.5q0 -98 -72.5 -152.5
t-197.5 -54.5q-63 -2 -93.5 -10.5t-30.5 -33.5q0 -32 46 -32h163q101 0 156.5 -34t55.5 -124v-47h-130zM308 170q65 0 104.5 31t39.5 87t-39.5 88.5t-104.5 32.5t-105 -32t-40 -89q0 -56 39.5 -87t105.5 -31zM233 595v115h151v-115h-151z" />
    <glyph glyph-name="iacute.ss03" horiz-adv-x="247" 
d="M58 497h130v-497h-130v497zM199 715v-114h-151v114h151z" />
    <glyph glyph-name="icircumflex.ss03" horiz-adv-x="247" 
d="M58 497h130v-497h-130v497zM199 715v-114h-151v114h151z" />
    <glyph glyph-name="igrave.ss03" horiz-adv-x="247" 
d="M58 497h130v-497h-130v497zM48 715h151v-114h-151v114z" />
    <glyph glyph-name="imacron.ss03" horiz-adv-x="247" 
d="M58 497h130v-497h-130v497zM199 715v-114h-151v114h151z" />
    <glyph glyph-name="iogonek.ss03" horiz-adv-x="268" 
d="M209 715v-114h-151v114h151zM68 497h130v-497h-130v497zM269 -86v-114h-151v114h151z" />
    <glyph glyph-name="uni0137.ss03" horiz-adv-x="649" 
d="M69 697h130v-697h-130v697zM618 497l-252 -222l275 -275h-165l-274 279l239 218h177zM399 -85v-115h-150v115h150z" />
    <glyph glyph-name="lacute.ss03" horiz-adv-x="271" 
d="M70 697h130v-697h-130v697zM216 907v-114h-151v114h151z" />
    <glyph glyph-name="lcaron.ss03" horiz-adv-x="421" 
d="M70 697h130v-697h-130v697zM401 697v-114h-150v114h150z" />
    <glyph glyph-name="uni013C.ss03" horiz-adv-x="271" 
d="M70 697h130v-697h-130v697zM211 -85v-115h-150v115h150z" />
    <glyph glyph-name="nacute.ss03" horiz-adv-x="693" 
d="M60 497h130v-143q13 40 44 75t78 57t109 22q61 0 109.5 -21.5t76.5 -66.5t28 -116v-304h-130v281q0 63 -30.5 92.5t-99.5 29.5q-45 0 -82.5 -15t-64.5 -39.5t-38 -52.5v-296h-130v497zM456 717v-114h-151v114h151z" />
    <glyph glyph-name="ncaron.ss03" horiz-adv-x="693" 
d="M60 497h130v-143q13 40 44 75t78 57t109 22q61 0 109.5 -21.5t76.5 -66.5t28 -116v-304h-130v281q0 63 -30.5 92.5t-99.5 29.5q-45 0 -82.5 -15t-64.5 -39.5t-38 -52.5v-296h-130v497zM456 717v-114h-151v114h151z" />
    <glyph glyph-name="uni0146.ss03" horiz-adv-x="693" 
d="M60 497h130v-143q13 40 44 75t78 57t109 22q61 0 109.5 -21.5t76.5 -66.5t28 -116v-304h-130v281q0 63 -30.5 92.5t-99.5 29.5q-45 0 -82.5 -15t-64.5 -39.5t-38 -52.5v-296h-130v497zM423 -85v-115h-150v115h150z" />
    <glyph glyph-name="ntilde.ss03" horiz-adv-x="693" 
d="M60 497h130v-143q13 40 44 75t78 57t109 22q61 0 109.5 -21.5t76.5 -66.5t28 -116v-304h-130v281q0 63 -30.5 92.5t-99.5 29.5q-45 0 -82.5 -15t-64.5 -39.5t-38 -52.5v-296h-130v497zM456 717v-114h-151v114h151z" />
    <glyph glyph-name="oacute.ss03" horiz-adv-x="704" 
d="M353 -12q-94 0 -165.5 30t-111.5 87.5t-40 141.5t40 142.5t111.5 88.5t165.5 30t164.5 -30t110.5 -88.5t40 -142.5t-40 -141.5t-110.5 -87.5t-164.5 -30zM353 88q52 0 93.5 18.5t65.5 54t24 86.5t-24 87.5t-65 55.5t-94 19q-52 0 -94 -19t-66.5 -55t-24.5 -88
q0 -76 53 -117.5t132 -41.5zM429 717v-114h-151v114h151z" />
    <glyph glyph-name="ocircumflex.ss03" horiz-adv-x="704" 
d="M353 -12q-94 0 -165.5 30t-111.5 87.5t-40 141.5t40 142.5t111.5 88.5t165.5 30t164.5 -30t110.5 -88.5t40 -142.5t-40 -141.5t-110.5 -87.5t-164.5 -30zM353 88q52 0 93.5 18.5t65.5 54t24 86.5t-24 87.5t-65 55.5t-94 19q-52 0 -94 -19t-66.5 -55t-24.5 -88
q0 -76 53 -117.5t132 -41.5zM429 717v-114h-151v114h151z" />
    <glyph glyph-name="ograve.ss03" horiz-adv-x="704" 
d="M353 -12q-94 0 -165.5 30t-111.5 87.5t-40 141.5t40 142.5t111.5 88.5t165.5 30t164.5 -30t110.5 -88.5t40 -142.5t-40 -141.5t-110.5 -87.5t-164.5 -30zM353 88q52 0 93.5 18.5t65.5 54t24 86.5t-24 87.5t-65 55.5t-94 19q-52 0 -94 -19t-66.5 -55t-24.5 -88
q0 -76 53 -117.5t132 -41.5zM278 717h151v-114h-151v114z" />
    <glyph glyph-name="ohungarumlaut.ss03" horiz-adv-x="704" 
d="M353 -12q-94 0 -165.5 30t-111.5 87.5t-40 141.5t40 142.5t111.5 88.5t165.5 30t164.5 -30t110.5 -88.5t40 -142.5t-40 -141.5t-110.5 -87.5t-164.5 -30zM353 88q52 0 93.5 18.5t65.5 54t24 86.5t-24 87.5t-65 55.5t-94 19q-52 0 -94 -19t-66.5 -55t-24.5 -88
q0 -76 53 -117.5t132 -41.5zM313 716v-114h-151v114h151zM530 716v-114h-151v114h151z" />
    <glyph glyph-name="omacron.ss03" horiz-adv-x="704" 
d="M353 -12q-94 0 -165.5 30t-111.5 87.5t-40 141.5t40 142.5t111.5 88.5t165.5 30t164.5 -30t110.5 -88.5t40 -142.5t-40 -141.5t-110.5 -87.5t-164.5 -30zM353 88q52 0 93.5 18.5t65.5 54t24 86.5t-24 87.5t-65 55.5t-94 19q-52 0 -94 -19t-66.5 -55t-24.5 -88
q0 -76 53 -117.5t132 -41.5zM429 717v-114h-151v114h151z" />
    <glyph glyph-name="otilde.ss03" horiz-adv-x="704" 
d="M353 -12q-94 0 -165.5 30t-111.5 87.5t-40 141.5t40 142.5t111.5 88.5t165.5 30t164.5 -30t110.5 -88.5t40 -142.5t-40 -141.5t-110.5 -87.5t-164.5 -30zM353 88q52 0 93.5 18.5t65.5 54t24 86.5t-24 87.5t-65 55.5t-94 19q-52 0 -94 -19t-66.5 -55t-24.5 -88
q0 -76 53 -117.5t132 -41.5zM429 717v-114h-151v114h151z" />
    <glyph glyph-name="racute.ss03" horiz-adv-x="401" 
d="M60 497h130v-149q7 23 21.5 50.5t37.5 52.5t55.5 41t76.5 16v-118q-50 0 -88.5 -17.5t-64 -44.5t-38.5 -54v-274h-130v497zM312 717v-114h-151v114h151z" />
    <glyph glyph-name="rcaron.ss03" horiz-adv-x="401" 
d="M60 497h130v-149q7 23 21.5 50.5t37.5 52.5t55.5 41t76.5 16v-118q-50 0 -88.5 -17.5t-64 -44.5t-38.5 -54v-274h-130v497zM312 717v-114h-151v114h151z" />
    <glyph glyph-name="uni0157.ss03" horiz-adv-x="401" 
d="M60 497h130v-149q7 23 21.5 50.5t37.5 52.5t55.5 41t76.5 16v-118q-50 0 -88.5 -17.5t-64 -44.5t-38.5 -54v-274h-130v497zM201 -85v-115h-150v115h150z" />
    <glyph glyph-name="sacute.ss03" horiz-adv-x="564" 
d="M40 165h120q11 -34 45.5 -55.5t90.5 -21.5q57 0 76.5 16t19.5 42q0 32 -30 43t-92 21q-56 10 -105.5 25t-79.5 44t-30 79q0 48 30.5 81.5t83 51t118.5 17.5q111 0 165.5 -47.5t55.5 -122.5h-115q-8 37 -32 53.5t-74 16.5q-49 0 -74 -15t-25 -41q0 -31 34.5 -43t103.5 -23
q52 -11 97 -25.5t73.5 -42.5t28.5 -81q0 -72 -61 -110.5t-167 -38.5q-79 0 -130.5 20.5t-80 50.5t-39 59t-7.5 47zM356 717v-114h-151v114h151z" />
    <glyph glyph-name="scaron.ss03" horiz-adv-x="564" 
d="M40 165h120q11 -34 45.5 -55.5t90.5 -21.5q57 0 76.5 16t19.5 42q0 32 -30 43t-92 21q-56 10 -105.5 25t-79.5 44t-30 79q0 48 30.5 81.5t83 51t118.5 17.5q111 0 165.5 -47.5t55.5 -122.5h-115q-8 37 -32 53.5t-74 16.5q-49 0 -74 -15t-25 -41q0 -31 34.5 -43t103.5 -23
q52 -11 97 -25.5t73.5 -42.5t28.5 -81q0 -72 -61 -110.5t-167 -38.5q-79 0 -130.5 20.5t-80 50.5t-39 59t-7.5 47zM356 717v-114h-151v114h151z" />
    <glyph glyph-name="scedilla.ss03" horiz-adv-x="564" 
d="M40 165h120q11 -34 45.5 -55.5t90.5 -21.5q57 0 76.5 16t19.5 42q0 32 -30 43t-92 21q-56 10 -105.5 25t-79.5 44t-30 79q0 48 30.5 81.5t83 51t118.5 17.5q111 0 165.5 -47.5t55.5 -122.5h-115q-8 37 -32 53.5t-74 16.5q-49 0 -74 -15t-25 -41q0 -31 34.5 -43t103.5 -23
q52 -11 97 -25.5t73.5 -42.5t28.5 -81q0 -72 -61 -110.5t-167 -38.5q-79 0 -130.5 20.5t-80 50.5t-39 59t-7.5 47zM380 -95v-115h-151v115h151z" />
    <glyph glyph-name="uni0219.ss03" horiz-adv-x="564" 
d="M40 165h120q11 -34 45.5 -55.5t90.5 -21.5q57 0 76.5 16t19.5 42q0 32 -30 43t-92 21q-56 10 -105.5 25t-79.5 44t-30 79q0 48 30.5 81.5t83 51t118.5 17.5q111 0 165.5 -47.5t55.5 -122.5h-115q-8 37 -32 53.5t-74 16.5q-49 0 -74 -15t-25 -41q0 -31 34.5 -43t103.5 -23
q52 -11 97 -25.5t73.5 -42.5t28.5 -81q0 -72 -61 -110.5t-167 -38.5q-79 0 -130.5 20.5t-80 50.5t-39 59t-7.5 47zM379 -95v-115h-150v115h150z" />
    <glyph glyph-name="tcaron.ss03" horiz-adv-x="434" 
d="M25 497h128v136h130v-136h128v-101h-128v-396h-130v396h-128v101zM466 756v-114h-150v114h150z" />
    <glyph glyph-name="uni0163.ss03" horiz-adv-x="434" 
d="M25 497h128v136h130v-136h128v-101h-128v-396h-130v396h-128v101zM294 -85v-115h-151v115h151z" />
    <glyph glyph-name="uni021B.ss03" horiz-adv-x="434" 
d="M25 497h128v136h130v-136h128v-101h-128v-396h-130v396h-128v101zM293 -85v-115h-150v115h150z" />
    <glyph glyph-name="uacute.ss03" horiz-adv-x="693" 
d="M635 0h-130v170q-8 -25 -24 -56.5t-42.5 -60t-65 -47t-91.5 -18.5q-41 0 -80.5 10t-71.5 33.5t-51 63.5t-19 101v301h130v-279q0 -73 35 -99t97 -26q48 0 84.5 19.5t61 48.5t37.5 59v277h130v-497zM433 717v-114h-151v114h151z" />
    <glyph glyph-name="ucircumflex.ss03" horiz-adv-x="693" 
d="M635 0h-130v170q-8 -25 -24 -56.5t-42.5 -60t-65 -47t-91.5 -18.5q-41 0 -80.5 10t-71.5 33.5t-51 63.5t-19 101v301h130v-279q0 -73 35 -99t97 -26q48 0 84.5 19.5t61 48.5t37.5 59v277h130v-497zM433 717v-114h-151v114h151z" />
    <glyph glyph-name="ugrave.ss03" horiz-adv-x="693" 
d="M635 0h-130v170q-8 -25 -24 -56.5t-42.5 -60t-65 -47t-91.5 -18.5q-41 0 -80.5 10t-71.5 33.5t-51 63.5t-19 101v301h130v-279q0 -73 35 -99t97 -26q48 0 84.5 19.5t61 48.5t37.5 59v277h130v-497zM282 717h151v-114h-151v114z" />
    <glyph glyph-name="uhungarumlaut.ss03" horiz-adv-x="693" 
d="M635 0h-130v170q-8 -25 -24 -56.5t-42.5 -60t-65 -47t-91.5 -18.5q-41 0 -80.5 10t-71.5 33.5t-51 63.5t-19 101v301h130v-279q0 -73 35 -99t97 -26q48 0 84.5 19.5t61 48.5t37.5 59v277h130v-497zM317 716v-114h-151v114h151zM534 716v-114h-151v114h151z" />
    <glyph glyph-name="umacron.ss03" horiz-adv-x="693" 
d="M635 0h-130v170q-8 -25 -24 -56.5t-42.5 -60t-65 -47t-91.5 -18.5q-41 0 -80.5 10t-71.5 33.5t-51 63.5t-19 101v301h130v-279q0 -73 35 -99t97 -26q48 0 84.5 19.5t61 48.5t37.5 59v277h130v-497zM433 717v-114h-151v114h151z" />
    <glyph glyph-name="uogonek.ss03" horiz-adv-x="693" 
d="M635 0h-130v170q-8 -25 -24 -56.5t-42.5 -60t-65 -47t-91.5 -18.5q-41 0 -80.5 10t-71.5 33.5t-51 63.5t-19 101v301h130v-279q0 -73 35 -99t97 -26q48 0 84.5 19.5t61 48.5t37.5 59v277h130v-497zM649 -86v-114h-151v114h151z" />
    <glyph glyph-name="uring.ss03" horiz-adv-x="693" 
d="M635 0h-130v170q-8 -25 -24 -56.5t-42.5 -60t-65 -47t-91.5 -18.5q-41 0 -80.5 10t-71.5 33.5t-51 63.5t-19 101v301h130v-279q0 -73 35 -99t97 -26q48 0 84.5 19.5t61 48.5t37.5 59v277h130v-497zM433 717v-114h-151v114h151z" />
    <glyph glyph-name="wacute.ss03" horiz-adv-x="988" 
d="M631 0l-138 347l-143 -347h-122l-213 497h143l135 -352l126 352h149l121 -351l140 351h143l-219 -497h-122zM567 717v-114h-151v114h151z" />
    <glyph glyph-name="wcircumflex.ss03" horiz-adv-x="988" 
d="M631 0l-138 347l-143 -347h-122l-213 497h143l135 -352l126 352h149l121 -351l140 351h143l-219 -497h-122zM567 717v-114h-151v114h151z" />
    <glyph glyph-name="wgrave.ss03" horiz-adv-x="988" 
d="M631 0l-138 347l-143 -347h-122l-213 497h143l135 -352l126 352h149l121 -351l140 351h143l-219 -497h-122zM416 717h151v-114h-151v114z" />
    <glyph glyph-name="yacute.ss03" horiz-adv-x="639" 
d="M15 497h138l164 -365l167 365h139l-344 -697h-135l110 205zM396 717v-114h-151v114h151z" />
    <glyph glyph-name="ycircumflex.ss03" horiz-adv-x="639" 
d="M15 497h138l164 -365l167 365h139l-344 -697h-135l110 205zM396 717v-114h-151v114h151z" />
    <glyph glyph-name="ygrave.ss03" horiz-adv-x="639" 
d="M15 497h138l164 -365l167 365h139l-344 -697h-135l110 205zM245 717h151v-114h-151v114z" />
    <glyph glyph-name="zacute.ss03" horiz-adv-x="622" 
d="M559 398l-351 -300h358v-98h-509v98l351 300h-351v99h502v-99zM385 717v-114h-151v114h151z" />
    <glyph glyph-name="zcaron.ss03" horiz-adv-x="622" 
d="M559 398l-351 -300h358v-98h-509v98l351 300h-351v99h502v-99zM385 717v-114h-151v114h151z" />
    <glyph glyph-name="T_h" horiz-adv-x="1322" 
d="M20 647h798v-290q8 21 23.5 48t42.5 52t67.5 41.5t96.5 16.5q38 0 76.5 -9t70 -31t50.5 -59t19 -93v-323h-130v278q0 68 -35 96t-107 28q-45 0 -80 -17.5t-58.5 -43.5t-35.5 -53v-288h-130v536h-260v-536h-133v536h-275v111z" />
    <glyph glyph-name="t_i" horiz-adv-x="694" 
d="M635 715v-114h-151v114h151zM25 497h119v136h130v-136h350v-497h-130v398h-220v-398h-130v398h-119v99z" />
    <glyph glyph-name="t_y" horiz-adv-x="1010" 
d="M25 497h119v136h130v-136h250l164 -365l167 365h139l-344 -697h-135l110 205l-191 393h-160v-398h-130v398h-119v99z" />
    <glyph glyph-name="zero.lf" horiz-adv-x="771" 
d="M389 660q110 0 185 -42.5t113 -118.5t38 -176q0 -99 -38 -175t-113 -118.5t-185 -42.5t-185 42.5t-113 118.5t-38 175q0 100 38 176t113 118.5t185 42.5zM389 98q55 0 99.5 26t71 76.5t26.5 122.5q0 73 -26.5 122.5t-71 75.5t-99.5 26t-100.5 -26t-72.5 -75.5t-27 -122.5
q0 -72 27 -122.5t72.5 -76.5t100.5 -26z" />
    <glyph glyph-name="one.lf" horiz-adv-x="387" 
d="M28 539v108h272v-647h-130v539h-142z" />
    <glyph glyph-name="two.lf" horiz-adv-x="664" 
d="M311 188l-125 -77h411v-111h-545v111q113 77 187 129.5t117 87t63.5 57.5t26.5 40.5t6 36.5q0 39 -33 63.5t-105 24.5q-65 0 -105 -25t-42 -66h-126q-3 57 29.5 102.5t94.5 72t146 26.5q81 0 143 -21t97 -63t35 -106q0 -44 -23 -83t-62.5 -73t-88.5 -65.5t-101 -60.5z
" />
    <glyph glyph-name="three.lf" horiz-adv-x="643" 
d="M606 178q0 -56 -35.5 -99.5t-100 -67.5t-152.5 -24q-87 0 -151.5 26.5t-98.5 73t-31 106.5h126q2 -43 46.5 -69t108.5 -26q72 0 111 24.5t39 73.5q0 48 -45 73.5t-127 25.5h-85v73h85q86 0 123.5 24.5t37.5 69.5q0 41 -37 64t-102 23q-64 0 -105 -25t-43 -66h-126
q-3 63 33.5 108t100 69.5t140.5 24.5q129 0 202.5 -48.5t73.5 -127.5q0 -52 -26.5 -83t-73 -45.5t-107.5 -19.5q65 -5 114.5 -21t77 -48.5t27.5 -88.5z" />
    <glyph glyph-name="four.lf" horiz-adv-x="711" 
d="M556 647v-414h115v-99h-115v-134h-130v134h-379v99l379 414h130zM202 233h224v250z" />
    <glyph glyph-name="five.lf" horiz-adv-x="693" 
d="M403 409q63 0 116 -23t85 -68.5t32 -114.5t-35 -117.5t-98 -73.5t-147 -25q-80 0 -147 24.5t-108 69.5t-44 109h124q4 -31 28 -52.5t61 -32.5t80 -11q39 0 75 11.5t59 36t23 62.5q0 39 -22.5 63.5t-57.5 36.5t-73 12q-47 0 -94 -13.5t-71 -49.5l-113 21l30 376h463v-111
h-342l-18 -208q29 38 82 58t112 20z" />
    <glyph glyph-name="six.lf" horiz-adv-x="698" 
d="M392 426q79 0 138 -27t91.5 -76.5t31.5 -115.5q-1 -100 -81 -160t-220 -60q-99 0 -172.5 25t-113.5 73.5t-39 116.5q0 24 7.5 52.5t27.5 61.5q5 7 28 41t57 83.5t72.5 105t72.5 104.5h164l-226 -281q35 28 74 42.5t88 14.5zM345 93q77 0 125.5 30t49.5 86t-46.5 86.5
t-124.5 30.5q-86 0 -137 -34t-52 -84q-1 -56 51.5 -85.5t133.5 -29.5z" />
    <glyph glyph-name="seven.lf" horiz-adv-x="615" 
d="M20 536v111h572v-111l-313 -536h-156l329 536h-432z" />
    <glyph glyph-name="eight.lf" horiz-adv-x="664" 
d="M332 -13q-100 0 -165.5 25.5t-98 68.5t-32.5 97q0 69 44 109t125 55q-74 13 -112 47.5t-38 94.5q0 77 68.5 126.5t208.5 49.5t208.5 -49.5t68.5 -126.5q0 -60 -38 -94.5t-112 -47.5q81 -15 125 -55t44 -109q0 -53 -32.5 -96.5t-98 -69t-165.5 -25.5zM332 379
q74 0 109.5 25.5t35.5 62.5q0 38 -35.5 61.5t-109.5 23.5t-108 -23.5t-34 -61.5q0 -37 34 -62.5t108 -25.5zM332 97q84 0 124 26.5t40 67.5q0 44 -40 70.5t-124 26.5t-122.5 -26.5t-38.5 -70.5q0 -41 38.5 -67.5t122.5 -26.5z" />
    <glyph glyph-name="nine.lf" horiz-adv-x="704" 
d="M298 224q-77 0 -136.5 27.5t-92.5 76.5t-33 115q2 102 83.5 160.5t230.5 58.5t235 -55.5t84 -158.5q0 -26 -9 -55t-31 -63q-3 -6 -21 -32.5t-43.5 -64t-53.5 -78t-52 -76t-39.5 -57.5l-15.5 -22h-165l227 283q-36 -29 -77 -44t-91 -15zM350 557q-82 0 -130.5 -29
t-49.5 -87q-1 -56 46.5 -86.5t129.5 -30.5q86 0 137.5 33t52.5 85q1 57 -51.5 86t-134.5 29z" />
    <glyph glyph-name="zero.osf" horiz-adv-x="704" 
d="M353 -12q-94 0 -165.5 30t-111.5 87.5t-40 141.5t40 142.5t111.5 88.5t165.5 30t164.5 -30t110.5 -88.5t40 -142.5t-40 -141.5t-110.5 -87.5t-164.5 -30zM353 88q51 0 92.5 18.5t66 54t24.5 86.5t-24.5 87.5t-65.5 55.5t-93 19q-51 0 -93 -19t-67 -55t-25 -88
q0 -51 24.5 -86.5t66.5 -54t94 -18.5z" />
    <glyph glyph-name="one.osf" horiz-adv-x="387" 
d="M25 386v111h271v-497h-130v386h-141z" />
    <glyph glyph-name="two.osf" horiz-adv-x="657" 
d="M401 151l-109 -51h315v-100h-533v100q121 54 207.5 89t133 65.5t46.5 70.5q0 35 -32.5 57t-103.5 22q-63 0 -101.5 -24.5t-40.5 -66.5h-126q-3 58 28.5 102t92.5 69t144 25q81 0 142.5 -20.5t96 -58t34.5 -89.5q0 -59 -45.5 -101t-148.5 -89z" />
    <glyph glyph-name="three.osf" horiz-adv-x="641" 
d="M605 27q0 -56 -35.5 -99t-100.5 -67.5t-153 -24.5q-86 0 -150.5 26.5t-98.5 73t-31 107.5h126q1 -43 42 -69.5t112 -26.5q73 0 112 25t39 74q0 47 -45 66.5t-127 19.5h-85v100h85q86 0 123.5 17.5t37.5 61.5q0 41 -33 64.5t-107 23.5q-70 0 -107.5 -25t-39.5 -66h-126
q-3 62 33.5 107.5t100 70t139.5 24.5q129 0 202.5 -48.5t73.5 -128.5q0 -52 -26 -82.5t-72.5 -45t-107.5 -19.5q65 -5 114.5 -20.5t77 -48.5t27.5 -90z" />
    <glyph glyph-name="four.osf" horiz-adv-x="711" 
d="M556 501v-412h115v-100h-115v-134h-130v134h-379v100l379 412h130zM204 89h222v249z" />
    <glyph glyph-name="five.osf" horiz-adv-x="695" 
d="M404 259q66 0 119 -23t84 -68.5t31 -114.5t-35 -117t-98 -73.5t-148 -25.5q-79 0 -146 24.5t-108.5 70t-44.5 108.5h124q4 -31 28 -52.5t61.5 -32.5t80.5 -11q40 0 75.5 11.5t58 36t22.5 62.5q0 39 -21.5 63.5t-56.5 36.5t-75 12q-47 0 -94 -13.5t-71 -49.5l-113 21
l30 376h463v-111h-342l-17 -206q29 36 82 56t111 20z" />
    <glyph glyph-name="six.osf" horiz-adv-x="689" 
d="M392 426q79 0 138 -27t91.5 -76.5t31.5 -115.5q-1 -100 -81 -160t-220 -60q-99 0 -172.5 25t-113.5 73.5t-39 116.5q0 24 7.5 52.5t27.5 61.5q4 7 22 33.5t44.5 64t54.5 78t53 76t40.5 57.5l15.5 22h164l-224 -276q35 26 73.5 40.5t86.5 14.5zM345 93q77 0 125.5 30
t49.5 86t-46.5 86.5t-124.5 30.5q-86 0 -137 -34t-52 -84q-1 -56 51.5 -85.5t133.5 -29.5z" />
    <glyph glyph-name="seven.osf" horiz-adv-x="643" 
d="M33 386v111h571v-111l-312 -536h-157l329 536h-431z" />
    <glyph glyph-name="eight.osf" horiz-adv-x="675" 
d="M337 -13q-99 0 -164.5 25.5t-98 69t-32.5 96.5q0 69 43.5 109t124.5 55q-73 13 -111 47.5t-38 94.5q0 77 68.5 126.5t207.5 49.5q140 0 208.5 -49.5t68.5 -126.5q0 -60 -38 -94.5t-112 -47.5q81 -15 125 -55t44 -109q0 -53 -32.5 -96.5t-98 -69t-165.5 -25.5zM337 379
q74 0 109.5 25.5t35.5 62.5q0 38 -35.5 61.5t-109.5 23.5q-73 0 -107 -23.5t-34 -61.5q0 -37 34 -62.5t107 -25.5zM337 97q85 0 124.5 26.5t39.5 67.5q0 44 -39.5 70.5t-124.5 26.5q-84 0 -122 -26.5t-38 -70.5q0 -41 38 -67.5t122 -26.5z" />
    <glyph glyph-name="nine.osf" horiz-adv-x="697" 
d="M298 74q-77 0 -136.5 27.5t-92.5 76.5t-33 115q2 102 83.5 160.5t230.5 58.5t235 -55.5t84 -158.5q0 -26 -9 -55t-31 -63q-3 -6 -21 -32.5t-43.5 -64t-53.5 -78t-52 -76t-39.5 -57.5l-15.5 -22h-165l227 283q-36 -29 -77 -44t-91 -15zM350 407q-82 0 -130.5 -29
t-49.5 -87q-1 -56 46.5 -86.5t129.5 -30.5q86 0 137.5 33t52.5 85q1 57 -51.5 86t-134.5 29z" />
    <glyph glyph-name="zero.tf" horiz-adv-x="708" 
d="M354 660q105 0 174.5 -42.5t104 -118.5t34.5 -176q0 -99 -34.5 -175t-104 -118.5t-174.5 -42.5t-174.5 42.5t-104 118.5t-34.5 175q0 100 34.5 176t104 118.5t174.5 42.5zM354 98q80 0 126.5 58t46.5 167t-46.5 166.5t-126.5 57.5t-128.5 -57.5t-48.5 -166.5t48.5 -167
t128.5 -58z" />
    <glyph glyph-name="one.tf" horiz-adv-x="708" 
d="M89 111h212v428h-180v108h310v-536h190v-111h-532v111z" />
    <glyph glyph-name="two.tf" horiz-adv-x="708" 
d="M346 188l-125 -77h411v-111h-545v111q113 77 187 129.5t117 87t63.5 57.5t26.5 40.5t6 36.5q0 39 -33 63.5t-105 24.5q-65 0 -105 -25t-42 -66h-126q-3 57 29.5 102.5t94.5 72t146 26.5q81 0 143 -21t97 -63t35 -106q0 -44 -23 -83t-62.5 -73t-88.5 -65.5t-101 -60.5z
" />
    <glyph glyph-name="three.tf" horiz-adv-x="708" 
d="M639 178q0 -56 -35.5 -99.5t-100 -67.5t-152.5 -24q-87 0 -151.5 26.5t-98.5 73t-31 106.5h126q2 -43 46.5 -69t108.5 -26q72 0 111 24.5t39 73.5q0 48 -45 73.5t-127 25.5h-85v73h85q86 0 123.5 24.5t37.5 69.5q0 41 -37 64t-102 23q-64 0 -105 -25t-43 -66h-126
q-3 63 33.5 108t100 69.5t140.5 24.5q129 0 202.5 -48.5t73.5 -127.5q0 -52 -26.5 -83t-73 -45.5t-107.5 -19.5q65 -5 114.5 -21t77 -48.5t27.5 -88.5z" />
    <glyph glyph-name="four.tf" horiz-adv-x="708" 
d="M551 647v-414h115v-99h-115v-134h-130v134h-379v99l379 414h130zM197 233h224v250z" />
    <glyph glyph-name="five.tf" horiz-adv-x="708" 
d="M413 409q63 0 116 -23t85.5 -68.5t32.5 -114.5t-35.5 -117.5t-98.5 -73.5t-147 -25q-79 0 -146 24.5t-108 69.5t-44 109h124q5 -46 53.5 -71t115.5 -25q37 0 72.5 11.5t59.5 36t24 62.5q0 39 -23.5 63.5t-58.5 36.5t-71 12q-49 0 -94.5 -13.5t-69.5 -49.5l-113 21l29 376
h463v-111h-342l-17 -207q29 37 81.5 57t111.5 20z" />
    <glyph glyph-name="six.tf" horiz-adv-x="708" 
d="M396 426q75 0 131.5 -27t89 -76.5t31.5 -115.5t-37 -115.5t-101 -77t-154 -27.5q-93 0 -163.5 25t-110 73.5t-39.5 116.5q1 24 8.5 52.5t27.5 61.5q4 7 21 33.5t41.5 64t51.5 78t50.5 76t38 57.5l14.5 22h165l-211 -270q31 24 66 36.5t80 12.5zM350 93q72 0 118 29.5
t47 86.5q1 56 -44 86.5t-117 30.5q-79 0 -128 -33.5t-50 -84.5q0 -38 22.5 -63.5t62.5 -38.5t89 -13z" />
    <glyph glyph-name="seven.tf" horiz-adv-x="708" 
d="M68 536v111h572v-111l-313 -536h-156l329 536h-432z" />
    <glyph glyph-name="eight.tf" horiz-adv-x="708" 
d="M358 -13q-99 0 -164.5 25.5t-98 69t-32.5 96.5q0 69 43.5 109t124.5 55q-73 13 -111 47.5t-38 94.5q0 77 68.5 126.5t207.5 49.5q140 0 208.5 -49.5t68.5 -126.5q0 -60 -38 -94.5t-112 -47.5q81 -15 125 -55t44 -109q0 -53 -32.5 -96.5t-98 -69t-165.5 -25.5zM358 379
q74 0 109.5 25.5t35.5 62.5q0 38 -35.5 61.5t-109.5 23.5q-73 0 -107 -23.5t-34 -61.5q0 -37 34 -62.5t107 -25.5zM358 97q85 0 124.5 26.5t39.5 67.5q0 44 -39.5 70.5t-124.5 26.5q-84 0 -122 -26.5t-38 -70.5q0 -41 38 -67.5t122 -26.5z" />
    <glyph glyph-name="nine.tf" horiz-adv-x="708" 
d="M303 221q-72 0 -129.5 27.5t-90 76.5t-31.5 115q1 67 36.5 116t100.5 76.5t154 27.5q94 0 164.5 -25t110 -73.5t38.5 -117.5q0 -23 -7.5 -51.5t-27.5 -61.5q-4 -6 -21.5 -33t-42 -64.5t-51.5 -78t-50.5 -76t-38 -57.5l-14.5 -22h-164l210 270q-31 -24 -66 -36.5
t-80 -12.5zM350 554q-73 0 -118.5 -29.5t-46.5 -86.5q-1 -56 43.5 -86.5t117.5 -30.5q77 0 126.5 33.5t50.5 84.5q1 38 -22.5 63.5t-62.5 38.5t-88 13z" />
    <glyph glyph-name="zero.tosf" horiz-adv-x="708" 
d="M355 -12q-94 0 -164 30t-108.5 87.5t-38.5 141.5t38.5 142.5t108.5 88.5t164 30q95 0 164 -30t107 -88.5t38 -142.5q0 -126 -83.5 -192.5t-225.5 -66.5zM355 89q78 0 128 41t50 117q0 77 -49.5 119t-128.5 42q-78 0 -129 -42t-51 -119q0 -76 50.5 -117t129.5 -41z" />
    <glyph glyph-name="one.tosf" horiz-adv-x="708" 
d="M103 108h198v281h-180v108h310v-389h183v-108h-511v108z" />
    <glyph glyph-name="two.tosf" horiz-adv-x="708" 
d="M419 151l-109 -51h315v-100h-533v100q121 54 207.5 89t133 65.5t46.5 70.5q0 35 -32.5 57t-103.5 22q-63 0 -101.5 -24.5t-40.5 -66.5h-126q-3 58 28.5 102t92.5 69t144 25q81 0 142.5 -20.5t96 -58t34.5 -89.5q0 -59 -45.5 -101t-148.5 -89z" />
    <glyph glyph-name="three.tosf" horiz-adv-x="708" 
d="M637 27q0 -56 -35.5 -99t-100.5 -67.5t-153 -24.5q-86 0 -150.5 26.5t-98.5 73t-31 107.5h126q1 -43 42 -69.5t112 -26.5q73 0 112 25t39 74q0 47 -45 66.5t-127 19.5h-85v100h85q86 0 123.5 17.5t37.5 61.5q0 41 -33 64.5t-107 23.5q-70 0 -107.5 -25t-39.5 -66h-126
q-3 62 33.5 107.5t100 70t139.5 24.5q129 0 202.5 -48.5t73.5 -128.5q0 -52 -26 -82.5t-72.5 -45t-107.5 -19.5q65 -5 114.5 -20.5t77 -48.5t27.5 -90z" />
    <glyph glyph-name="four.tosf" horiz-adv-x="708" 
d="M547 501v-412h115v-100h-115v-134h-130v134h-379v100l379 412h130zM195 89h222v249z" />
    <glyph glyph-name="five.tosf" horiz-adv-x="708" 
d="M412 256q64 0 116.5 -23t84.5 -69t32 -114q0 -69 -35 -117t-98 -73.5t-147 -25.5q-81 0 -148 24.5t-108 70t-44 108.5h124q5 -46 54 -71t116 -25q38 0 73.5 11.5t59 36t23.5 62.5q0 39 -23 63.5t-57.5 36.5t-71.5 12q-49 0 -96.5 -13.5t-71.5 -49.5l-113 21l30 376h467
v-111h-346l-18 -207q30 37 84 57t113 20z" />
    <glyph glyph-name="six.tosf" horiz-adv-x="708" 
d="M404 426q75 0 132 -27t89 -76.5t31 -115.5q0 -66 -36 -115.5t-101 -77t-154 -27.5q-93 0 -164 25t-110.5 73.5t-38.5 116.5q0 24 7.5 52.5t27.5 61.5q4 7 21.5 33.5t42 64t51 78t50 76t38 57.5l14.5 22h165l-212 -271q31 24 66.5 37t80.5 13zM358 93q72 0 118 29.5
t47 86.5q1 56 -44 86.5t-117 30.5q-79 0 -127.5 -33.5t-49.5 -84.5q-1 -57 49 -86t124 -29z" />
    <glyph glyph-name="seven.tosf" horiz-adv-x="708" 
d="M64 386v111h571v-111l-312 -536h-157l329 536h-431z" />
    <glyph glyph-name="eight.tosf" horiz-adv-x="708" 
d="M359 -13q-99 0 -164.5 25.5t-98 69t-32.5 96.5q0 69 43.5 109t124.5 55q-73 13 -111 47.5t-38 94.5q0 77 68.5 126.5t207.5 49.5q140 0 208.5 -49.5t68.5 -126.5q0 -60 -38 -94.5t-112 -47.5q81 -15 125 -55t44 -109q0 -53 -32.5 -96.5t-98 -69t-165.5 -25.5zM359 379
q74 0 109.5 25.5t35.5 62.5q0 38 -35.5 61.5t-109.5 23.5q-73 0 -107 -23.5t-34 -61.5q0 -37 34 -62.5t107 -25.5zM359 97q85 0 124.5 26.5t39.5 67.5q0 44 -39.5 70.5t-124.5 26.5q-84 0 -122 -26.5t-38 -70.5q0 -41 38 -67.5t122 -26.5z" />
    <glyph glyph-name="nine.tosf" horiz-adv-x="708" 
d="M303 69q-72 0 -129.5 27.5t-90 77t-31.5 115.5t36.5 115.5t101 76.5t153.5 27q94 0 164.5 -25t110 -73t38.5 -117q0 -24 -7.5 -52t-27.5 -61q-4 -7 -21.5 -33.5t-42 -64.5t-51.5 -78.5t-50.5 -76t-38 -57.5l-14.5 -22h-164l209 270q-30 -24 -65 -36.5t-80 -12.5zM353 402
q-73 0 -120 -29t-48 -87q-1 -55 45 -86t119 -31q80 0 126.5 33.5t47.5 84.5q1 57 -47 86t-123 29z" />
    <glyph glyph-name="fraction.001" horiz-adv-x="84" 
d="M210 700l54 -30l-382 -690l-52 32z" />
    <glyph glyph-name="zero.dnom" horiz-adv-x="483" 
d="M241 402q101 0 153.5 -57.5t52.5 -150.5t-52.5 -150t-153.5 -57q-100 0 -152.5 57t-52.5 150t52.5 150.5t152.5 57.5zM241 87q47 0 71 29t24 78q0 50 -24 78t-71 28q-46 0 -70.5 -28t-24.5 -78q0 -49 24.5 -78t70.5 -29z" />
    <glyph glyph-name="one.dnom" horiz-adv-x="421" 
d="M25 0v87h123v219h-119v87h233v-306h104v-87h-341z" />
    <glyph glyph-name="two.dnom" horiz-adv-x="424" 
d="M384 0h-343v85q126 55 178 101t52 80q0 46 -60 46q-41 0 -59 -14t-21 -28h-97q-3 55 43 94.5t135 39.5q75 0 121.5 -30t46.5 -86q0 -58 -43.5 -98.5t-105.5 -73.5l-68 -31l221 3v-88z" />
    <glyph glyph-name="three.dnom" horiz-adv-x="427" 
d="M253 201q62 -5 100 -24.5t38 -67.5q0 -55 -46.5 -88.5t-129.5 -33.5q-86 0 -134.5 37.5t-44.5 96.5h86q1 -22 24 -34.5t68 -12.5q40 0 57.5 12t17.5 36q0 49 -89 49h-58v55h58q45 0 64 12t19 34q0 18 -17.5 29t-54.5 11q-39 0 -61.5 -11.5t-23.5 -28.5h-86q-2 40 20 69.5
t61.5 45.5t88.5 16q83 0 128.5 -31.5t45.5 -76.5t-35.5 -67.5t-95.5 -26.5z" />
    <glyph glyph-name="four.dnom" horiz-adv-x="453" 
d="M248 0v72h-201v82l213 239h101v-242h52v-79h-52v-72h-113zM158 147h94v126z" />
    <glyph glyph-name="five.dnom" horiz-adv-x="466" 
d="M274 252q64 0 104.5 -34t40.5 -95q0 -64 -46 -100t-131 -36q-80 0 -130.5 36t-53.5 98h91q2 -22 27.5 -35.5t68.5 -13.5q32 0 51.5 14.5t19.5 41.5q0 28 -19 41.5t-49 13.5q-37 0 -62.5 -7t-31.5 -22l-80 21l14 219h293v-85h-214l-8 -98q40 41 115 41z" />
    <glyph glyph-name="six.dnom" horiz-adv-x="435" 
d="M249 269q68 0 109 -38t41 -100q0 -66 -46 -105t-129 -39q-93 0 -145 38.5t-52 96.5q0 20 5.5 40t22.5 43q6 11 20 33t32 48.5t34.5 50.5l27.5 40l11 16h122l-119 -141q28 17 66 17zM218 74q43 0 63.5 17t20.5 43q0 27 -21 43.5t-64 16.5q-41 0 -65.5 -16.5t-24.5 -43.5
q0 -26 24.5 -43t66.5 -17z" />
    <glyph glyph-name="seven.dnom" horiz-adv-x="384" 
d="M23 308v85h338v-86l-158 -307h-122l165 308h-223z" />
    <glyph glyph-name="eight.dnom" horiz-adv-x="442" 
d="M303 202q41 -7 69 -30t28 -64q0 -54 -45 -87.5t-134 -33.5t-134 33.5t-45 87.5q0 41 27.5 64.5t64.5 30.5q-34 8 -57.5 29.5t-23.5 57.5q0 52 43 82t125 30t124.5 -30t42.5 -82q0 -36 -24 -58t-61 -30zM221 316q-33 0 -48.5 -11t-15.5 -30t16 -31t48 -12t49 12t17 31
t-17 30t-49 11zM221 72q38 0 57.5 13t19.5 35q0 23 -19.5 36t-57.5 13q-39 0 -57.5 -13t-18.5 -36q0 -22 18.5 -35t57.5 -13z" />
    <glyph glyph-name="nine.dnom" horiz-adv-x="437" 
d="M216 403q90 0 141.5 -38.5t51.5 -97.5q0 -19 -5.5 -39t-22.5 -44q-6 -10 -20.5 -31.5t-32.5 -47.5t-34.5 -50t-27.5 -39.5l-11 -15.5h-122l117 136q-13 -7 -26.5 -11t-30.5 -4q-73 0 -115 38t-42 100q0 66 47.5 105t132.5 39zM219 196q41 0 65 16.5t24 43.5
q0 26 -24 42.5t-65 16.5t-61.5 -16.5t-20.5 -42.5q0 -27 21 -43.5t61 -16.5z" />
    <glyph glyph-name="zero.numr" horiz-adv-x="483" 
d="M241 655q101 0 153.5 -57t52.5 -150t-52.5 -150t-153.5 -57q-100 0 -152.5 57t-52.5 150t52.5 150t152.5 57zM241 341q47 0 71 28.5t24 78.5q0 49 -24 77.5t-71 28.5q-46 0 -70.5 -28.5t-24.5 -77.5t24.5 -78t70.5 -29z" />
    <glyph glyph-name="one.numr" horiz-adv-x="421" 
d="M25 254v87h123v219h-119v87h233v-306h104v-87h-341z" />
    <glyph glyph-name="two.numr" horiz-adv-x="424" 
d="M384 254h-343v85q126 55 178 100.5t52 80.5q0 45 -60 45q-41 0 -59 -13.5t-21 -27.5h-97q-3 54 43 93.5t135 39.5q75 0 121.5 -29.5t46.5 -86.5t-43.5 -97.5t-105.5 -73.5l-68 -31l221 3v-88z" />
    <glyph glyph-name="three.numr" horiz-adv-x="427" 
d="M250 454q64 -4 102.5 -23t38.5 -68q0 -55 -46.5 -88.5t-129.5 -33.5q-86 0 -134.5 37.5t-44.5 96.5h86q1 -22 24 -35t68 -13q40 0 57.5 12.5t17.5 36.5q0 49 -89 49h-58v55h58q45 0 64 12t19 34q0 18 -17.5 29t-54.5 11q-39 0 -61.5 -11.5t-23.5 -28.5h-86q-2 40 20 69.5
t61.5 45.5t88.5 16q83 0 128.5 -31.5t45.5 -76.5t-36 -68t-98 -27z" />
    <glyph glyph-name="four.numr" horiz-adv-x="453" 
d="M248 254v71h-201v83l213 239h101v-242h52v-80h-52v-71h-113zM158 401h94v126z" />
    <glyph glyph-name="five.numr" horiz-adv-x="466" 
d="M274 506q64 0 104.5 -34t40.5 -96q0 -64 -46 -99.5t-131 -35.5q-80 0 -130.5 36t-53.5 98h91q2 -22 27.5 -35.5t68.5 -13.5q32 0 51.5 14t19.5 42t-19 41.5t-49 13.5q-37 0 -62.5 -7.5t-31.5 -21.5l-80 20l14 219h293v-84h-214l-8 -98q40 41 115 41z" />
    <glyph glyph-name="six.numr" horiz-adv-x="435" 
d="M249 522q68 0 109 -37.5t41 -99.5q0 -67 -46 -105.5t-129 -38.5q-93 0 -145 38.5t-52 96.5q0 20 5.5 40t22.5 43q6 10 20 32.5t32 49t34.5 50.5l27.5 40l11 16h122l-119 -141q14 8 30 12t36 4zM218 328q43 0 63.5 16.5t20.5 42.5q0 27 -21 44t-64 17q-41 0 -65.5 -17
t-24.5 -44q0 -26 24.5 -42.5t66.5 -16.5z" />
    <glyph glyph-name="seven.numr" horiz-adv-x="384" 
d="M23 561v86h338v-87l-158 -306h-122l165 307h-223z" />
    <glyph glyph-name="eight.numr" horiz-adv-x="442" 
d="M303 456q41 -7 69 -30.5t28 -63.5q0 -54 -45 -87.5t-134 -33.5t-134 33.5t-45 87.5q0 40 27.5 64t64.5 31q-34 8 -57.5 29t-23.5 58q0 52 43 82t125 30t124.5 -30t42.5 -82q0 -37 -24 -58.5t-61 -29.5zM221 570q-33 0 -48.5 -11.5t-15.5 -30.5t16 -31t48 -12t49 12t17 31
t-17 30.5t-49 11.5zM221 326q38 0 57.5 13t19.5 35t-19.5 35.5t-57.5 13.5q-39 0 -57.5 -13.5t-18.5 -35.5t18.5 -35t57.5 -13z" />
    <glyph glyph-name="nine.numr" horiz-adv-x="437" 
d="M216 656q90 0 141.5 -38t51.5 -97q0 -19 -5.5 -39t-22.5 -44q-6 -10 -20.5 -31.5t-32.5 -47.5t-34.5 -50t-27.5 -39.5l-11 -15.5h-122l117 136q-25 -15 -57 -15q-73 0 -115 38t-42 99q0 67 47.5 105.5t132.5 38.5zM219 449q41 0 65 17t24 44q0 26 -24 42.5t-65 16.5
t-61.5 -16.5t-20.5 -42.5q0 -27 21 -44t61 -17z" />
    <glyph glyph-name="exclam.case" horiz-adv-x="305" 
d="M86 647h132v-445h-132v445zM228 114v-114h-151v114h151z" />
    <glyph glyph-name="exclamdown.case" horiz-adv-x="305" 
d="M228 533h-151v114h151v-114zM86 0v445h132v-445h-132z" />
    <glyph glyph-name="question.case" horiz-adv-x="581" 
d="M289 660q87 0 142 -26.5t81.5 -71t26.5 -100.5q0 -59 -26.5 -100.5t-72 -64.5t-103.5 -28v-68h-127v166h73q59 0 91 26t32 66q0 41 -30.5 64t-86.5 23q-58 0 -87 -24.5t-31 -59.5h-129q-1 45 25 90.5t81 76.5t141 31zM346 0h-150v114h150v-114z" />
    <glyph glyph-name="questiondown.case" horiz-adv-x="598" 
d="M245 536v114h151v-114h-151zM302 -10q-86 0 -141.5 26.5t-82 71.5t-26.5 100q0 60 26.5 101t72.5 64.5t104 27.5v68h127v-166h-73q-58 0 -90.5 -25.5t-32.5 -66.5q0 -40 30 -63.5t86 -23.5q58 0 87.5 24.5t31.5 59.5h128q2 -45 -24.5 -90.5t-81.5 -76.5t-141 -31z" />
    <glyph glyph-name="parenleft.case" horiz-adv-x="336" 
d="M283 -53l-69 -56l-16.5 18.5t-40 54.5t-47.5 88.5t-40.5 120.5t-16.5 150q0 83 16.5 150.5t40.5 119t47.5 87t40 53.5l16.5 18l69 -55l-19.5 -24t-44.5 -71.5t-44.5 -117t-19.5 -160.5q0 -93 19.5 -163.5t44.5 -118t44.5 -71z" />
    <glyph glyph-name="parenright.case" horiz-adv-x="336" 
d="M53 -53l19.5 23.5t44.5 71t44.5 118t19.5 163.5q0 91 -19.5 160.5t-44.5 117t-44.5 71.5l-19.5 24l69 55l16.5 -18t40.5 -53.5t47.5 -87t40 -119t16.5 -150.5q0 -82 -16.5 -150t-40 -120.5t-47.5 -88.5t-40.5 -54.5l-16.5 -18.5z" />
    <glyph glyph-name="exclam_question" horiz-adv-x="853" 
d="M599 258q-39 0 -86 14l-22 -80l-116 37l49 165l56 -19q26 -7 46.5 -11.5t36.5 -4.5q51 0 78 33.5t27 79.5q0 36 -25 63t-61.5 42t-71.5 15q-34 0 -59 -18.5t-35 -50.5l-122 40q10 38 37 71t70 53.5t99 20.5q54 0 107 -17.5t97.5 -49.5t71 -75.5t26.5 -95.5
q0 -61 -24.5 -109t-70 -75.5t-108.5 -27.5zM202 181l-171 475l123 45l171 -474zM428 114v-114h-151v114h151z" />
    <glyph glyph-name="ampersand.case" horiz-adv-x="789" 
d="M207 385h562v-105h-137v-426h-123v146h-432v647h380v-111h-250v-151zM207 111h302v169h-302v-169z" />
    <glyph glyph-name="ampersand.ss01" horiz-adv-x="802" 
d="M348 -13q-91 0 -157 25.5t-102 70.5t-36 106q0 58 31 96t81 58.5t107 26.5l-180 178v99h547v-99h-392l345 -354q24 40 29 94h113q-9 -102 -65 -173l112 -115h-135l-50 49q-46 -29 -108 -45.5t-140 -16.5zM177 207q0 -55 50.5 -83t137.5 -28q48 0 86 8t67 23l-191 189
q-67 -4 -108.5 -31.5t-41.5 -77.5z" />
    <glyph glyph-name="at.ss02" horiz-adv-x="895" 
d="M550 39q-1 -4 -11 -18t-24.5 -32t-29 -35t-25.5 -27q-25 -22 -45.5 -42t-42.5 -32t-53 -12q-20 0 -50.5 8t-57.5 20.5t-39 26.5q-23 29 -45 62t-36 67.5t-14 67.5q0 74 10 137.5t31 125.5t54 132q10 22 35 47.5t58 50.5t67 44.5t62 28.5q21 6 50 12.5t60 11.5t57.5 8.5
t42.5 3.5q33 0 75.5 -11.5t69.5 -25.5q17 -9 31 -35t23 -58t9 -60q0 -49 -14.5 -99t-28.5 -96q-3 -9 -13.5 -34t-24.5 -55t-28 -54.5t-23 -31.5q-7 -6 -16 -10.5t-14 -11.5q-4 -4 -7 -9t-9 -5q-4 0 -8.5 3.5t-8.5 4.5q-25 10 -36.5 25.5t-11.5 37.5q0 47 2 92t2 92
q0 2 5.5 17t10 29t1.5 11q-10 -9 -19.5 -19t-18.5 -20v-53q-9 0 -34 10q-23 -31 -45 -62t-47 -58q-37 -40 -81.5 -72.5t-83.5 -70.5q-4 -4 -4.5 11.5t0.5 40.5t3.5 50t5.5 40q10 47 24.5 91t29.5 90q7 23 10.5 33t5 20t1.5 31q0 6 4 6q5 0 18.5 -2.5l27 -5t18.5 -4.5
q12 -4 40.5 -17t55.5 -25q10 13 19 24t17 18q35 32 67 29t48 -35.5t0 -90.5l-9 -16q0 -41 -5.5 -79t-7.5 -76v0l74 131q16 54 27 94.5t11 77.5q0 29 -8 52.5t-25 33.5q-8 4 -28 9t-41.5 8.5t-35.5 3.5q-12 0 -36 -3t-52 -7.5t-53.5 -9.5t-42.5 -10q-25 -8 -54 -23.5
t-56 -33.5t-46.5 -36t-26.5 -32q-34 -72 -53 -128t-26.5 -110t-7.5 -120q0 -38 8.5 -62t21.5 -39.5t27.5 -27.5t26.5 -27q-4 5 7 5t47 -14q26 -10 44.5 -6t37.5 20t44 41q19 17 35.5 38t44.5 56zM388 367q-19 -53 -35.5 -97t-30.5 -79l45 44q18 19 40.5 52.5t45.5 68.5
q-16 7 -32 13.5t-28 12.5z" />
    <glyph glyph-name="uni030C.alt" 
d="M254 487h-69l-42 124v86h153v-86z" />
    <glyph glyph-name="gravecomb.ss03" 
d="M75 717h151v-114h-151v114z" />
    <glyph glyph-name="acutecomb.ss03" 
d="M226 717v-114h-151v114h151z" />
    <glyph glyph-name="uni030B.ss03" 
d="M219 716v-114h-151v114h151zM436 716v-114h-151v114h151z" />
    <glyph glyph-name="uni030C.alt.ss03" 
d="M215 697v-114h-150v114h150z" />
    <glyph glyph-name="uni0302.ss03" 
d="M226 717v-114h-151v114h151z" />
    <glyph glyph-name="uni030C.ss03" 
d="M226 717v-114h-151v114h151z" />
    <glyph glyph-name="uni0306.ss03" 
d="M226 717v-114h-151v114h151z" />
    <glyph glyph-name="uni030A.ss03" 
d="M226 717v-114h-151v114h151z" />
    <glyph glyph-name="tildecomb.ss03" 
d="M226 717v-114h-151v114h151z" />
    <glyph glyph-name="uni0304.ss03" 
d="M226 717v-114h-151v114h151z" />
    <glyph glyph-name="uni0312.ss03" 
d="M233 595v115h151v-115h-151z" />
    <glyph glyph-name="uni0326.ss03" 
d="M215 -85v-115h-150v115h150z" />
    <glyph glyph-name="uni0327.ss03" 
d="M226 -85v-115h-151v115h151z" />
    <glyph glyph-name="uni0328.ss03" 
d="M226 -86v-114h-151v114h151z" />
    <glyph glyph-name="grave.ss03" horiz-adv-x="301" 
d="M75 717h151v-114h-151v114z" />
    <glyph glyph-name="acute.ss03" horiz-adv-x="304" 
d="M236 717v-114h-151v114h151z" />
    <glyph glyph-name="hungarumlaut.ss03" horiz-adv-x="541" 
d="M231 716v-114h-151v114h151zM448 716v-114h-151v114h151z" />
    <glyph glyph-name="circumflex.ss03" horiz-adv-x="304" 
d="M236 717v-114h-151v114h151z" />
    <glyph glyph-name="caron.ss03" horiz-adv-x="301" 
d="M226 717v-114h-151v114h151z" />
    <glyph glyph-name="breve.ss03" horiz-adv-x="596" 
d="M226 738v-114h-151v114h151z" />
    <glyph glyph-name="ring.ss03" horiz-adv-x="301" 
d="M226 717v-114h-151v114h151z" />
    <glyph glyph-name="tilde.ss03" horiz-adv-x="596" 
d="M226 717v-114h-151v114h151z" />
    <glyph glyph-name="macron.ss03" horiz-adv-x="304" 
d="M226 717v-114h-151v114h151z" />
    <glyph glyph-name="cedilla.ss03" horiz-adv-x="304" 
d="M226 -85v-115h-151v115h151z" />
    <glyph glyph-name="ogonek.ss03" horiz-adv-x="304" 
d="M226 -86v-114h-151v114h151z" />
    <glyph glyph-name="random" horiz-adv-x="600" 
d="M255 608l453 -283l-581 -196l-73 338z" />
    </font>
</defs>
</svg>
